ISO-10303-21;
HEADER;
/*Generated by software containing ST-Developer
 * from STEP Tools, Inc. (www.steptools.com) 
 */
/*OPTION: using custom renumber hook */
/*description */
/*implementation_level */
FILE_DESCRIPTION(('STEP AP242 Edition 2','STEP AP242 Edition 2''CAx-IF Rec.Pracs.---Representation and Presentation of Product Manufa
cturing Information (PMI)---4.0---2014-10-13','STEP AP242 Edition 2''CAx-IF Rec.Pracs.---Representation and Presentation of Product Manufa
cturing Information (PMI)---4.0---2014-10-13''CAx-IF Rec.Pracs.---3D Tessellated Geometry---0.4---2014-09-14','STEP AP242 Edition 2''CAx-IF Rec.Pracs.---Representation and Presentation of Product Manufa
cturing Information (PMI)---4.0---2014-10-13''CAx-IF Rec.Pracs.---3D Tessellated Geometry---0.4---2014-09-14''2;1','STEP AP242 Edition 2''CAx-IF Rec.Pracs.---Representation and Presentation of Product Manufa
cturing Information (PMI)---4.0---2014-10-13''CAx-IF Rec.Pracs.---3D Tessellated Geometry---0.4---2014-09-14''2;1''CAx-IF Rec.Pracs.---User Defined Attributes---1.5---2016-08-15'),'2;1');
/*name */
/*time_stamp */
/*author */
/*organization */
/*preprocessor_version */
/*originating_system */
/*authorisation */
FILE_NAME('/vol/tmp/translate-2231621226863147405/Part Studio 1 - couvercle.step','2026-03-07T15:54:06',(''),(''),'ST-DEVELOPER v20','ONSHAPE BY PTC INC, 1.211','  ');
FILE_SCHEMA(('AP242_MANAGED_MODEL_BASED_3D_ENGINEERING_MIM_LF { 1 0 10303 442 3 1 4 }'));
ENDSEC;
DATA;
#10=SHAPE_REPRESENTATION_RELATIONSHIP('','',#199,#11);
#11=ADVANCED_BREP_SHAPE_REPRESENTATION('',(#197),#325);
#12=LINE('',#287,#24);
#13=LINE('',#290,#25);
#14=LINE('',#292,#26);
#15=LINE('',#294,#27);
#16=LINE('',#296,#28);
#17=LINE('',#298,#29);
#18=LINE('',#300,#30);
#19=LINE('',#302,#31);
#20=LINE('',#304,#32);
#21=LINE('',#306,#33);
#22=LINE('',#308,#34);
#23=LINE('',#309,#35);
#24=VECTOR('',#237,1.);
#25=VECTOR('',#238,1.);
#26=VECTOR('',#239,1.);
#27=VECTOR('',#240,1.);
#28=VECTOR('',#243,1.);
#29=VECTOR('',#244,1.);
#30=VECTOR('',#245,1.);
#31=VECTOR('',#248,1.);
#32=VECTOR('',#249,1.);
#33=VECTOR('',#250,1.);
#34=VECTOR('',#253,1.);
#35=VECTOR('',#254,1.);
#36=PLANE('',#207);
#37=PLANE('',#208);
#38=PLANE('',#209);
#39=PLANE('',#210);
#40=PLANE('',#211);
#41=PLANE('',#212);
#42=PLANE('',#217);
#43=PLANE('',#220);
#44=ORIENTED_EDGE('',*,*,#84,.F.);
#45=ORIENTED_EDGE('',*,*,#85,.T.);
#46=ORIENTED_EDGE('',*,*,#86,.F.);
#47=ORIENTED_EDGE('',*,*,#87,.T.);
#48=ORIENTED_EDGE('',*,*,#88,.T.);
#49=ORIENTED_EDGE('',*,*,#89,.F.);
#50=ORIENTED_EDGE('',*,*,#90,.F.);
#51=ORIENTED_EDGE('',*,*,#91,.T.);
#52=ORIENTED_EDGE('',*,*,#92,.F.);
#53=ORIENTED_EDGE('',*,*,#91,.F.);
#54=ORIENTED_EDGE('',*,*,#93,.T.);
#55=ORIENTED_EDGE('',*,*,#94,.T.);
#56=ORIENTED_EDGE('',*,*,#95,.F.);
#57=ORIENTED_EDGE('',*,*,#94,.F.);
#58=ORIENTED_EDGE('',*,*,#96,.T.);
#59=ORIENTED_EDGE('',*,*,#97,.T.);
#60=ORIENTED_EDGE('',*,*,#98,.T.);
#61=ORIENTED_EDGE('',*,*,#97,.F.);
#62=ORIENTED_EDGE('',*,*,#99,.F.);
#63=ORIENTED_EDGE('',*,*,#89,.T.);
#64=ORIENTED_EDGE('',*,*,#86,.T.);
#65=ORIENTED_EDGE('',*,*,#84,.T.);
#66=ORIENTED_EDGE('',*,*,#90,.T.);
#67=ORIENTED_EDGE('',*,*,#99,.T.);
#68=ORIENTED_EDGE('',*,*,#96,.F.);
#69=ORIENTED_EDGE('',*,*,#93,.F.);
#70=ORIENTED_EDGE('',*,*,#100,.F.);
#71=ORIENTED_EDGE('',*,*,#101,.F.);
#72=ORIENTED_EDGE('',*,*,#88,.F.);
#73=ORIENTED_EDGE('',*,*,#92,.T.);
#74=ORIENTED_EDGE('',*,*,#95,.T.);
#75=ORIENTED_EDGE('',*,*,#98,.F.);
#76=ORIENTED_EDGE('',*,*,#102,.F.);
#77=ORIENTED_EDGE('',*,*,#101,.T.);
#78=ORIENTED_EDGE('',*,*,#87,.F.);
#79=ORIENTED_EDGE('',*,*,#102,.T.);
#80=ORIENTED_EDGE('',*,*,#103,.F.);
#81=ORIENTED_EDGE('',*,*,#100,.T.);
#82=ORIENTED_EDGE('',*,*,#85,.F.);
#83=ORIENTED_EDGE('',*,*,#103,.T.);
#84=EDGE_CURVE('',#104,#104,#120,.T.);
#85=EDGE_CURVE('',#105,#105,#121,.T.);
#86=EDGE_CURVE('',#106,#106,#122,.T.);
#87=EDGE_CURVE('',#107,#107,#123,.T.);
#88=EDGE_CURVE('',#108,#109,#12,.T.);
#89=EDGE_CURVE('',#110,#109,#13,.T.);
#90=EDGE_CURVE('',#111,#110,#14,.T.);
#91=EDGE_CURVE('',#111,#108,#15,.T.);
#92=EDGE_CURVE('',#108,#112,#16,.T.);
#93=EDGE_CURVE('',#111,#113,#17,.T.);
#94=EDGE_CURVE('',#113,#112,#18,.T.);
#95=EDGE_CURVE('',#112,#114,#19,.T.);
#96=EDGE_CURVE('',#113,#115,#20,.T.);
#97=EDGE_CURVE('',#115,#114,#21,.T.);
#98=EDGE_CURVE('',#109,#114,#22,.T.);
#99=EDGE_CURVE('',#110,#115,#23,.T.);
#100=EDGE_CURVE('',#116,#116,#124,.T.);
#101=EDGE_CURVE('',#117,#117,#125,.T.);
#102=EDGE_CURVE('',#118,#118,#126,.T.);
#103=EDGE_CURVE('',#119,#119,#127,.T.);
#104=VERTEX_POINT('',#278);
#105=VERTEX_POINT('',#280);
#106=VERTEX_POINT('',#283);
#107=VERTEX_POINT('',#285);
#108=VERTEX_POINT('',#288);
#109=VERTEX_POINT('',#289);
#110=VERTEX_POINT('',#291);
#111=VERTEX_POINT('',#293);
#112=VERTEX_POINT('',#297);
#113=VERTEX_POINT('',#299);
#114=VERTEX_POINT('',#303);
#115=VERTEX_POINT('',#305);
#116=VERTEX_POINT('',#313);
#117=VERTEX_POINT('',#315);
#118=VERTEX_POINT('',#318);
#119=VERTEX_POINT('',#322);
#120=CIRCLE('',#202,0.0016);
#121=CIRCLE('',#203,0.0016);
#122=CIRCLE('',#205,0.0016);
#123=CIRCLE('',#206,0.0016);
#124=CIRCLE('',#213,0.00325);
#125=CIRCLE('',#214,0.00325);
#126=CIRCLE('',#216,0.00325);
#127=CIRCLE('',#219,0.00325);
#128=EDGE_LOOP('',(#44));
#129=EDGE_LOOP('',(#45));
#130=EDGE_LOOP('',(#46));
#131=EDGE_LOOP('',(#47));
#132=EDGE_LOOP('',(#48,#49,#50,#51));
#133=EDGE_LOOP('',(#52,#53,#54,#55));
#134=EDGE_LOOP('',(#56,#57,#58,#59));
#135=EDGE_LOOP('',(#60,#61,#62,#63));
#136=EDGE_LOOP('',(#64));
#137=EDGE_LOOP('',(#65));
#138=EDGE_LOOP('',(#66,#67,#68,#69));
#139=EDGE_LOOP('',(#70));
#140=EDGE_LOOP('',(#71));
#141=EDGE_LOOP('',(#72,#73,#74,#75));
#142=EDGE_LOOP('',(#76));
#143=EDGE_LOOP('',(#77));
#144=EDGE_LOOP('',(#78));
#145=EDGE_LOOP('',(#79));
#146=EDGE_LOOP('',(#80));
#147=EDGE_LOOP('',(#81));
#148=EDGE_LOOP('',(#82));
#149=EDGE_LOOP('',(#83));
#150=FACE_BOUND('',#128,.T.);
#151=FACE_BOUND('',#129,.T.);
#152=FACE_BOUND('',#130,.T.);
#153=FACE_BOUND('',#131,.T.);
#154=FACE_BOUND('',#132,.T.);
#155=FACE_BOUND('',#133,.T.);
#156=FACE_BOUND('',#134,.T.);
#157=FACE_BOUND('',#135,.T.);
#158=FACE_BOUND('',#136,.T.);
#159=FACE_BOUND('',#137,.T.);
#160=FACE_BOUND('',#138,.T.);
#161=FACE_BOUND('',#139,.T.);
#162=FACE_BOUND('',#140,.T.);
#163=FACE_BOUND('',#141,.T.);
#164=FACE_BOUND('',#142,.T.);
#165=FACE_BOUND('',#143,.T.);
#166=FACE_BOUND('',#144,.T.);
#167=FACE_BOUND('',#145,.T.);
#168=FACE_BOUND('',#146,.T.);
#169=FACE_BOUND('',#147,.T.);
#170=FACE_BOUND('',#148,.T.);
#171=FACE_BOUND('',#149,.T.);
#172=CYLINDRICAL_SURFACE('',#201,0.0016);
#173=CYLINDRICAL_SURFACE('',#204,0.0016);
#174=CYLINDRICAL_SURFACE('',#215,0.00325);
#175=CYLINDRICAL_SURFACE('',#218,0.00325);
#176=ADVANCED_FACE('',(#150,#151),#172,.F.);
#177=ADVANCED_FACE('',(#152,#153),#173,.F.);
#178=ADVANCED_FACE('',(#154),#36,.F.);
#179=ADVANCED_FACE('',(#155),#37,.T.);
#180=ADVANCED_FACE('',(#156),#38,.T.);
#181=ADVANCED_FACE('',(#157),#39,.F.);
#182=ADVANCED_FACE('',(#158,#159,#160),#40,.F.);
#183=ADVANCED_FACE('',(#161,#162,#163),#41,.T.);
#184=ADVANCED_FACE('',(#164,#165),#174,.F.);
#185=ADVANCED_FACE('',(#166,#167),#42,.T.);
#186=ADVANCED_FACE('',(#168,#169),#175,.F.);
#187=ADVANCED_FACE('',(#170,#171),#43,.T.);
#188=CLOSED_SHELL('',(#176,#177,#178,#179,#180,#181,#182,#183,#184,#185,#186,#187));
#189=STYLED_ITEM('',(#190),#197);
#190=PRESENTATION_STYLE_ASSIGNMENT((#191));
#191=SURFACE_STYLE_USAGE(.BOTH.,#192);
#192=SURFACE_SIDE_STYLE('',(#193));
#193=SURFACE_STYLE_FILL_AREA(#194);
#194=FILL_AREA_STYLE('',(#195));
#195=FILL_AREA_STYLE_COLOUR('',#196);
#196=COLOUR_RGB('',0.647058823529412,0.647058823529412,0.647058823529412);
#197=MANIFOLD_SOLID_BREP('couvercle',#188);
#198=SHAPE_DEFINITION_REPRESENTATION(#330,#199);
#199=SHAPE_REPRESENTATION('couvercle',(#200),#325);
#200=AXIS2_PLACEMENT_3D('',#275,#221,#222);
#201=AXIS2_PLACEMENT_3D('',#276,#223,#224);
#202=AXIS2_PLACEMENT_3D('',#277,#225,#226);
#203=AXIS2_PLACEMENT_3D('',#279,#227,#228);
#204=AXIS2_PLACEMENT_3D('',#281,#229,#230);
#205=AXIS2_PLACEMENT_3D('',#282,#231,#232);
#206=AXIS2_PLACEMENT_3D('',#284,#233,#234);
#207=AXIS2_PLACEMENT_3D('',#286,#235,#236);
#208=AXIS2_PLACEMENT_3D('',#295,#241,#242);
#209=AXIS2_PLACEMENT_3D('',#301,#246,#247);
#210=AXIS2_PLACEMENT_3D('',#307,#251,#252);
#211=AXIS2_PLACEMENT_3D('',#310,#255,#256);
#212=AXIS2_PLACEMENT_3D('',#311,#257,#258);
#213=AXIS2_PLACEMENT_3D('',#312,#259,#260);
#214=AXIS2_PLACEMENT_3D('',#314,#261,#262);
#215=AXIS2_PLACEMENT_3D('',#316,#263,#264);
#216=AXIS2_PLACEMENT_3D('',#317,#265,#266);
#217=AXIS2_PLACEMENT_3D('',#319,#267,#268);
#218=AXIS2_PLACEMENT_3D('',#320,#269,#270);
#219=AXIS2_PLACEMENT_3D('',#321,#271,#272);
#220=AXIS2_PLACEMENT_3D('',#323,#273,#274);
#221=DIRECTION('',(0.,0.,1.));
#222=DIRECTION('',(1.,0.,0.));
#223=DIRECTION('',(0.,-1.110223024625E-16,-1.));
#224=DIRECTION('',(0.,1.,-1.110223024625E-16));
#225=DIRECTION('',(0.,-1.110223024625E-16,-1.));
#226=DIRECTION('',(0.,1.,-1.110223024625E-16));
#227=DIRECTION('',(0.,-1.110223024625E-16,-1.));
#228=DIRECTION('',(0.,1.,-1.110223024625E-16));
#229=DIRECTION('',(0.,-1.110223024625E-16,-1.));
#230=DIRECTION('',(0.,1.,-1.110223024625E-16));
#231=DIRECTION('',(0.,-1.110223024625E-16,-1.));
#232=DIRECTION('',(0.,1.,-1.110223024625E-16));
#233=DIRECTION('',(0.,-1.110223024625E-16,-1.));
#234=DIRECTION('',(0.,1.,-1.110223024625E-16));
#235=DIRECTION('',(0.,1.,-1.110223024625E-16));
#236=DIRECTION('',(0.,1.110223024625E-16,1.));
#237=DIRECTION('',(1.,0.,0.));
#238=DIRECTION('',(0.,-1.110223024625E-16,-1.));
#239=DIRECTION('',(1.,0.,0.));
#240=DIRECTION('',(0.,-1.110223024625E-16,-1.));
#241=DIRECTION('',(-1.,0.,0.));
#242=DIRECTION('',(0.,0.,1.));
#243=DIRECTION('',(0.,1.,-1.110223024625E-16));
#244=DIRECTION('',(0.,1.,-1.110223024625E-16));
#245=DIRECTION('',(0.,-1.110223024625E-16,-1.));
#246=DIRECTION('',(0.,1.,-1.110223024625E-16));
#247=DIRECTION('',(0.,1.110223024625E-16,1.));
#248=DIRECTION('',(1.,0.,0.));
#249=DIRECTION('',(1.,0.,0.));
#250=DIRECTION('',(0.,-1.110223024625E-16,-1.));
#251=DIRECTION('',(-1.,0.,0.));
#252=DIRECTION('',(0.,0.,1.));
#253=DIRECTION('',(0.,1.,-1.110223024625E-16));
#254=DIRECTION('',(0.,1.,-1.110223024625E-16));
#255=DIRECTION('',(0.,-1.110223024625E-16,-1.));
#256=DIRECTION('',(1.,0.,0.));
#257=DIRECTION('',(0.,-1.110223024625E-16,-1.));
#258=DIRECTION('',(1.,0.,0.));
#259=DIRECTION('',(0.,-1.110223024625E-16,-1.));
#260=DIRECTION('',(0.,1.,-1.110223024625E-16));
#261=DIRECTION('',(0.,-1.110223024625E-16,-1.));
#262=DIRECTION('',(0.,1.,-1.110223024625E-16));
#263=DIRECTION('',(0.,-1.110223024625E-16,-1.));
#264=DIRECTION('',(0.,1.,-1.110223024625E-16));
#265=DIRECTION('',(0.,-1.110223024625E-16,-1.));
#266=DIRECTION('',(0.,1.,-1.110223024625E-16));
#267=DIRECTION('',(0.,-1.110223024625E-16,-1.));
#268=DIRECTION('',(1.,0.,0.));
#269=DIRECTION('',(0.,-1.110223024625E-16,-1.));
#270=DIRECTION('',(0.,1.,-1.110223024625E-16));
#271=DIRECTION('',(0.,-1.110223024625E-16,-1.));
#272=DIRECTION('',(0.,1.,-1.110223024625E-16));
#273=DIRECTION('',(0.,-1.110223024625E-16,-1.));
#274=DIRECTION('',(1.,0.,0.));
#275=CARTESIAN_POINT('',(0.,0.,0.));
#276=CARTESIAN_POINT('',(0.0036865,0.069933185,0.082761794754768));
#277=CARTESIAN_POINT('',(0.0036865,0.069933185,-0.01058));
#278=CARTESIAN_POINT('',(0.0036865,0.071533185,-0.01058));
#279=CARTESIAN_POINT('',(0.0036865,0.069933185,-0.01205));
#280=CARTESIAN_POINT('',(0.0036865,0.071533185,-0.01205));
#281=CARTESIAN_POINT('',(0.,-0.0037,0.082761794754768));
#282=CARTESIAN_POINT('',(0.,-0.0037,-0.01058));
#283=CARTESIAN_POINT('',(0.,-0.0021,-0.01058));
#284=CARTESIAN_POINT('',(0.,-0.0037,-0.01205));
#285=CARTESIAN_POINT('',(0.,-0.0021,-0.01205));
#286=CARTESIAN_POINT('',(0.000225999999999993,-0.0088,-0.01058));
#287=CARTESIAN_POINT('',(0.000225999999999993,-0.0088,-0.01405));
#288=CARTESIAN_POINT('',(-0.0095345,-0.0088,-0.01405));
#289=CARTESIAN_POINT('',(0.0099865,-0.0088,-0.01405));
#290=CARTESIAN_POINT('',(0.0099865,-0.0088,-0.01058));
#291=CARTESIAN_POINT('',(0.0099865,-0.0088,-0.01058));
#292=CARTESIAN_POINT('',(0.000225999999999993,-0.0088,-0.01058));
#293=CARTESIAN_POINT('',(-0.0095345,-0.0088,-0.01058));
#294=CARTESIAN_POINT('',(-0.0095345,-0.0088,-0.01058));
#295=CARTESIAN_POINT('',(-0.0095345,0.0345915925,-0.01058));
#296=CARTESIAN_POINT('',(-0.0095345,0.0345915925,-0.01405));
#297=CARTESIAN_POINT('',(-0.0095345,0.077983185,-0.01405));
#298=CARTESIAN_POINT('',(-0.0095345,0.0345915925,-0.01058));
#299=CARTESIAN_POINT('',(-0.0095345,0.077983185,-0.01058));
#300=CARTESIAN_POINT('',(-0.0095345,0.077983185,-0.01058));
#301=CARTESIAN_POINT('',(0.000226,0.077983185,-0.01058));
#302=CARTESIAN_POINT('',(0.000226,0.077983185,-0.01405));
#303=CARTESIAN_POINT('',(0.0099865,0.077983185,-0.01405));
#304=CARTESIAN_POINT('',(0.000226,0.077983185,-0.01058));
#305=CARTESIAN_POINT('',(0.0099865,0.077983185,-0.01058));
#306=CARTESIAN_POINT('',(0.0099865,0.077983185,-0.01058));
#307=CARTESIAN_POINT('',(0.0099865,0.0345915925,-0.01058));
#308=CARTESIAN_POINT('',(0.0099865,0.0345915925,-0.01405));
#309=CARTESIAN_POINT('',(0.0099865,0.0345915925,-0.01058));
#310=CARTESIAN_POINT('',(0.000226,0.0345915925,-0.01058));
#311=CARTESIAN_POINT('',(0.000226,0.0345915925,-0.01405));
#312=CARTESIAN_POINT('',(0.0036865,0.069933185,-0.01405));
#313=CARTESIAN_POINT('',(0.0036865,0.073183185,-0.01405));
#314=CARTESIAN_POINT('',(0.,-0.0037,-0.01405));
#315=CARTESIAN_POINT('',(0.,-0.00045,-0.01405));
#316=CARTESIAN_POINT('',(0.,-0.0037,-0.01205));
#317=CARTESIAN_POINT('',(0.,-0.0037,-0.01205));
#318=CARTESIAN_POINT('',(0.,-0.00045,-0.01205));
#319=CARTESIAN_POINT('',(0.000225999999999997,0.0345915925,-0.01205));
#320=CARTESIAN_POINT('',(0.0036865,0.069933185,-0.01205));
#321=CARTESIAN_POINT('',(0.0036865,0.069933185,-0.01205));
#322=CARTESIAN_POINT('',(0.0036865,0.073183185,-0.01205));
#323=CARTESIAN_POINT('',(0.000225999999999997,0.0345915925,-0.01205));
#324=MECHANICAL_DESIGN_GEOMETRIC_PRESENTATION_REPRESENTATION('',(#189),#325);
#325=(
GEOMETRIC_REPRESENTATION_CONTEXT(3)
GLOBAL_UNCERTAINTY_ASSIGNED_CONTEXT((#326))
GLOBAL_UNIT_ASSIGNED_CONTEXT((#329,#328,#327))
REPRESENTATION_CONTEXT('couvercle','TOP_LEVEL_ASSEMBLY_PART')
);
#326=UNCERTAINTY_MEASURE_WITH_UNIT(LENGTH_MEASURE(1.E-08),#329,'DISTANCE_ACCURACY_VALUE','Maximum Tolerance applied to model');
#327=(
NAMED_UNIT(*)
SI_UNIT($,.STERADIAN.)
SOLID_ANGLE_UNIT()
);
#328=(
NAMED_UNIT(*)
PLANE_ANGLE_UNIT()
SI_UNIT($,.RADIAN.)
);
#329=(
LENGTH_UNIT()
NAMED_UNIT(*)
SI_UNIT($,.METRE.)
);
#330=PRODUCT_DEFINITION_SHAPE('','',#331);
#331=PRODUCT_DEFINITION('','',#333,#332);
#332=PRODUCT_DEFINITION_CONTEXT('',#339,'design');
#333=PRODUCT_DEFINITION_FORMATION_WITH_SPECIFIED_SOURCE('','',#335,.NOT_KNOWN.);
#334=PRODUCT_RELATED_PRODUCT_CATEGORY('','',(#335));
#335=PRODUCT('couvercle','couvercle','couvercle',(#337));
#336=PRODUCT_CATEGORY('','');
#337=PRODUCT_CONTEXT('',#339,'mechanical');
#338=APPLICATION_PROTOCOL_DEFINITION('international standard','ap242_managed_model_based_3d_engineering',2020,#339);
#339=APPLICATION_CONTEXT('managed model based 3d engineering');
ENDSEC;
END-ISO-10303-21;
