<?xml version="1.0" standalone="no"?>
 <!DOCTYPE svg PUBLIC "-//W3C//DTD SVG 1.1//EN" 
 "http://www.w3.org/Graphics/SVG/1.1/DTD/svg11.dtd"> 
<svg
  xmlns:svg="http://www.w3.org/2000/svg"
  xmlns="http://www.w3.org/2000/svg"
  xmlns:xlink="http://www.w3.org/1999/xlink"
  version="1.1"
  width="297.0022mm" height="210.0072mm" viewBox="0.0000 0.0000 297.0022 210.0072">
<title>SVG Image created as mailboxguard_shield-F_Cu.svg date 2024/03/12 21:33:27 </title>
  <desc>Image generated by PCBNEW </desc>
<g style="fill:#000000; fill-opacity:1.0000;stroke:#000000; stroke-opacity:1.0000;
stroke-linecap:round; stroke-linejoin:round;"
 transform="translate(0 0) scale(1 1)">
<path style="fill:#000000; fill-opacity:1.0000; stroke:none;fill-rule:evenodd;"
d="M 203.8397,73.9750
203.7440,73.9940
203.6629,74.0482
203.6087,74.1293
203.5897,74.2250
203.5897,74.8500
203.6087,74.9457
203.6629,75.0268
203.7440,75.0810
203.8397,75.1000
205.0897,75.1000
205.1854,75.0810
205.2665,75.0268
205.3207,74.9457
205.3397,74.8500
205.3397,74.2250
205.3207,74.1293
205.2665,74.0482
205.1854,73.9940
205.0897,73.9750
Z" /> 
<path style="fill:#000000; fill-opacity:1.0000; stroke:none;fill-rule:evenodd;"
d="M 203.8397,76.9000
203.7440,76.9190
203.6629,76.9732
203.6087,77.0543
203.5897,77.1500
203.5897,77.7750
203.6087,77.8707
203.6629,77.9518
203.7440,78.0060
203.8397,78.0250
205.0897,78.0250
205.1854,78.0060
205.2665,77.9518
205.3207,77.8707
205.3397,77.7750
205.3397,77.1500
205.3207,77.0543
205.2665,76.9732
205.1854,76.9190
205.0897,76.9000
Z" /> 
<path style="fill:#000000; fill-opacity:1.0000; stroke:none;fill-rule:evenodd;"
d="M 209.1522,70.2375
209.2096,70.2261
209.2583,70.1936
209.2908,70.1449
209.3022,70.0875
209.3022,68.9125
209.2908,68.8551
209.2583,68.8064
209.2096,68.7739
209.1522,68.7625
208.8522,68.7625
208.7948,68.7739
208.7461,68.8064
208.7136,68.8551
208.7022,68.9125
208.7022,70.0875
208.7136,70.1449
208.7461,70.1936
208.7948,70.2261
208.8522,70.2375
Z" /> 
<path style="fill:#000000; fill-opacity:1.0000; stroke:none;fill-rule:evenodd;"
d="M 207.2522,70.2375
207.3096,70.2261
207.3583,70.1936
207.3908,70.1449
207.4022,70.0875
207.4022,68.9125
207.3908,68.8551
207.3583,68.8064
207.3096,68.7739
207.2522,68.7625
206.9522,68.7625
206.8948,68.7739
206.8461,68.8064
206.8136,68.8551
206.8022,68.9125
206.8022,70.0875
206.8136,70.1449
206.8461,70.1936
206.8948,70.2261
206.9522,70.2375
Z" /> 
<path style="fill:#000000; fill-opacity:1.0000; stroke:none;fill-rule:evenodd;"
d="M 208.2022,68.3625
208.2596,68.3511
208.3083,68.3186
208.3408,68.2699
208.3522,68.2125
208.3522,67.0375
208.3408,66.9801
208.3083,66.9314
208.2596,66.8989
208.2022,66.8875
207.9022,66.8875
207.8448,66.8989
207.7961,66.9314
207.7636,66.9801
207.7522,67.0375
207.7522,68.2125
207.7636,68.2699
207.7961,68.3186
207.8448,68.3511
207.9022,68.3625
Z" /> 
<path style="fill:#000000; fill-opacity:1.0000; stroke:none;fill-rule:evenodd;"
d="M 213.9022,46.8500
213.8065,46.8690
213.7254,46.9232
213.6712,47.0043
213.6522,47.1000
213.6522,47.9000
213.6712,47.9957
213.7254,48.0768
213.8065,48.1310
213.9022,48.1500
215.1022,48.1500
215.1979,48.1310
215.2790,48.0768
215.3332,47.9957
215.3522,47.9000
215.3522,47.1000
215.3332,47.0043
215.2790,46.9232
215.1979,46.8690
215.1022,46.8500
Z" /> 
<path style="fill:#000000; fill-opacity:1.0000; stroke:none;fill-rule:evenodd;"
d="M 213.9022,50.3500
213.8065,50.3690
213.7254,50.4232
213.6712,50.5043
213.6522,50.6000
213.6522,51.4000
213.6712,51.4957
213.7254,51.5768
213.8065,51.6310
213.9022,51.6500
215.1022,51.6500
215.1979,51.6310
215.2790,51.5768
215.3332,51.4957
215.3522,51.4000
215.3522,50.6000
215.3332,50.5043
215.2790,50.4232
215.1979,50.3690
215.1022,50.3500
Z" /> 
<path style="fill:#000000; fill-opacity:1.0000; stroke:none;fill-rule:evenodd;"
d="M 214.0272,75.3750
214.0082,75.2793
213.9540,75.1982
213.8729,75.1440
213.7772,75.1250
213.1522,75.1250
213.0565,75.1440
212.9754,75.1982
212.9212,75.2793
212.9022,75.3750
212.9022,76.6250
212.9212,76.7207
212.9754,76.8018
213.0565,76.8560
213.1522,76.8750
213.7772,76.8750
213.8729,76.8560
213.9540,76.8018
214.0082,76.7207
214.0272,76.6250
Z" /> 
<path style="fill:#000000; fill-opacity:1.0000; stroke:none;fill-rule:evenodd;"
d="M 211.1022,75.3750
211.0832,75.2793
211.0290,75.1982
210.9479,75.1440
210.8522,75.1250
210.2272,75.1250
210.1315,75.1440
210.0504,75.1982
209.9962,75.2793
209.9772,75.3750
209.9772,76.6250
209.9962,76.7207
210.0504,76.8018
210.1315,76.8560
210.2272,76.8750
210.8522,76.8750
210.9479,76.8560
211.0290,76.8018
211.0832,76.7207
211.1022,76.6250
Z" /> 
<path style="fill:#000000; fill-opacity:1.0000; stroke:none;fill-rule:evenodd;"
d="M 207.6272,51.5250
207.7229,51.5060
207.8040,51.4518
207.8582,51.3707
207.8772,51.2750
207.8772,50.6500
207.8582,50.5543
207.8040,50.4732
207.7229,50.4190
207.6272,50.4000
206.3772,50.4000
206.2815,50.4190
206.2004,50.4732
206.1462,50.5543
206.1272,50.6500
206.1272,51.2750
206.1462,51.3707
206.2004,51.4518
206.2815,51.5060
206.3772,51.5250
Z" /> 
<path style="fill:#000000; fill-opacity:1.0000; stroke:none;fill-rule:evenodd;"
d="M 207.6272,48.6000
207.7229,48.5810
207.8040,48.5268
207.8582,48.4457
207.8772,48.3500
207.8772,47.7250
207.8582,47.6293
207.8040,47.5482
207.7229,47.4940
207.6272,47.4750
206.3772,47.4750
206.2815,47.4940
206.2004,47.5482
206.1462,47.6293
206.1272,47.7250
206.1272,48.3500
206.1462,48.4457
206.2004,48.5268
206.2815,48.5810
206.3772,48.6000
Z" /> 
<path style="fill:#000000; fill-opacity:1.0000; stroke:none;fill-rule:evenodd;"
d="M 200.1022,38.6000
200.1022,40.4000
201.9022,40.4000
201.9022,38.6000
Z" /> 
</g>
<g style="fill:#000000; fill-opacity:1.0000; stroke:none;">
<circle cx="203.5422" cy="39.5000" r="0.9000" /> 
<path style="fill:#000000; fill-opacity:1.0000; stroke:none;fill-rule:evenodd;"
d="M 218.5022,37.5000
218.5022,35.5000
216.5022,35.5000
216.5022,37.5000
Z" /> 
</g>
<g style="fill:#000000; fill-opacity:1.0000; stroke:none;">
<circle cx="209.9022" cy="36.5000" r="1.0000" /> 
</g>
<g style="fill:none; 
stroke:#000000; stroke-width:2.0000; stroke-opacity:1; 
stroke-linecap:round; stroke-linejoin:round;">
<path d="M219.6122 80.0000
L220.1122 80.0000
" />
<path d="M219.6122 77.4600
L220.1122 77.4600
" />
<path d="M219.6122 74.9200
L220.1122 74.9200
" />
<path d="M219.6122 72.3800
L220.1122 72.3800
" />
<path d="M219.6122 69.8400
L220.1122 69.8400
" />
<path d="M219.6122 67.3000
L220.1122 67.3000
" />
<path d="M219.6122 64.7600
L220.1122 64.7600
" />
<path d="M219.6122 62.2200
L220.1122 62.2200
" />
<path d="M219.6122 59.6800
L220.1122 59.6800
" />
<path d="M219.6122 57.1400
L220.1122 57.1400
" />
<path d="M219.6122 54.6000
L220.1122 54.6000
" />
<path d="M219.6122 52.0600
L220.1122 52.0600
" />
<path d="M219.6122 49.5200
L220.1122 49.5200
" />
<path d="M196.7522 80.0000
L197.2522 80.0000
" />
<path d="M196.7522 77.4600
L197.2522 77.4600
" />
<path d="M196.7522 74.9200
L197.2522 74.9200
" />
<path d="M196.7522 72.3800
L197.2522 72.3800
" />
<path d="M196.7522 69.8400
L197.2522 69.8400
" />
<path d="M196.7522 67.3000
L197.2522 67.3000
" />
<path d="M196.7522 64.7600
L197.2522 64.7600
" />
<path d="M196.7522 62.2200
L197.2522 62.2200
" />
<path d="M196.7522 59.6800
L197.2522 59.6800
" />
<path d="M196.7522 57.1400
L197.2522 57.1400
" />
<path d="M196.7522 54.6000
L197.2522 54.6000
" />
<path d="M196.7522 52.0600
L197.2522 52.0600
" />
<path d="M196.7522 49.5200
L197.2522 49.5200
" />
</g>
<g style="fill:none; 
stroke:#000000; stroke-width:1.5240; stroke-opacity:1; 
stroke-linecap:round; stroke-linejoin:round;">
<path d="M204.7055 31.0524
L204.7055 32.0284
" />
<path d="M202.1655 31.0524
L202.1655 32.0284
" />
<path d="M199.6255 31.0524
L199.6255 32.0284
" />
</g>
<g style="fill:none; 
stroke:#000000; stroke-width:1.0000; stroke-opacity:1; 
stroke-linecap:round; stroke-linejoin:round;">
<path d="M214.5022 47.5000
L215.0022 47.0000
" />
<path d="M215.0022 47.0000
L215.0022 44.5225
" />
<path d="M217.5022 36.5000
L217.5022 42.0225
" />
<path d="M215.0022 44.5225
L217.5022 42.0225
" />
<path d="M213.0022 30.5000
L216.4522 33.9500
" />
<path d="M207.5022 30.5000
L213.0022 30.5000
" />
<path d="M217.5022 34.9000
L217.5022 36.5000
" />
<path d="M206.4618 31.5404
L207.5022 30.5000
" />
<path d="M216.5522 33.9500
L217.5022 34.9000
" />
<path d="M216.4522 33.9500
L216.5522 33.9500
" />
<path d="M204.7055 31.5404
L206.4618 31.5404
" />
<path d="M208.0022 40.5000
L208.0022 47.0375
" />
<path d="M209.9022 36.5000
L209.9022 38.6000
" />
<path d="M208.0022 47.0375
L207.0022 48.0375
" />
<path d="M209.9022 38.6000
L208.0022 40.5000
" />
<path d="M203.5022 45.5000
L203.5022 73.5750
" />
<path d="M203.5022 73.5750
L204.4647 74.5375
" />
<path d="M201.0022 39.5000
L201.0022 43.0000
" />
<path d="M201.0022 43.0000
L203.5022 45.5000
" />
<path d="M213.5022 35.5000
L213.5022 40.0000
" />
<path d="M213.0022 80.0000
L219.8622 80.0000
" />
<path d="M211.0022 42.5000
L211.0022 48.0000
" />
<path d="M212.0022 49.0000
L217.0022 49.0000
" />
<path d="M217.0022 49.0000
L217.0022 53.0000
" />
<path d="M211.5022 33.5000
L213.5022 35.5000
" />
<path d="M213.5022 40.0000
L211.0022 42.5000
" />
<path d="M211.0022 48.0000
L212.0022 49.0000
" />
<path d="M217.0022 53.0000
L212.0022 58.0000
" />
<path d="M212.0022 79.0000
L213.0022 80.0000
" />
<path d="M209.5422 33.5000
L211.5022 33.5000
" />
<path d="M212.0022 58.0000
L212.0022 79.0000
" />
<path d="M203.5422 39.5000
L209.5422 33.5000
" />
<path d="M207.0022 61.5000
L207.0022 50.9625
" />
</g>
<g style="fill:none; 
stroke:#000000; stroke-width:0.5000; stroke-opacity:1; 
stroke-linecap:round; stroke-linejoin:round;">
<path d="M208.0522 67.6250
L208.0522 65.5000
" />
</g>
<g style="fill:none; 
stroke:#000000; stroke-width:1.0000; stroke-opacity:1; 
stroke-linecap:round; stroke-linejoin:round;">
<path d="M208.0522 65.5000
L208.0522 62.5500
" />
<path d="M207.0397 51.0000
L207.0022 50.9625
" />
<path d="M208.0522 62.5500
L207.0022 61.5000
" />
<path d="M214.5022 51.0000
L207.0397 51.0000
" />
</g>
<g style="fill:none; 
stroke:#000000; stroke-width:0.5000; stroke-opacity:1; 
stroke-linecap:round; stroke-linejoin:round;">
<path d="M209.0022 74.4625
L210.5397 76.0000
" />
<path d="M209.0022 69.5000
L209.0022 74.4625
" />
</g>
<g style="fill:none; 
stroke:#000000; stroke-width:1.0000; stroke-opacity:1; 
stroke-linecap:round; stroke-linejoin:round;">
<path d="M214.9247 77.4600
L213.4647 76.0000
" />
<path d="M219.8622 77.4600
L214.9247 77.4600
" />
<path d="M198.0022 37.4469
L198.0022 44.0000
" />
<path d="M201.0022 72.6700
L198.7522 74.9200
" />
<path d="M198.0022 44.0000
L201.0022 47.0000
" />
<path d="M198.7522 74.9200
L197.0022 74.9200
" />
<path d="M202.1655 33.2836
L198.0022 37.4469
" />
<path d="M202.1655 31.5404
L202.1655 33.2836
" />
<path d="M201.0022 47.0000
L201.0022 72.6700
" />
<path style="fill:#000000; fill-opacity:1.0000; stroke:none;fill-rule:evenodd;"
d="M 213.6486,29.5202
213.6028,29.5730
213.5929,29.6421
213.6219,29.7057
213.6369,29.7204
213.6400,29.7229
213.7071,29.7899
213.7793,29.8622
213.7793,29.8622
216.9308,33.0137
216.9710,33.0405
217.0261,33.0634
217.0261,33.0634
217.1900,33.1729
217.1900,33.1729
217.2597,33.2425
217.3293,33.3122
217.3293,33.3122
218.1400,34.1229
218.1400,34.1229
218.2097,34.1925
218.2793,34.2622
218.3888,34.4261
218.3888,34.4261
218.4642,34.6082
218.4643,34.6082
218.5027,34.8015
218.5027,34.8830
218.5224,34.9501
218.5752,34.9958
218.6023,35.0033
218.6021,35.0041
218.6097,35.0059
218.7445,35.0562
218.7445,35.0562
218.8597,35.1425
218.8597,35.1425
218.9460,35.2577
218.9460,35.2577
218.9963,35.3925
219.0027,35.4521
219.0027,35.4521
219.0027,35.4521
219.0027,37.5479
219.0027,37.5479
218.9963,37.6075
218.9460,37.7423
218.9460,37.7423
218.8597,37.8575
218.8597,37.8575
218.7445,37.9438
218.7445,37.9438
218.6097,37.9941
218.6021,37.9959
218.6027,37.9982
218.5489,38.0204
218.5091,38.0778
218.5027,38.1170
218.5027,42.1210
218.5027,42.1210
218.5027,42.1210
218.4643,42.3143
218.4642,42.3143
218.3888,42.4964
218.3888,42.4964
218.2793,42.6603
218.2793,42.6603
218.1357,42.8040
218.1356,42.8040
216.0390,44.9006
216.0055,44.9619
216.0027,44.9883
216.0027,47.0985
216.0027,47.0985
216.0027,47.0985
215.9643,47.2918
215.9642,47.2918
215.8888,47.4739
215.8888,47.4739
215.8736,47.4967
215.8527,47.5634
215.8527,47.5656
215.8527,47.8755
215.8724,47.9425
215.9252,47.9883
215.9767,47.9995
217.1007,47.9995
217.2940,48.0379
217.2940,48.0379
217.4761,48.1134
217.4761,48.1134
217.6400,48.2229
217.6400,48.2229
217.7793,48.3622
217.7793,48.3622
217.8888,48.5261
217.8888,48.5261
217.9642,48.7082
217.9643,48.7082
218.0005,48.8904
218.0329,48.9523
218.0936,48.9869
218.1634,48.9831
218.2200,48.9423
218.2326,48.9225
218.2490,48.8904
218.3289,48.7336
218.4677,48.5425
218.6347,48.3755
218.8258,48.2367
218.8528,48.2229
219.0362,48.1294
219.2608,48.0564
219.4941,48.0195
219.4941,48.0195
220.2303,48.0195
220.2303,48.0195
220.4636,48.0564
220.6882,48.1294
220.8986,48.2367
220.9746,48.2918
221.0897,48.3755
221.0897,48.3755
221.0897,48.3755
221.2567,48.5425
221.2567,48.5425
221.2567,48.5425
221.3163,48.6245
221.3955,48.7336
221.5028,48.9440
221.5758,49.1686
221.6127,49.4019
221.6127,49.6381
221.5758,49.8714
221.5028,50.0960
221.4585,50.1828
221.3955,50.3064
221.2567,50.4975
221.0897,50.6645
221.0551,50.6897
221.0124,50.7450
221.0064,50.8146
221.0390,50.8764
221.0551,50.8903
221.0728,50.9032
221.0897,50.9155
221.2567,51.0825
221.2567,51.0825
221.2567,51.0825
221.3163,51.1645
221.3955,51.2736
221.5028,51.4840
221.5758,51.7086
221.6127,51.9419
221.6127,52.1781
221.5758,52.4114
221.5028,52.6360
221.4585,52.7228
221.3955,52.8464
221.2567,53.0375
221.0897,53.2045
221.0551,53.2297
221.0124,53.2850
221.0064,53.3546
221.0390,53.4164
221.0551,53.4303
221.0728,53.4432
221.0897,53.4555
221.2567,53.6225
221.2567,53.6225
221.2567,53.6225
221.3163,53.7045
221.3955,53.8136
221.5028,54.0240
221.5758,54.2486
221.6127,54.4819
221.6127,54.7181
221.5758,54.9514
221.5028,55.1760
221.3955,55.3864
221.2567,55.5775
221.0897,55.7445
221.0551,55.7697
221.0124,55.8250
221.0064,55.8946
221.0390,55.9564
221.0551,55.9703
221.0728,55.9832
221.0897,55.9955
221.2567,56.1625
221.2567,56.1625
221.2567,56.1625
221.3163,56.2445
221.3955,56.3536
221.5028,56.5640
221.5758,56.7886
221.6127,57.0219
221.6127,57.2581
221.5758,57.4914
221.5028,57.7160
221.4083,57.9015
221.3955,57.9264
221.2567,58.1175
221.0897,58.2845
221.0551,58.3097
221.0124,58.3650
221.0064,58.4346
221.0390,58.4964
221.0551,58.5103
221.0728,58.5232
221.0897,58.5355
221.2567,58.7025
221.2567,58.7025
221.2567,58.7025
221.3163,58.7845
221.3955,58.8936
221.5028,59.1040
221.5758,59.3286
221.6127,59.5619
221.6127,59.7981
221.5758,60.0314
221.5028,60.2560
221.3955,60.4664
221.2567,60.6575
221.0897,60.8245
221.0551,60.8497
221.0124,60.9050
221.0064,60.9746
221.0390,61.0364
221.0551,61.0503
221.0728,61.0632
221.0897,61.0755
221.2567,61.2425
221.2567,61.2425
221.2567,61.2425
221.3163,61.3245
221.3955,61.4336
221.5028,61.6440
221.5758,61.8686
221.6127,62.1019
221.6127,62.3381
221.5758,62.5714
221.5028,62.7960
221.4355,62.9281
221.3955,63.0064
221.2567,63.1975
221.0897,63.3645
221.0551,63.3897
221.0124,63.4450
221.0064,63.5146
221.0390,63.5764
221.0551,63.5903
221.0728,63.6032
221.0897,63.6155
221.2567,63.7825
221.2567,63.7825
221.2567,63.7825
221.3163,63.8645
221.3955,63.9736
221.5028,64.1840
221.5758,64.4086
221.6127,64.6419
221.6127,64.8781
221.5758,65.1114
221.5028,65.3360
221.3955,65.5464
221.2567,65.7375
221.0897,65.9045
221.0551,65.9297
221.0124,65.9850
221.0064,66.0546
221.0390,66.1164
221.0551,66.1303
221.0653,66.1378
221.0897,66.1555
221.2567,66.3225
221.2567,66.3225
221.2567,66.3225
221.3163,66.4046
221.3955,66.5136
221.5028,66.7240
221.5758,66.9486
221.6127,67.1819
221.6127,67.4181
221.5758,67.6514
221.5028,67.8760
221.3955,68.0864
221.2567,68.2775
221.0897,68.4445
221.0551,68.4697
221.0124,68.5250
221.0064,68.5946
221.0390,68.6564
221.0551,68.6703
221.0728,68.6832
221.0897,68.6955
221.2567,68.8625
221.2567,68.8625
221.2567,68.8625
221.2985,68.9200
221.3955,69.0536
221.5028,69.2640
221.5758,69.4886
221.6127,69.7219
221.6127,69.9581
221.5758,70.1914
221.5028,70.4160
221.4655,70.4891
221.3955,70.6264
221.2567,70.8175
221.0897,70.9845
221.0551,71.0097
221.0124,71.0650
221.0064,71.1346
221.0390,71.1964
221.0551,71.2103
221.0728,71.2232
221.0897,71.2355
221.2567,71.4025
221.2567,71.4025
221.2567,71.4025
221.3163,71.4845
221.3955,71.5936
221.5028,71.8040
221.5758,72.0286
221.6127,72.2619
221.6127,72.4981
221.5758,72.7314
221.5028,72.9560
221.4247,73.1092
221.3955,73.1664
221.2567,73.3575
221.0897,73.5245
221.0551,73.5497
221.0124,73.6050
221.0064,73.6746
221.0390,73.7364
221.0551,73.7503
221.0728,73.7632
221.0897,73.7755
221.2567,73.9425
221.2567,73.9425
221.2567,73.9425
221.3163,74.0245
221.3955,74.1336
221.5028,74.3440
221.5758,74.5686
221.6127,74.8019
221.6127,75.0381
221.5758,75.2714
221.5028,75.4960
221.4495,75.6005
221.3955,75.7064
221.2567,75.8975
221.0897,76.0645
221.0551,76.0897
221.0124,76.1450
221.0064,76.2146
221.0390,76.2764
221.0551,76.2903
221.0555,76.2906
221.0897,76.3155
221.2567,76.4825
221.2567,76.4825
221.2567,76.4825
221.3113,76.5577
221.3955,76.6736
221.5028,76.8840
221.5758,77.1086
221.6127,77.3419
221.6127,77.5781
221.5758,77.8114
221.5028,78.0360
221.4003,78.2371
221.3955,78.2464
221.2567,78.4375
221.0897,78.6045
221.0551,78.6297
221.0124,78.6850
221.0064,78.7546
221.0390,78.8164
221.0551,78.8303
221.0728,78.8432
221.0897,78.8555
221.2567,79.0225
221.2567,79.0225
221.2567,79.0225
221.3120,79.0985
221.3955,79.2136
221.5028,79.4240
221.5758,79.6486
221.6127,79.8819
221.6127,80.1181
221.5758,80.3514
221.5028,80.5760
221.4003,80.7771
221.3955,80.7864
221.2567,80.9775
221.0897,81.1445
220.8986,81.2833
220.7992,81.3340
220.6882,81.3906
220.6882,81.3906
220.6882,81.3906
220.5678,81.4297
220.4636,81.4636
220.2303,81.5005
220.2303,81.5005
219.4941,81.5005
219.2608,81.4636
219.0362,81.3906
218.8258,81.2833
218.6347,81.1445
218.5270,81.0368
218.4657,81.0033
218.4393,81.0005
212.9037,81.0005
212.8706,80.9939
212.7881,80.9775
212.7104,80.9621
212.6570,80.9400
212.5283,80.8866
212.3644,80.7771
212.2251,80.6378
212.2251,80.6378
212.2149,80.6276
212.2149,80.6276
211.2251,79.6378
211.1156,79.4739
211.0401,79.2918
211.0017,79.0985
211.0017,78.9015
211.0017,78.8963
211.0017,78.8963
211.0017,77.7125
205.8397,77.7125
205.8397,77.8250
205.8292,77.9277
205.7741,78.0941
205.7741,78.0941
205.6820,78.2433
205.5580,78.3673
205.4088,78.4594
205.4088,78.4594
205.2424,78.5145
205.2424,78.5145
205.1397,78.5250
204.7147,78.5250
204.7147,78.5250
204.7147,77.7125
204.2147,77.7125
204.2147,78.5250
203.7897,78.5250
203.7897,78.5250
203.6870,78.5145
203.5206,78.4594
203.5206,78.4594
203.3714,78.3673
203.2474,78.2433
203.1553,78.0941
203.1553,78.0941
203.1002,77.9277
203.1002,77.9277
203.0897,77.8250
203.0897,77.8250
203.0897,77.7125
204.2147,77.7125
204.7147,77.7125
205.8397,77.7125
211.0017,77.7125
211.0017,77.4995
210.9820,77.4325
210.9292,77.3867
210.8777,77.3755
210.1772,77.3755
210.1772,77.3755
210.1772,77.3755
210.1209,77.3697
210.0744,77.3650
209.9079,77.3098
209.7585,77.2177
209.7533,77.2125
205.8397,77.2125
204.7147,77.2125
204.7147,76.4000
204.2147,76.4000
204.2147,77.2125
203.0897,77.2125
203.0897,77.1000
203.0897,77.1000
203.1002,76.9973
203.1553,76.8309
203.1553,76.8309
203.2474,76.6817
203.3714,76.5577
203.5206,76.4656
203.5206,76.4656
203.6870,76.4105
203.6870,76.4105
203.7897,76.4000
204.2147,76.4000
204.7147,76.4000
205.1397,76.4000
205.1397,76.4000
205.2424,76.4105
205.4088,76.4656
205.4088,76.4656
205.5580,76.5577
205.6820,76.6817
205.7741,76.8309
205.7741,76.8309
205.8292,76.9973
205.8292,76.9973
205.8397,77.1000
205.8397,77.2125
209.7533,77.2125
209.6345,77.0937
209.5424,76.9443
209.4872,76.7778
209.4767,76.6750
209.4767,76.0497
209.4570,75.9827
209.4404,75.9621
208.4192,74.9409
208.3371,74.8180
208.2805,74.6814
208.2653,74.6048
208.2517,74.5364
208.2517,70.3698
208.2468,70.3352
208.2046,70.1901
208.2046,70.1901
208.2017,70.1532
208.2017,70.1532
208.2017,69.7500
207.9022,69.7500
207.9022,70.1531
207.8993,70.1900
207.8993,70.1900
207.8535,70.3477
207.8535,70.3477
207.7699,70.4891
207.7699,70.4891
207.6538,70.6052
207.6538,70.6052
207.5124,70.6888
207.3547,70.7346
207.3547,70.7346
207.3522,70.7348
207.3522,70.7348
207.3522,69.7500
206.8522,69.7500
206.8522,70.7348
206.8522,70.7348
206.8497,70.7346
206.6920,70.6888
206.5506,70.6052
206.5506,70.6052
206.4345,70.4891
206.4345,70.4891
206.3509,70.3477
206.3509,70.3477
206.3051,70.1900
206.3051,70.1900
206.3022,70.1531
206.3022,70.1531
206.3022,69.7500
206.8522,69.7500
207.3522,69.7500
207.9022,69.7500
208.2017,69.7500
208.2017,68.9870
208.1820,68.9200
208.1292,68.8742
208.0777,68.8630
208.0262,68.8630
207.9592,68.8827
207.9134,68.9355
207.9022,68.9870
207.9022,69.2500
207.3522,69.2500
207.3522,68.5943
207.3349,68.5312
207.3005,68.4729
207.2546,68.3151
207.2517,68.2782
207.2517,68.2652
206.8522,68.2652
206.8522,69.2500
206.3022,69.2500
206.3022,68.8469
206.3022,68.8469
206.3051,68.8100
206.3051,68.8100
206.3509,68.6523
206.3509,68.6523
206.4345,68.5109
206.4345,68.5109
206.5506,68.3948
206.5506,68.3948
206.6920,68.3112
206.6920,68.3112
206.8497,68.2654
206.8497,68.2654
206.8522,68.2652
207.2517,68.2652
207.2517,66.9718
207.2546,66.9349
207.2546,66.9349
207.2968,66.7898
207.3017,66.7552
207.3017,66.2146
207.2820,66.1476
207.2770,66.1406
207.2751,66.1378
207.2751,66.1378
207.1656,65.9739
207.0901,65.7918
207.0517,65.5985
207.0517,63.0158
207.0320,62.9487
207.0154,62.9281
206.3644,62.2771
206.3644,62.2771
206.2251,62.1378
206.1156,61.9739
206.0401,61.7918
206.0017,61.5985
206.0017,51.9944
205.9820,51.9273
205.9428,51.8888
205.9085,51.8677
205.7845,51.7437
205.6924,51.5943
205.6372,51.4278
205.6267,51.3250
205.6267,50.6000
205.6372,50.4972
205.6924,50.3307
205.7845,50.1813
205.9085,50.0573
206.0579,49.9652
206.2244,49.9100
206.2244,49.9100
206.3272,49.8995
207.6772,49.8995
207.6772,49.8995
207.7800,49.9100
207.7800,49.9100
207.9465,49.9652
207.9465,49.9652
207.9623,49.9749
207.9722,49.9810
208.0373,49.9995
211.2888,49.9995
211.3558,49.9798
211.4016,49.9270
211.4115,49.8579
211.3825,49.7943
211.3675,49.7796
211.3644,49.7771
211.3644,49.7771
211.2251,49.6378
211.2251,49.6378
211.2149,49.6276
211.2149,49.6276
210.2251,48.6378
210.1156,48.4739
210.0401,48.2918
210.0017,48.0985
210.0017,47.9015
210.0017,47.8963
210.0017,47.8963
210.0017,42.4015
210.0401,42.2082
210.0401,42.2082
210.0401,42.2082
210.0762,42.1210
210.1156,42.0261
210.1156,42.0261
210.2251,41.8622
210.2251,41.8622
210.3675,41.7198
210.3675,41.7197
212.4654,39.6219
212.4989,39.5606
212.5017,39.5342
212.5017,35.9658
212.4820,35.8987
212.4654,35.8781
211.1241,34.5368
211.0628,34.5033
211.0364,34.5005
210.0080,34.5005
209.9409,34.5202
209.9203,34.5368
209.6672,34.7899
209.6337,34.8513
209.6387,34.9210
209.6805,34.9769
209.7460,35.0013
209.7753,34.9999
209.7779,34.9995
209.7779,34.9995
210.0265,34.9995
210.2718,35.0404
210.5070,35.1212
210.5070,35.1212
210.7257,35.2395
210.9219,35.3923
211.0904,35.5752
211.2264,35.7834
211.3263,36.0111
211.3873,36.2522
211.3873,36.2522
211.4078,36.5000
211.4078,36.5000
211.3873,36.7478
211.3873,36.7478
211.3263,36.9889
211.2264,37.2166
211.0904,37.4248
211.0904,37.4248
210.9355,37.5930
210.9045,37.6557
210.9027,37.6770
210.9027,38.6985
210.8643,38.8918
210.8643,38.8918
210.8422,38.9452
210.7888,39.0739
210.7888,39.0739
210.6793,39.2378
210.6793,39.2378
210.6793,39.2378
210.5400,39.3771
210.5400,39.3771
210.5329,39.3842
210.5329,39.3842
210.5329,39.3842
209.0390,40.8781
209.0055,40.9394
209.0027,40.9658
209.0027,47.1360
209.0027,47.1360
209.0027,47.1360
208.9643,47.3293
208.9642,47.3293
208.8888,47.5114
208.8888,47.5114
208.7793,47.6753
208.7793,47.6753
208.7793,47.6753
208.6400,47.8146
208.6400,47.8146
208.6329,47.8217
208.6329,47.8217
208.6329,47.8217
208.4140,48.0406
208.3805,48.1019
208.3777,48.1283
208.3777,48.4000
208.3777,48.4000
208.3672,48.5028
208.3672,48.5028
208.3225,48.6378
208.3120,48.6693
208.2199,48.8187
208.0959,48.9427
207.9465,49.0348
207.7800,49.0900
207.6772,49.1005
206.3272,49.1005
206.2244,49.0900
206.0579,49.0348
205.9085,48.9427
205.7845,48.8187
205.6924,48.6693
205.6372,48.5028
205.6267,48.4000
205.6267,47.6750
205.6321,47.6219
205.6372,47.5722
205.6372,47.5722
205.6622,47.4967
205.6924,47.4057
205.7845,47.2563
205.9085,47.1323
206.0579,47.0402
206.2244,46.9850
206.2244,46.9850
206.3272,46.9745
206.3272,46.9745
206.5989,46.9745
206.6660,46.9548
206.6866,46.9382
206.9654,46.6594
206.9989,46.5981
207.0017,46.5717
207.0017,40.4015
207.0401,40.2082
207.0401,40.2082
207.0401,40.2082
207.0564,40.1688
207.1156,40.0261
207.1156,40.0261
207.2251,39.8622
207.2251,39.8622
207.3644,39.7229
207.3644,39.7229
208.8654,38.2219
208.8989,38.1606
208.9017,38.1342
208.9017,37.6770
208.8820,37.6100
208.8689,37.5930
208.7140,37.4248
208.5780,37.2166
208.4781,36.9889
208.4171,36.7478
208.4106,36.6698
208.3966,36.5000
208.3966,36.5000
208.4083,36.3580
208.3942,36.2895
208.3454,36.2396
208.2773,36.2240
208.2116,36.2476
208.1971,36.2600
206.5708,37.8863
204.9788,39.4783
204.9453,39.5397
204.9429,39.5558
204.9283,39.7313
204.9283,39.7313
204.8714,39.9563
204.7781,40.1688
204.6512,40.3631
204.6512,40.3632
204.6512,40.3632
204.4940,40.5339
204.4940,40.5339
204.4940,40.5339
204.3108,40.6765
204.3108,40.6765
204.3108,40.6765
204.1067,40.7869
203.9927,40.8261
203.8872,40.8623
203.8872,40.8623
203.8872,40.8623
203.6582,40.9005
203.6582,40.9005
203.4262,40.9005
203.4262,40.9005
203.1972,40.8623
202.9777,40.7869
202.7736,40.6765
202.5904,40.5339
202.5821,40.5248
202.5222,40.4889
202.4524,40.4909
202.3947,40.5305
202.3747,40.5655
202.3460,40.6423
202.3460,40.6423
202.2597,40.7575
202.2597,40.7575
202.1445,40.8438
202.1445,40.8438
202.0834,40.8666
202.0274,40.9085
202.0030,40.9739
202.0027,40.9828
202.0027,42.5342
202.0224,42.6013
202.0390,42.6219
203.1594,43.7422
204.1400,44.7229
204.1400,44.7229
204.2097,44.7925
204.2793,44.8622
204.3888,45.0261
204.3888,45.0261
204.4642,45.2082
204.4643,45.2082
204.5027,45.4015
204.5027,73.1092
204.5224,73.1763
204.5390,73.1969
204.7803,73.4382
204.8416,73.4717
204.8680,73.4745
205.1397,73.4745
205.1397,73.4745
205.2425,73.4850
205.2425,73.4850
205.4090,73.5402
205.4090,73.5402
205.5584,73.6323
205.6824,73.7563
205.7745,73.9057
205.7745,73.9057
205.8297,74.0722
205.8297,74.0722
205.8297,74.0722
205.8402,74.1750
205.8402,74.9000
205.8402,74.9000
205.8297,75.0028
205.8297,75.0028
205.7745,75.1693
205.7745,75.1693
205.6824,75.3187
205.5584,75.4427
205.4090,75.5348
205.2425,75.5900
205.1397,75.6005
203.7897,75.6005
203.6869,75.5900
203.5204,75.5348
203.3710,75.4427
203.2470,75.3187
203.1549,75.1693
203.0997,75.0028
203.0892,74.9000
203.0892,74.6283
203.0695,74.5612
203.0529,74.5406
202.7251,74.2128
202.6156,74.0489
202.5401,73.8668
202.5017,73.6735
202.5017,73.4765
202.5017,73.4713
202.5017,73.4713
202.5017,45.9658
202.4820,45.8987
202.4654,45.8781
200.3644,43.7771
200.3644,43.7771
200.2251,43.6378
200.1156,43.4739
200.0401,43.2918
200.0017,43.0985
200.0017,40.9828
199.9820,40.9158
199.9292,40.8700
199.9211,40.8666
199.8599,40.8438
199.7447,40.7575
199.6584,40.6423
199.6081,40.5075
199.6017,40.4479
199.6017,38.5521
199.6081,38.4925
199.6180,38.4661
199.6584,38.3577
199.6584,38.3577
199.7447,38.2425
199.7447,38.2425
199.8599,38.1562
199.8599,38.1562
199.9947,38.1059
199.9947,38.1059
200.0543,38.0995
200.0543,38.0995
200.0543,38.0995
200.0543,38.0995
201.9501,38.0995
201.9501,38.0995
202.0097,38.1059
202.1445,38.1562
202.1445,38.1562
202.2597,38.2425
202.2597,38.2425
202.3460,38.3577
202.3460,38.3577
202.3747,38.4345
202.4165,38.4904
202.4820,38.5149
202.5503,38.5000
202.5821,38.4752
202.5904,38.4661
202.5904,38.4661
202.5904,38.4661
202.7736,38.3235
202.7736,38.3235
202.9777,38.2131
202.9777,38.2131
203.1972,38.1377
203.3877,38.1059
203.4262,38.0995
203.4262,38.0995
203.4764,38.0995
203.5435,38.0798
203.5641,38.0632
208.7580,32.8693
208.7580,32.8693
208.7580,32.8693
208.7651,32.8622
208.7651,32.8622
208.9044,32.7229
208.9044,32.7229
208.9044,32.7229
209.0683,32.6134
209.0683,32.6134
209.1515,32.5789
209.1970,32.5600
209.2237,32.5490
209.2504,32.5379
209.2504,32.5379
209.3754,32.5131
209.4437,32.4995
209.4437,32.4995
211.6007,32.4995
211.6007,32.4995
211.6690,32.5131
211.6690,32.5131
211.7940,32.5379
211.7940,32.5379
211.8474,32.5600
211.8474,32.5600
211.8929,32.5789
211.9761,32.6134
211.9761,32.6134
212.1400,32.7229
212.1838,32.7667
212.2793,32.8622
212.2793,32.8622
214.1400,34.7229
214.1400,34.7229
214.2071,34.7899
214.2793,34.8622
214.3888,35.0261
214.3888,35.0261
214.4370,35.1425
214.4575,35.1918
214.4575,35.1918
214.4643,35.2082
214.4643,35.2082
214.5027,35.4015
214.5027,40.0985
214.4887,40.1688
214.4887,40.1688
214.4749,40.2383
214.4643,40.2918
214.4643,40.2918
214.3888,40.4739
214.3888,40.4739
214.2793,40.6378
214.2793,40.6378
214.1357,40.7815
214.1356,40.7815
212.0390,42.8781
212.0055,42.9394
212.0027,42.9658
212.0027,47.5342
212.0224,47.6013
212.0390,47.6219
212.3803,47.9632
212.4416,47.9967
212.4680,47.9995
213.0277,47.9995
213.0947,47.9798
213.1405,47.9270
213.1517,47.8755
213.1517,47.0500
213.1517,47.0500
213.1622,46.9472
213.1622,46.9472
213.1774,46.9015
213.2174,46.7807
213.3095,46.6313
213.4335,46.5073
213.5829,46.4152
213.7494,46.3600
213.7494,46.3600
213.8522,46.3495
213.8522,46.3495
213.8777,46.3495
213.9447,46.3298
213.9905,46.2770
214.0017,46.2255
214.0017,44.4240
214.0401,44.2307
214.0401,44.2307
214.0401,44.2307
214.0402,44.2307
214.1156,44.0486
214.1156,44.0486
214.2251,43.8847
214.2251,43.8847
214.3675,43.7423
214.3675,43.7422
216.4654,41.6444
216.4989,41.5831
216.5017,41.5567
216.5017,38.1170
216.4820,38.0499
216.4292,38.0042
216.4021,37.9967
216.4023,37.9959
216.3947,37.9941
216.3947,37.9941
216.3947,37.9941
216.2599,37.9438
216.1447,37.8575
216.0584,37.7423
216.0081,37.6075
216.0017,37.5479
216.0017,35.4521
216.0081,35.3925
216.0584,35.2577
216.0584,35.2577
216.0584,35.2577
216.1447,35.1425
216.1495,35.1376
216.1830,35.0763
216.1780,35.0066
216.1495,34.9622
216.0736,34.8863
216.0334,34.8595
215.9783,34.8366
215.8144,34.7271
215.6751,34.5878
215.6751,34.5878
215.6680,34.5807
215.6680,34.5807
212.6241,31.5368
212.5628,31.5033
212.5364,31.5005
207.9680,31.5005
207.9009,31.5202
207.8803,31.5368
207.2420,32.1751
207.2420,32.1751
207.0995,32.3176
207.0995,32.3176
206.9357,32.4271
206.9357,32.4271
206.8069,32.4804
206.7871,32.4886
206.7536,32.5025
206.6570,32.5217
206.6086,32.5313
206.5603,32.5409
206.5603,32.5409
206.5603,32.5409
206.3632,32.5409
205.9373,32.5409
205.8702,32.5606
205.8268,32.6086
205.7852,32.6901
205.6684,32.8509
205.5279,32.9914
205.3672,33.1082
205.2803,33.1525
205.1901,33.1984
205.1901,33.1984
205.0956,33.2291
205.0011,33.2599
204.8048,33.2909
204.8048,33.2909
204.6061,33.2909
204.6061,33.2909
204.4098,33.2599
204.2208,33.1984
204.0438,33.1082
203.8830,32.9914
203.7425,32.8509
203.6257,32.6901
203.5459,32.5337
203.4980,32.4829
203.4301,32.4661
203.3640,32.4886
203.3250,32.5337
203.3115,32.5600
203.2452,32.6901
203.1896,32.7667
203.1662,32.8325
203.1660,32.8395
203.1660,33.3822
203.1660,33.3822
203.1660,33.3822
203.1275,33.5755
203.1275,33.5755
203.0521,33.7575
203.0521,33.7576
202.9426,33.9214
202.9426,33.9214
202.7989,34.0651
202.7989,34.0651
199.0390,37.8250
199.0055,37.8863
199.0027,37.9127
199.0027,43.5342
199.0224,43.6013
199.0390,43.6219
201.6400,46.2229
201.6400,46.2229
201.6941,46.2770
201.7793,46.3622
201.8888,46.5261
201.8888,46.5261
201.9642,46.7082
201.9643,46.7082
202.0027,46.9015
202.0027,46.9015
202.0027,72.7685
202.0027,72.7685
202.0027,72.7685
201.9643,72.9618
201.9642,72.9618
201.8888,73.1439
201.8888,73.1439
201.7793,73.3078
201.7793,73.3078
201.7793,73.3078
201.6400,73.4471
201.6400,73.4471
201.6329,73.4542
201.6329,73.4542
201.6329,73.4542
199.3900,75.6971
199.3900,75.6971
199.2261,75.8066
199.2261,75.8066
199.2261,75.8066
199.0440,75.8821
198.8507,75.9205
198.8507,75.9205
198.8507,75.9205
198.6475,75.9205
198.6475,75.9205
198.4251,75.9205
198.3580,75.9402
198.3374,75.9568
198.2297,76.0645
198.1946,76.0900
198.1520,76.1453
198.1460,76.2149
198.1786,76.2767
198.1946,76.2906
198.2294,76.3159
198.2294,76.3159
198.3963,76.4828
198.5351,76.6738
198.6423,76.8842
198.7153,77.1088
198.7313,77.2100
197.4352,77.2100
197.4681,77.2670
197.5022,77.3942
197.5022,77.5258
197.4681,77.6530
197.4352,77.7100
198.7313,77.7100
198.7153,77.8112
198.6423,78.0358
198.5351,78.2462
198.3963,78.4372
198.2294,78.6041
198.1946,78.6294
198.1520,78.6847
198.1460,78.7543
198.1786,78.8161
198.1946,78.8300
198.2297,78.8555
198.2297,78.8555
198.3967,79.0225
198.3967,79.0225
198.3967,79.0225
198.4520,79.0985
198.5355,79.2136
198.6428,79.4240
198.7158,79.6486
198.7527,79.8819
198.7527,80.1181
198.7158,80.3514
198.6428,80.5760
198.5403,80.7771
198.5355,80.7864
198.3967,80.9775
198.2297,81.1445
198.0386,81.2833
197.9392,81.3340
197.8282,81.3906
197.8282,81.3906
197.8282,81.3906
197.7078,81.4297
197.6036,81.4636
197.3703,81.5005
197.3703,81.5005
196.6341,81.5005
196.4008,81.4636
196.1762,81.3906
195.9658,81.2833
195.7747,81.1445
195.6077,80.9775
195.4689,80.7864
195.3616,80.5760
195.2886,80.3514
195.2517,80.1181
195.2517,79.8819
195.2886,79.6486
195.3454,79.4739
195.3616,79.4240
195.3616,79.4240
195.3616,79.4240
195.4182,79.3130
195.4689,79.2136
195.6077,79.0225
195.7747,78.8555
195.8098,78.8300
195.8524,78.7747
195.8584,78.7051
195.8258,78.6433
195.8097,78.6294
195.7750,78.6041
195.6081,78.4372
195.4693,78.2462
195.3621,78.0358
195.2891,77.8112
195.2731,77.7100
196.5692,77.7100
196.5363,77.6530
196.5022,77.5258
196.5022,77.3942
196.5363,77.2670
196.5692,77.2100
195.2731,77.2100
195.2891,77.1088
195.3621,76.8842
195.4693,76.6738
195.6081,76.4828
195.7750,76.3159
195.8098,76.2906
195.8524,76.2353
195.8584,76.1657
195.8258,76.1039
195.8098,76.0900
195.7747,76.0645
195.6077,75.8975
195.4689,75.7064
195.3616,75.4960
195.2886,75.2714
195.2809,75.2222
195.2517,75.0381
195.2517,74.8019
195.2886,74.5686
195.3616,74.3440
195.4182,74.2330
195.4689,74.1336
195.6077,73.9425
195.7747,73.7755
195.8093,73.7503
195.8520,73.6950
195.8580,73.6254
195.8254,73.5636
195.8093,73.5497
195.7747,73.5245
195.6077,73.3575
195.4689,73.1664
195.3616,72.9560
195.2886,72.7314
195.2517,72.4981
195.2517,72.2619
195.2886,72.0286
195.3616,71.8040
195.4689,71.5936
195.6077,71.4025
195.7747,71.2355
195.8093,71.2103
195.8520,71.1550
195.8580,71.0854
195.8254,71.0236
195.8093,71.0097
195.7747,70.9845
195.6077,70.8175
195.4689,70.6264
195.3616,70.4160
195.2886,70.1914
195.2826,70.1532
195.2517,69.9581
195.2517,69.7219
195.2886,69.4886
195.3616,69.2640
195.4689,69.0536
195.6077,68.8625
195.7747,68.6955
195.8093,68.6703
195.8520,68.6150
195.8580,68.5454
195.8254,68.4836
195.8093,68.4697
195.7747,68.4445
195.6077,68.2775
195.4689,68.0864
195.3616,67.8760
195.2886,67.6514
195.2517,67.4181
195.2517,67.1819
195.2886,66.9486
195.3444,66.7771
195.3616,66.7240
195.3616,66.7240
195.3616,66.7240
195.4689,66.5136
195.6077,66.3225
195.7747,66.1555
195.8093,66.1303
195.8520,66.0750
195.8580,66.0054
195.8254,65.9436
195.8093,65.9297
195.7747,65.9045
195.6077,65.7375
195.4689,65.5464
195.3616,65.3360
195.2886,65.1114
195.2517,64.8781
195.2517,64.6419
195.2886,64.4086
195.3616,64.1840
195.4689,63.9736
195.6077,63.7825
195.7747,63.6155
195.8093,63.5903
195.8520,63.5350
195.8580,63.4654
195.8254,63.4036
195.8093,63.3897
195.7747,63.3645
195.6077,63.1975
195.4689,63.0064
195.3616,62.7960
195.2886,62.5714
195.2697,62.4515
195.2517,62.3381
195.2517,62.1019
195.2886,61.8686
195.3616,61.6440
195.4689,61.4336
195.6077,61.2425
195.7747,61.0755
195.8093,61.0503
195.8520,60.9950
195.8580,60.9254
195.8254,60.8636
195.8093,60.8497
195.7747,60.8245
195.6077,60.6575
195.4689,60.4664
195.3616,60.2560
195.2886,60.0314
195.2517,59.7981
195.2517,59.5619
195.2886,59.3286
195.3616,59.1040
195.4689,58.8936
195.6077,58.7025
195.7747,58.5355
195.8093,58.5103
195.8520,58.4550
195.8580,58.3854
195.8254,58.3236
195.8093,58.3097
195.7747,58.2845
195.6077,58.1175
195.4689,57.9264
195.3616,57.7160
195.2886,57.4914
195.2517,57.2581
195.2517,57.0219
195.2886,56.7886
195.3616,56.5640
195.4689,56.3536
195.6077,56.1625
195.7747,55.9955
195.8093,55.9703
195.8520,55.9150
195.8580,55.8454
195.8254,55.7836
195.8093,55.7697
195.7747,55.7445
195.6077,55.5775
195.4689,55.3864
195.3616,55.1760
195.2886,54.9514
195.2517,54.7181
195.2517,54.4819
195.2886,54.2486
195.3616,54.0240
195.4689,53.8136
195.6077,53.6225
195.7747,53.4555
195.8093,53.4303
195.8520,53.3750
195.8580,53.3054
195.8254,53.2436
195.8093,53.2297
195.7747,53.2045
195.6077,53.0375
195.4689,52.8464
195.3616,52.6360
195.2886,52.4114
195.2517,52.1781
195.2517,51.9419
195.2886,51.7086
195.3393,51.5528
195.3616,51.4840
195.3616,51.4840
195.3616,51.4840
195.4182,51.3730
195.4689,51.2736
195.6077,51.0825
195.7747,50.9155
195.8093,50.8903
195.8520,50.8350
195.8580,50.7654
195.8254,50.7036
195.8093,50.6897
195.7747,50.6645
195.6077,50.4975
195.4689,50.3064
195.3616,50.0960
195.2886,49.8714
195.2741,49.7796
195.2517,49.6381
195.2517,49.4019
195.2886,49.1686
195.3489,48.9831
195.3616,48.9440
195.3616,48.9440
195.3616,48.9440
195.4182,48.8330
195.4689,48.7336
195.6077,48.5425
195.7747,48.3755
195.9658,48.2367
195.9928,48.2229
196.1762,48.1294
196.4008,48.0564
196.6341,48.0195
196.6341,48.0195
197.3703,48.0195
197.3703,48.0195
197.6036,48.0564
197.8282,48.1294
198.0386,48.2367
198.1146,48.2918
198.2297,48.3755
198.2297,48.3755
198.2297,48.3755
198.3967,48.5425
198.3967,48.5425
198.3967,48.5425
198.4563,48.6245
198.5355,48.7336
198.6428,48.9440
198.7158,49.1686
198.7527,49.4019
198.7527,49.6381
198.7158,49.8714
198.6428,50.0960
198.5985,50.1828
198.5355,50.3064
198.3967,50.4975
198.2297,50.6645
198.1951,50.6897
198.1524,50.7450
198.1464,50.8146
198.1790,50.8764
198.1951,50.8903
198.2128,50.9032
198.2297,50.9155
198.3967,51.0825
198.3967,51.0825
198.3967,51.0825
198.4563,51.1645
198.5355,51.2736
198.6428,51.4840
198.7158,51.7086
198.7527,51.9419
198.7527,52.1781
198.7158,52.4114
198.6428,52.6360
198.5985,52.7228
198.5355,52.8464
198.3967,53.0375
198.2297,53.2045
198.1951,53.2297
198.1524,53.2850
198.1464,53.3546
198.1790,53.4164
198.1951,53.4303
198.2128,53.4432
198.2297,53.4555
198.3967,53.6225
198.3967,53.6225
198.3967,53.6225
198.4563,53.7045
198.5355,53.8136
198.6428,54.0240
198.7158,54.2486
198.7527,54.4819
198.7527,54.7181
198.7158,54.9514
198.6428,55.1760
198.5355,55.3864
198.3967,55.5775
198.2297,55.7445
198.1951,55.7697
198.1524,55.8250
198.1464,55.8946
198.1790,55.9564
198.1951,55.9703
198.2128,55.9832
198.2297,55.9955
198.3967,56.1625
198.3967,56.1625
198.3967,56.1625
198.4563,56.2445
198.5355,56.3536
198.6428,56.5640
198.7158,56.7886
198.7527,57.0219
198.7527,57.2581
198.7158,57.4914
198.6428,57.7160
198.5483,57.9015
198.5355,57.9264
198.3967,58.1175
198.2297,58.2845
198.1951,58.3097
198.1524,58.3650
198.1464,58.4346
198.1790,58.4964
198.1951,58.5103
198.2128,58.5232
198.2297,58.5355
198.3967,58.7025
198.3967,58.7025
198.3967,58.7025
198.4563,58.7845
198.5355,58.8936
198.6428,59.1040
198.7158,59.3286
198.7527,59.5619
198.7527,59.7981
198.7158,60.0314
198.6428,60.2560
198.5355,60.4664
198.3967,60.6575
198.2297,60.8245
198.1951,60.8497
198.1524,60.9050
198.1464,60.9746
198.1790,61.0364
198.1951,61.0503
198.2128,61.0632
198.2297,61.0755
198.3967,61.2425
198.3967,61.2425
198.3967,61.2425
198.4563,61.3245
198.5355,61.4336
198.6428,61.6440
198.7158,61.8686
198.7527,62.1019
198.7527,62.3381
198.7158,62.5714
198.6428,62.7960
198.5755,62.9281
198.5355,63.0064
198.3967,63.1975
198.2297,63.3645
198.1951,63.3897
198.1524,63.4450
198.1464,63.5146
198.1790,63.5764
198.1951,63.5903
198.2128,63.6032
198.2297,63.6155
198.3967,63.7825
198.3967,63.7825
198.3967,63.7825
198.4563,63.8645
198.5355,63.9736
198.6428,64.1840
198.7158,64.4086
198.7527,64.6419
198.7527,64.8781
198.7158,65.1114
198.6428,65.3360
198.5355,65.5464
198.3967,65.7375
198.2297,65.9045
198.1951,65.9297
198.1524,65.9850
198.1464,66.0546
198.1790,66.1164
198.1951,66.1303
198.2053,66.1378
198.2297,66.1555
198.3967,66.3225
198.3967,66.3225
198.3967,66.3225
198.4563,66.4046
198.5355,66.5136
198.6428,66.7240
198.7158,66.9486
198.7527,67.1819
198.7527,67.4181
198.7158,67.6514
198.6428,67.8760
198.5355,68.0864
198.3967,68.2775
198.2297,68.4445
198.1951,68.4697
198.1524,68.5250
198.1464,68.5946
198.1790,68.6564
198.1951,68.6703
198.2128,68.6832
198.2297,68.6955
198.3967,68.8625
198.3967,68.8625
198.3967,68.8625
198.4385,68.9200
198.5355,69.0536
198.6428,69.2640
198.7158,69.4886
198.7527,69.7219
198.7527,69.9581
198.7158,70.1914
198.6428,70.4160
198.6055,70.4891
198.5355,70.6264
198.3967,70.8175
198.2297,70.9845
198.1951,71.0097
198.1524,71.0650
198.1464,71.1346
198.1790,71.1964
198.1951,71.2103
198.2128,71.2232
198.2297,71.2355
198.3967,71.4025
198.3967,71.4025
198.3967,71.4025
198.4563,71.4845
198.5355,71.5936
198.6428,71.8040
198.7158,72.0286
198.7527,72.2619
198.7527,72.4981
198.7158,72.7314
198.6428,72.9560
198.5647,73.1092
198.5355,73.1664
198.3967,73.3575
198.2297,73.5245
198.1951,73.5497
198.1524,73.6050
198.1464,73.6746
198.1790,73.7364
198.1951,73.7503
198.2128,73.7632
198.2297,73.7755
198.2681,73.8138
198.3294,73.8473
198.3991,73.8423
198.4434,73.8138
199.9654,72.2919
199.9989,72.2306
200.0017,72.2042
200.0017,47.4658
199.9820,47.3987
199.9654,47.3781
197.2251,44.6378
197.2251,44.6378
197.2251,44.6378
197.1156,44.4739
197.0401,44.2918
197.0017,44.0985
197.0017,43.9015
197.0017,37.3483
197.0017,37.3483
197.0017,37.3483
197.0401,37.1551
197.0473,37.1378
197.0473,37.1378
197.0622,37.1017
197.1156,36.9730
197.1156,36.9730
197.2251,36.8091
197.2251,36.8091
197.3675,36.6667
197.3675,36.6666
201.1195,32.9147
201.1530,32.8533
201.1480,32.7836
201.1321,32.7541
201.0857,32.6901
201.0059,32.5337
200.9580,32.4829
200.8901,32.4661
200.8240,32.4886
200.7850,32.5337
200.7052,32.6901
200.5884,32.8509
200.4479,32.9914
200.2872,33.1082
200.2003,33.1525
200.1101,33.1984
200.1101,33.1984
200.0156,33.2291
199.9211,33.2599
199.7248,33.2909
199.7248,33.2909
199.5261,33.2909
199.5261,33.2909
199.3298,33.2599
199.1408,33.1984
198.9638,33.1082
198.8030,32.9914
198.6625,32.8509
198.5457,32.6901
198.4555,32.5131
198.3940,32.3241
198.3630,32.1278
198.3630,30.9531
198.3940,30.7568
198.4555,30.5678
198.4555,30.5678
198.5457,30.3907
198.6625,30.2300
198.8030,30.0895
198.9638,29.9726
199.1408,29.8824
199.1408,29.8824
199.3298,29.8210
199.4280,29.8055
199.5261,29.7899
199.7248,29.7899
199.7902,29.8003
199.9211,29.8210
200.1101,29.8824
200.1101,29.8824
200.2872,29.9726
200.4479,30.0895
200.5884,30.2300
200.7052,30.3907
200.7850,30.5472
200.8329,30.5980
200.9008,30.6148
200.9669,30.5923
201.0059,30.5472
201.0857,30.3907
201.2025,30.2300
201.3430,30.0895
201.5038,29.9726
201.6808,29.8824
201.6808,29.8824
201.8698,29.8210
201.9680,29.8055
202.0661,29.7899
202.2648,29.7899
202.3302,29.8003
202.4611,29.8210
202.6501,29.8824
202.6501,29.8824
202.8272,29.9726
202.9879,30.0895
203.1284,30.2300
203.2452,30.3907
203.3250,30.5472
203.3729,30.5980
203.4408,30.6148
203.5069,30.5923
203.5459,30.5472
203.6257,30.3907
203.7425,30.2300
203.8830,30.0895
204.0438,29.9726
204.2208,29.8824
204.2208,29.8824
204.4098,29.8210
204.5080,29.8055
204.6061,29.7899
204.8048,29.7899
204.8702,29.8003
205.0011,29.8210
205.1901,29.8824
205.1901,29.8824
205.3672,29.9726
205.5279,30.0895
205.6684,30.2300
205.7852,30.3907
205.8268,30.4722
205.8747,30.5230
205.9373,30.5399
205.9960,30.5399
206.0630,30.5203
206.0837,30.5036
206.7207,29.8666
206.7207,29.8665
206.8644,29.7229
206.8675,29.7204
206.8686,29.7186
206.8687,29.7186
206.8687,29.7185
206.9068,29.6626
206.9087,29.5928
206.8725,29.5330
206.8097,29.5023
206.7888,29.5005
195.1267,29.5005
195.0597,29.5202
195.0139,29.5730
195.0027,29.6245
195.0027,81.8755
195.0224,81.9425
195.0752,81.9883
195.1267,81.9995
221.8777,81.9995
221.9447,81.9798
221.9905,81.9270
222.0017,81.8755
222.0017,29.6245
221.9820,29.5575
221.9292,29.5117
221.8777,29.5005
213.7156,29.5005
Z" /> 
</g>
<g style="fill:#FFFFFF; fill-opacity:1.0000; stroke:none;">
<circle cx="201.0022" cy="39.5000" r="0.4500" /> 
</g>
<g style="fill:#FFFFFF; fill-opacity:1.0000; stroke:none;">
<circle cx="203.5422" cy="39.5000" r="0.4500" /> 
</g>
<g style="fill:#FFFFFF; fill-opacity:1.0000; stroke:none;">
<circle cx="217.5022" cy="36.5000" r="0.5000" /> 
</g>
<g style="fill:#FFFFFF; fill-opacity:1.0000; stroke:none;">
<circle cx="209.9022" cy="36.5000" r="0.5000" /> 
</g>
<g style="fill:#FFFFFF; fill-opacity:1.0000; stroke:none;">
<circle cx="219.8622" cy="80.0000" r="0.5000" /> 
</g>
<g style="fill:#FFFFFF; fill-opacity:1.0000; stroke:none;">
<circle cx="219.8622" cy="77.4600" r="0.5000" /> 
</g>
<g style="fill:#FFFFFF; fill-opacity:1.0000; stroke:none;">
<circle cx="219.8622" cy="74.9200" r="0.5000" /> 
</g>
<g style="fill:#FFFFFF; fill-opacity:1.0000; stroke:none;">
<circle cx="219.8622" cy="72.3800" r="0.5000" /> 
</g>
<g style="fill:#FFFFFF; fill-opacity:1.0000; stroke:none;">
<circle cx="219.8622" cy="69.8400" r="0.5000" /> 
</g>
<g style="fill:#FFFFFF; fill-opacity:1.0000; stroke:none;">
<circle cx="219.8622" cy="67.3000" r="0.5000" /> 
</g>
<g style="fill:#FFFFFF; fill-opacity:1.0000; stroke:none;">
<circle cx="219.8622" cy="64.7600" r="0.5000" /> 
</g>
<g style="fill:#FFFFFF; fill-opacity:1.0000; stroke:none;">
<circle cx="219.8622" cy="62.2200" r="0.5000" /> 
</g>
<g style="fill:#FFFFFF; fill-opacity:1.0000; stroke:none;">
<circle cx="219.8622" cy="59.6800" r="0.5000" /> 
</g>
<g style="fill:#FFFFFF; fill-opacity:1.0000; stroke:none;">
<circle cx="219.8622" cy="57.1400" r="0.5000" /> 
</g>
<g style="fill:#FFFFFF; fill-opacity:1.0000; stroke:none;">
<circle cx="219.8622" cy="54.6000" r="0.5000" /> 
</g>
<g style="fill:#FFFFFF; fill-opacity:1.0000; stroke:none;">
<circle cx="219.8622" cy="52.0600" r="0.5000" /> 
</g>
<g style="fill:#FFFFFF; fill-opacity:1.0000; stroke:none;">
<circle cx="219.8622" cy="49.5200" r="0.5000" /> 
</g>
<g style="fill:#FFFFFF; fill-opacity:1.0000; stroke:none;">
<circle cx="197.0022" cy="80.0000" r="0.5000" /> 
</g>
<g style="fill:#FFFFFF; fill-opacity:1.0000; stroke:none;">
<circle cx="197.0022" cy="77.4600" r="0.5000" /> 
</g>
<g style="fill:#FFFFFF; fill-opacity:1.0000; stroke:none;">
<circle cx="197.0022" cy="74.9200" r="0.5000" /> 
</g>
<g style="fill:#FFFFFF; fill-opacity:1.0000; stroke:none;">
<circle cx="197.0022" cy="72.3800" r="0.5000" /> 
</g>
<g style="fill:#FFFFFF; fill-opacity:1.0000; stroke:none;">
<circle cx="197.0022" cy="69.8400" r="0.5000" /> 
</g>
<g style="fill:#FFFFFF; fill-opacity:1.0000; stroke:none;">
<circle cx="197.0022" cy="67.3000" r="0.5000" /> 
</g>
<g style="fill:#FFFFFF; fill-opacity:1.0000; stroke:none;">
<circle cx="197.0022" cy="64.7600" r="0.5000" /> 
</g>
<g style="fill:#FFFFFF; fill-opacity:1.0000; stroke:none;">
<circle cx="197.0022" cy="62.2200" r="0.5000" /> 
</g>
<g style="fill:#FFFFFF; fill-opacity:1.0000; stroke:none;">
<circle cx="197.0022" cy="59.6800" r="0.5000" /> 
</g>
<g style="fill:#FFFFFF; fill-opacity:1.0000; stroke:none;">
<circle cx="197.0022" cy="57.1400" r="0.5000" /> 
</g>
<g style="fill:#FFFFFF; fill-opacity:1.0000; stroke:none;">
<circle cx="197.0022" cy="54.6000" r="0.5000" /> 
</g>
<g style="fill:#FFFFFF; fill-opacity:1.0000; stroke:none;">
<circle cx="197.0022" cy="52.0600" r="0.5000" /> 
</g>
<g style="fill:#FFFFFF; fill-opacity:1.0000; stroke:none;">
<circle cx="197.0022" cy="49.5200" r="0.5000" /> 
</g>
<g style="fill:#FFFFFF; fill-opacity:1.0000; stroke:none;">
<circle cx="204.7055" cy="31.5404" r="0.3810" /> 
</g>
<g style="fill:#FFFFFF; fill-opacity:1.0000; stroke:none;">
<circle cx="202.1655" cy="31.5404" r="0.3810" /> 
</g>
<g style="fill:#FFFFFF; fill-opacity:1.0000; stroke:none;">
<circle cx="199.6255" cy="31.5404" r="0.3810" /> 
<path style="fill:none; 
stroke:#000000; stroke-width:0.0500; stroke-opacity:1; 
stroke-linecap:round; stroke-linejoin:round;fill:none"
d="M 222.5022,29.0000
194.5022,29.0000
194.5022,82.5000
222.5022,82.5000
Z" /> 
</g> 
</svg>
