ISO-10303-21;
HEADER;
/* Generated by software containing ST-Developer
 * from STEP Tools, Inc. (www.steptools.com) 
 */
/* OPTION: using custom renumber hook */

FILE_DESCRIPTION(
/* description */ ('STEP AP242',
'CAx-IF Rec.Pracs.---Representation and Presentation of Product Manufa
cturing Information (PMI)---4.0---2014-10-13',
'CAx-IF Rec.Pracs.---3D Tessellated Geometry---0.4---2014-09-14','2;1'),

/* implementation_level */ '2;1');

FILE_NAME(
/* name */ '68ad5c0014d1b47c3fc28e07',
/* time_stamp */ '2025-08-26T07:02:25Z',
/* author */ (''),
/* organization */ (''),
/* preprocessor_version */ 'ST-DEVELOPER v20',
/* originating_system */ 'ONSHAPE BY PTC INC, 1.202',
/* authorisation */ '  ');

FILE_SCHEMA (('AP242_MANAGED_MODEL_BASED_3D_ENGINEERING_MIM_LF { 1 0 10303 442 1 1 4 }'));
ENDSEC;

DATA;
#10=SHAPE_REPRESENTATION_RELATIONSHIP('','',#505,#11);
#11=ADVANCED_BREP_SHAPE_REPRESENTATION('',(#503),#813);
#12=CIRCLE('',#510,0.00275);
#13=CIRCLE('',#511,0.00275);
#14=CIRCLE('',#522,0.00275);
#15=CIRCLE('',#523,0.00275);
#16=CIRCLE('',#529,0.00275);
#17=CIRCLE('',#530,0.00275);
#18=CIRCLE('',#534,0.00105);
#19=CIRCLE('',#535,0.00105);
#20=CIRCLE('',#536,0.00105);
#21=CIRCLE('',#538,0.00105);
#22=CIRCLE('',#539,0.00105);
#23=CIRCLE('',#540,0.00105);
#24=CYLINDRICAL_SURFACE('',#509,0.00275);
#25=CYLINDRICAL_SURFACE('',#521,0.00275);
#26=CYLINDRICAL_SURFACE('',#528,0.00275);
#27=CYLINDRICAL_SURFACE('',#541,0.00105);
#28=CYLINDRICAL_SURFACE('',#542,0.00105);
#29=CYLINDRICAL_SURFACE('',#543,0.00105);
#30=ORIENTED_EDGE('',*,*,#162,.F.);
#31=ORIENTED_EDGE('',*,*,#163,.F.);
#32=ORIENTED_EDGE('',*,*,#164,.T.);
#33=ORIENTED_EDGE('',*,*,#165,.T.);
#34=ORIENTED_EDGE('',*,*,#166,.F.);
#35=ORIENTED_EDGE('',*,*,#167,.F.);
#36=ORIENTED_EDGE('',*,*,#168,.T.);
#37=ORIENTED_EDGE('',*,*,#163,.T.);
#38=ORIENTED_EDGE('',*,*,#169,.T.);
#39=ORIENTED_EDGE('',*,*,#170,.F.);
#40=ORIENTED_EDGE('',*,*,#171,.F.);
#41=ORIENTED_EDGE('',*,*,#167,.T.);
#42=ORIENTED_EDGE('',*,*,#172,.T.);
#43=ORIENTED_EDGE('',*,*,#173,.F.);
#44=ORIENTED_EDGE('',*,*,#174,.F.);
#45=ORIENTED_EDGE('',*,*,#170,.T.);
#46=ORIENTED_EDGE('',*,*,#175,.F.);
#47=ORIENTED_EDGE('',*,*,#176,.F.);
#48=ORIENTED_EDGE('',*,*,#177,.T.);
#49=ORIENTED_EDGE('',*,*,#173,.T.);
#50=ORIENTED_EDGE('',*,*,#178,.F.);
#51=ORIENTED_EDGE('',*,*,#179,.F.);
#52=ORIENTED_EDGE('',*,*,#180,.T.);
#53=ORIENTED_EDGE('',*,*,#176,.T.);
#54=ORIENTED_EDGE('',*,*,#181,.T.);
#55=ORIENTED_EDGE('',*,*,#182,.F.);
#56=ORIENTED_EDGE('',*,*,#183,.F.);
#57=ORIENTED_EDGE('',*,*,#179,.T.);
#58=ORIENTED_EDGE('',*,*,#184,.T.);
#59=ORIENTED_EDGE('',*,*,#185,.F.);
#60=ORIENTED_EDGE('',*,*,#186,.F.);
#61=ORIENTED_EDGE('',*,*,#182,.T.);
#62=ORIENTED_EDGE('',*,*,#187,.F.);
#63=ORIENTED_EDGE('',*,*,#188,.F.);
#64=ORIENTED_EDGE('',*,*,#189,.T.);
#65=ORIENTED_EDGE('',*,*,#185,.T.);
#66=ORIENTED_EDGE('',*,*,#190,.F.);
#67=ORIENTED_EDGE('',*,*,#191,.F.);
#68=ORIENTED_EDGE('',*,*,#192,.T.);
#69=ORIENTED_EDGE('',*,*,#188,.T.);
#70=ORIENTED_EDGE('',*,*,#193,.T.);
#71=ORIENTED_EDGE('',*,*,#194,.F.);
#72=ORIENTED_EDGE('',*,*,#195,.F.);
#73=ORIENTED_EDGE('',*,*,#191,.T.);
#74=ORIENTED_EDGE('',*,*,#196,.F.);
#75=ORIENTED_EDGE('',*,*,#197,.F.);
#76=ORIENTED_EDGE('',*,*,#198,.T.);
#77=ORIENTED_EDGE('',*,*,#194,.T.);
#78=ORIENTED_EDGE('',*,*,#199,.T.);
#79=ORIENTED_EDGE('',*,*,#200,.F.);
#80=ORIENTED_EDGE('',*,*,#201,.F.);
#81=ORIENTED_EDGE('',*,*,#197,.T.);
#82=ORIENTED_EDGE('',*,*,#202,.T.);
#83=ORIENTED_EDGE('',*,*,#203,.F.);
#84=ORIENTED_EDGE('',*,*,#204,.F.);
#85=ORIENTED_EDGE('',*,*,#200,.T.);
#86=ORIENTED_EDGE('',*,*,#205,.T.);
#87=ORIENTED_EDGE('',*,*,#206,.F.);
#88=ORIENTED_EDGE('',*,*,#207,.F.);
#89=ORIENTED_EDGE('',*,*,#203,.T.);
#90=ORIENTED_EDGE('',*,*,#208,.F.);
#91=ORIENTED_EDGE('',*,*,#209,.F.);
#92=ORIENTED_EDGE('',*,*,#210,.T.);
#93=ORIENTED_EDGE('',*,*,#206,.T.);
#94=ORIENTED_EDGE('',*,*,#211,.F.);
#95=ORIENTED_EDGE('',*,*,#212,.F.);
#96=ORIENTED_EDGE('',*,*,#213,.T.);
#97=ORIENTED_EDGE('',*,*,#209,.T.);
#98=ORIENTED_EDGE('',*,*,#214,.T.);
#99=ORIENTED_EDGE('',*,*,#215,.F.);
#100=ORIENTED_EDGE('',*,*,#216,.F.);
#101=ORIENTED_EDGE('',*,*,#212,.T.);
#102=ORIENTED_EDGE('',*,*,#217,.T.);
#103=ORIENTED_EDGE('',*,*,#218,.F.);
#104=ORIENTED_EDGE('',*,*,#219,.F.);
#105=ORIENTED_EDGE('',*,*,#215,.T.);
#106=ORIENTED_EDGE('',*,*,#220,.F.);
#107=ORIENTED_EDGE('',*,*,#165,.F.);
#108=ORIENTED_EDGE('',*,*,#221,.T.);
#109=ORIENTED_EDGE('',*,*,#218,.T.);
#110=ORIENTED_EDGE('',*,*,#222,.F.);
#111=ORIENTED_EDGE('',*,*,#223,.F.);
#112=ORIENTED_EDGE('',*,*,#224,.F.);
#113=ORIENTED_EDGE('',*,*,#164,.F.);
#114=ORIENTED_EDGE('',*,*,#168,.F.);
#115=ORIENTED_EDGE('',*,*,#171,.T.);
#116=ORIENTED_EDGE('',*,*,#174,.T.);
#117=ORIENTED_EDGE('',*,*,#177,.F.);
#118=ORIENTED_EDGE('',*,*,#180,.F.);
#119=ORIENTED_EDGE('',*,*,#183,.T.);
#120=ORIENTED_EDGE('',*,*,#186,.T.);
#121=ORIENTED_EDGE('',*,*,#189,.F.);
#122=ORIENTED_EDGE('',*,*,#192,.F.);
#123=ORIENTED_EDGE('',*,*,#195,.T.);
#124=ORIENTED_EDGE('',*,*,#198,.F.);
#125=ORIENTED_EDGE('',*,*,#201,.T.);
#126=ORIENTED_EDGE('',*,*,#204,.T.);
#127=ORIENTED_EDGE('',*,*,#207,.T.);
#128=ORIENTED_EDGE('',*,*,#210,.F.);
#129=ORIENTED_EDGE('',*,*,#213,.F.);
#130=ORIENTED_EDGE('',*,*,#216,.T.);
#131=ORIENTED_EDGE('',*,*,#219,.T.);
#132=ORIENTED_EDGE('',*,*,#221,.F.);
#133=ORIENTED_EDGE('',*,*,#225,.F.);
#134=ORIENTED_EDGE('',*,*,#226,.F.);
#135=ORIENTED_EDGE('',*,*,#227,.F.);
#136=ORIENTED_EDGE('',*,*,#162,.T.);
#137=ORIENTED_EDGE('',*,*,#220,.T.);
#138=ORIENTED_EDGE('',*,*,#217,.F.);
#139=ORIENTED_EDGE('',*,*,#214,.F.);
#140=ORIENTED_EDGE('',*,*,#211,.T.);
#141=ORIENTED_EDGE('',*,*,#208,.T.);
#142=ORIENTED_EDGE('',*,*,#205,.F.);
#143=ORIENTED_EDGE('',*,*,#202,.F.);
#144=ORIENTED_EDGE('',*,*,#199,.F.);
#145=ORIENTED_EDGE('',*,*,#196,.T.);
#146=ORIENTED_EDGE('',*,*,#193,.F.);
#147=ORIENTED_EDGE('',*,*,#190,.T.);
#148=ORIENTED_EDGE('',*,*,#187,.T.);
#149=ORIENTED_EDGE('',*,*,#184,.F.);
#150=ORIENTED_EDGE('',*,*,#181,.F.);
#151=ORIENTED_EDGE('',*,*,#178,.T.);
#152=ORIENTED_EDGE('',*,*,#175,.T.);
#153=ORIENTED_EDGE('',*,*,#172,.F.);
#154=ORIENTED_EDGE('',*,*,#169,.F.);
#155=ORIENTED_EDGE('',*,*,#166,.T.);
#156=ORIENTED_EDGE('',*,*,#227,.T.);
#157=ORIENTED_EDGE('',*,*,#224,.T.);
#158=ORIENTED_EDGE('',*,*,#226,.T.);
#159=ORIENTED_EDGE('',*,*,#223,.T.);
#160=ORIENTED_EDGE('',*,*,#225,.T.);
#161=ORIENTED_EDGE('',*,*,#222,.T.);
#162=EDGE_CURVE('',#228,#229,#274,.T.);
#163=EDGE_CURVE('',#230,#228,#275,.T.);
#164=EDGE_CURVE('',#230,#231,#276,.T.);
#165=EDGE_CURVE('',#231,#229,#277,.T.);
#166=EDGE_CURVE('',#232,#228,#278,.T.);
#167=EDGE_CURVE('',#233,#232,#279,.T.);
#168=EDGE_CURVE('',#233,#230,#280,.T.);
#169=EDGE_CURVE('',#232,#234,#12,.T.);
#170=EDGE_CURVE('',#235,#234,#281,.T.);
#171=EDGE_CURVE('',#233,#235,#13,.T.);
#172=EDGE_CURVE('',#234,#236,#282,.T.);
#173=EDGE_CURVE('',#237,#236,#283,.T.);
#174=EDGE_CURVE('',#235,#237,#284,.T.);
#175=EDGE_CURVE('',#238,#236,#285,.T.);
#176=EDGE_CURVE('',#239,#238,#286,.T.);
#177=EDGE_CURVE('',#239,#237,#287,.T.);
#178=EDGE_CURVE('',#240,#238,#288,.T.);
#179=EDGE_CURVE('',#241,#240,#289,.T.);
#180=EDGE_CURVE('',#241,#239,#290,.T.);
#181=EDGE_CURVE('',#240,#242,#291,.T.);
#182=EDGE_CURVE('',#243,#242,#292,.T.);
#183=EDGE_CURVE('',#241,#243,#293,.T.);
#184=EDGE_CURVE('',#242,#244,#294,.T.);
#185=EDGE_CURVE('',#245,#244,#295,.T.);
#186=EDGE_CURVE('',#243,#245,#296,.T.);
#187=EDGE_CURVE('',#246,#244,#297,.T.);
#188=EDGE_CURVE('',#247,#246,#298,.T.);
#189=EDGE_CURVE('',#247,#245,#299,.T.);
#190=EDGE_CURVE('',#248,#246,#300,.T.);
#191=EDGE_CURVE('',#249,#248,#301,.T.);
#192=EDGE_CURVE('',#249,#247,#302,.T.);
#193=EDGE_CURVE('',#248,#250,#303,.T.);
#194=EDGE_CURVE('',#251,#250,#304,.T.);
#195=EDGE_CURVE('',#249,#251,#305,.T.);
#196=EDGE_CURVE('',#252,#250,#306,.T.);
#197=EDGE_CURVE('',#253,#252,#307,.T.);
#198=EDGE_CURVE('',#253,#251,#308,.T.);
#199=EDGE_CURVE('',#252,#254,#14,.T.);
#200=EDGE_CURVE('',#255,#254,#309,.T.);
#201=EDGE_CURVE('',#253,#255,#15,.T.);
#202=EDGE_CURVE('',#254,#256,#310,.T.);
#203=EDGE_CURVE('',#257,#256,#311,.T.);
#204=EDGE_CURVE('',#255,#257,#312,.T.);
#205=EDGE_CURVE('',#256,#258,#313,.T.);
#206=EDGE_CURVE('',#259,#258,#314,.T.);
#207=EDGE_CURVE('',#257,#259,#315,.T.);
#208=EDGE_CURVE('',#260,#258,#316,.T.);
#209=EDGE_CURVE('',#261,#260,#317,.T.);
#210=EDGE_CURVE('',#261,#259,#318,.T.);
#211=EDGE_CURVE('',#262,#260,#319,.T.);
#212=EDGE_CURVE('',#263,#262,#320,.T.);
#213=EDGE_CURVE('',#263,#261,#321,.T.);
#214=EDGE_CURVE('',#262,#264,#16,.T.);
#215=EDGE_CURVE('',#265,#264,#322,.T.);
#216=EDGE_CURVE('',#263,#265,#17,.T.);
#217=EDGE_CURVE('',#264,#266,#323,.T.);
#218=EDGE_CURVE('',#267,#266,#324,.T.);
#219=EDGE_CURVE('',#265,#267,#325,.T.);
#220=EDGE_CURVE('',#229,#266,#326,.T.);
#221=EDGE_CURVE('',#231,#267,#327,.T.);
#222=EDGE_CURVE('',#268,#268,#18,.T.);
#223=EDGE_CURVE('',#269,#269,#19,.T.);
#224=EDGE_CURVE('',#270,#270,#20,.T.);
#225=EDGE_CURVE('',#271,#271,#21,.F.);
#226=EDGE_CURVE('',#272,#272,#22,.F.);
#227=EDGE_CURVE('',#273,#273,#23,.F.);
#228=VERTEX_POINT('',#677);
#229=VERTEX_POINT('',#678);
#230=VERTEX_POINT('',#680);
#231=VERTEX_POINT('',#682);
#232=VERTEX_POINT('',#686);
#233=VERTEX_POINT('',#688);
#234=VERTEX_POINT('',#692);
#235=VERTEX_POINT('',#694);
#236=VERTEX_POINT('',#698);
#237=VERTEX_POINT('',#700);
#238=VERTEX_POINT('',#704);
#239=VERTEX_POINT('',#706);
#240=VERTEX_POINT('',#710);
#241=VERTEX_POINT('',#712);
#242=VERTEX_POINT('',#716);
#243=VERTEX_POINT('',#718);
#244=VERTEX_POINT('',#722);
#245=VERTEX_POINT('',#724);
#246=VERTEX_POINT('',#728);
#247=VERTEX_POINT('',#730);
#248=VERTEX_POINT('',#734);
#249=VERTEX_POINT('',#736);
#250=VERTEX_POINT('',#740);
#251=VERTEX_POINT('',#742);
#252=VERTEX_POINT('',#746);
#253=VERTEX_POINT('',#748);
#254=VERTEX_POINT('',#752);
#255=VERTEX_POINT('',#754);
#256=VERTEX_POINT('',#758);
#257=VERTEX_POINT('',#760);
#258=VERTEX_POINT('',#764);
#259=VERTEX_POINT('',#766);
#260=VERTEX_POINT('',#770);
#261=VERTEX_POINT('',#772);
#262=VERTEX_POINT('',#776);
#263=VERTEX_POINT('',#778);
#264=VERTEX_POINT('',#782);
#265=VERTEX_POINT('',#784);
#266=VERTEX_POINT('',#788);
#267=VERTEX_POINT('',#790);
#268=VERTEX_POINT('',#797);
#269=VERTEX_POINT('',#799);
#270=VERTEX_POINT('',#801);
#271=VERTEX_POINT('',#804);
#272=VERTEX_POINT('',#806);
#273=VERTEX_POINT('',#808);
#274=LINE('',#676,#328);
#275=LINE('',#679,#329);
#276=LINE('',#681,#330);
#277=LINE('',#683,#331);
#278=LINE('',#685,#332);
#279=LINE('',#687,#333);
#280=LINE('',#689,#334);
#281=LINE('',#693,#335);
#282=LINE('',#697,#336);
#283=LINE('',#699,#337);
#284=LINE('',#701,#338);
#285=LINE('',#703,#339);
#286=LINE('',#705,#340);
#287=LINE('',#707,#341);
#288=LINE('',#709,#342);
#289=LINE('',#711,#343);
#290=LINE('',#713,#344);
#291=LINE('',#715,#345);
#292=LINE('',#717,#346);
#293=LINE('',#719,#347);
#294=LINE('',#721,#348);
#295=LINE('',#723,#349);
#296=LINE('',#725,#350);
#297=LINE('',#727,#351);
#298=LINE('',#729,#352);
#299=LINE('',#731,#353);
#300=LINE('',#733,#354);
#301=LINE('',#735,#355);
#302=LINE('',#737,#356);
#303=LINE('',#739,#357);
#304=LINE('',#741,#358);
#305=LINE('',#743,#359);
#306=LINE('',#745,#360);
#307=LINE('',#747,#361);
#308=LINE('',#749,#362);
#309=LINE('',#753,#363);
#310=LINE('',#757,#364);
#311=LINE('',#759,#365);
#312=LINE('',#761,#366);
#313=LINE('',#763,#367);
#314=LINE('',#765,#368);
#315=LINE('',#767,#369);
#316=LINE('',#769,#370);
#317=LINE('',#771,#371);
#318=LINE('',#773,#372);
#319=LINE('',#775,#373);
#320=LINE('',#777,#374);
#321=LINE('',#779,#375);
#322=LINE('',#783,#376);
#323=LINE('',#787,#377);
#324=LINE('',#789,#378);
#325=LINE('',#791,#379);
#326=LINE('',#793,#380);
#327=LINE('',#794,#381);
#328=VECTOR('',#548,1.);
#329=VECTOR('',#549,1.);
#330=VECTOR('',#550,1.);
#331=VECTOR('',#551,1.);
#332=VECTOR('',#554,1.);
#333=VECTOR('',#555,1.);
#334=VECTOR('',#556,1.);
#335=VECTOR('',#561,1.);
#336=VECTOR('',#566,1.);
#337=VECTOR('',#567,1.);
#338=VECTOR('',#568,1.);
#339=VECTOR('',#571,1.);
#340=VECTOR('',#572,1.);
#341=VECTOR('',#573,1.);
#342=VECTOR('',#576,1.);
#343=VECTOR('',#577,1.);
#344=VECTOR('',#578,1.);
#345=VECTOR('',#581,1.);
#346=VECTOR('',#582,1.);
#347=VECTOR('',#583,1.);
#348=VECTOR('',#586,1.);
#349=VECTOR('',#587,1.);
#350=VECTOR('',#588,1.);
#351=VECTOR('',#591,1.);
#352=VECTOR('',#592,1.);
#353=VECTOR('',#593,1.);
#354=VECTOR('',#596,1.);
#355=VECTOR('',#597,1.);
#356=VECTOR('',#598,1.);
#357=VECTOR('',#601,1.);
#358=VECTOR('',#602,1.);
#359=VECTOR('',#603,1.);
#360=VECTOR('',#606,1.);
#361=VECTOR('',#607,1.);
#362=VECTOR('',#608,1.);
#363=VECTOR('',#613,1.);
#364=VECTOR('',#618,1.);
#365=VECTOR('',#619,1.);
#366=VECTOR('',#620,1.);
#367=VECTOR('',#623,1.);
#368=VECTOR('',#624,1.);
#369=VECTOR('',#625,1.);
#370=VECTOR('',#628,1.);
#371=VECTOR('',#629,1.);
#372=VECTOR('',#630,1.);
#373=VECTOR('',#633,1.);
#374=VECTOR('',#634,1.);
#375=VECTOR('',#635,1.);
#376=VECTOR('',#640,1.);
#377=VECTOR('',#645,1.);
#378=VECTOR('',#646,1.);
#379=VECTOR('',#647,1.);
#380=VECTOR('',#650,1.);
#381=VECTOR('',#651,1.);
#382=EDGE_LOOP('',(#30,#31,#32,#33));
#383=EDGE_LOOP('',(#34,#35,#36,#37));
#384=EDGE_LOOP('',(#38,#39,#40,#41));
#385=EDGE_LOOP('',(#42,#43,#44,#45));
#386=EDGE_LOOP('',(#46,#47,#48,#49));
#387=EDGE_LOOP('',(#50,#51,#52,#53));
#388=EDGE_LOOP('',(#54,#55,#56,#57));
#389=EDGE_LOOP('',(#58,#59,#60,#61));
#390=EDGE_LOOP('',(#62,#63,#64,#65));
#391=EDGE_LOOP('',(#66,#67,#68,#69));
#392=EDGE_LOOP('',(#70,#71,#72,#73));
#393=EDGE_LOOP('',(#74,#75,#76,#77));
#394=EDGE_LOOP('',(#78,#79,#80,#81));
#395=EDGE_LOOP('',(#82,#83,#84,#85));
#396=EDGE_LOOP('',(#86,#87,#88,#89));
#397=EDGE_LOOP('',(#90,#91,#92,#93));
#398=EDGE_LOOP('',(#94,#95,#96,#97));
#399=EDGE_LOOP('',(#98,#99,#100,#101));
#400=EDGE_LOOP('',(#102,#103,#104,#105));
#401=EDGE_LOOP('',(#106,#107,#108,#109));
#402=EDGE_LOOP('',(#110));
#403=EDGE_LOOP('',(#111));
#404=EDGE_LOOP('',(#112));
#405=EDGE_LOOP('',(#113,#114,#115,#116,#117,#118,#119,#120,#121,#122,#123,
#124,#125,#126,#127,#128,#129,#130,#131,#132));
#406=EDGE_LOOP('',(#133));
#407=EDGE_LOOP('',(#134));
#408=EDGE_LOOP('',(#135));
#409=EDGE_LOOP('',(#136,#137,#138,#139,#140,#141,#142,#143,#144,#145,#146,
#147,#148,#149,#150,#151,#152,#153,#154,#155));
#410=EDGE_LOOP('',(#156));
#411=EDGE_LOOP('',(#157));
#412=EDGE_LOOP('',(#158));
#413=EDGE_LOOP('',(#159));
#414=EDGE_LOOP('',(#160));
#415=EDGE_LOOP('',(#161));
#416=FACE_BOUND('',#382,.T.);
#417=FACE_BOUND('',#383,.T.);
#418=FACE_BOUND('',#384,.T.);
#419=FACE_BOUND('',#385,.T.);
#420=FACE_BOUND('',#386,.T.);
#421=FACE_BOUND('',#387,.T.);
#422=FACE_BOUND('',#388,.T.);
#423=FACE_BOUND('',#389,.T.);
#424=FACE_BOUND('',#390,.T.);
#425=FACE_BOUND('',#391,.T.);
#426=FACE_BOUND('',#392,.T.);
#427=FACE_BOUND('',#393,.T.);
#428=FACE_BOUND('',#394,.T.);
#429=FACE_BOUND('',#395,.T.);
#430=FACE_BOUND('',#396,.T.);
#431=FACE_BOUND('',#397,.T.);
#432=FACE_BOUND('',#398,.T.);
#433=FACE_BOUND('',#399,.T.);
#434=FACE_BOUND('',#400,.T.);
#435=FACE_BOUND('',#401,.T.);
#436=FACE_BOUND('',#402,.T.);
#437=FACE_BOUND('',#403,.T.);
#438=FACE_BOUND('',#404,.T.);
#439=FACE_BOUND('',#405,.T.);
#440=FACE_BOUND('',#406,.T.);
#441=FACE_BOUND('',#407,.T.);
#442=FACE_BOUND('',#408,.T.);
#443=FACE_BOUND('',#409,.T.);
#444=FACE_BOUND('',#410,.T.);
#445=FACE_BOUND('',#411,.T.);
#446=FACE_BOUND('',#412,.T.);
#447=FACE_BOUND('',#413,.T.);
#448=FACE_BOUND('',#414,.T.);
#449=FACE_BOUND('',#415,.T.);
#450=PLANE('',#507);
#451=PLANE('',#508);
#452=PLANE('',#512);
#453=PLANE('',#513);
#454=PLANE('',#514);
#455=PLANE('',#515);
#456=PLANE('',#516);
#457=PLANE('',#517);
#458=PLANE('',#518);
#459=PLANE('',#519);
#460=PLANE('',#520);
#461=PLANE('',#524);
#462=PLANE('',#525);
#463=PLANE('',#526);
#464=PLANE('',#527);
#465=PLANE('',#531);
#466=PLANE('',#532);
#467=PLANE('',#533);
#468=PLANE('',#537);
#469=ADVANCED_FACE('',(#416),#450,.T.);
#470=ADVANCED_FACE('',(#417),#451,.T.);
#471=ADVANCED_FACE('',(#418),#24,.T.);
#472=ADVANCED_FACE('',(#419),#452,.F.);
#473=ADVANCED_FACE('',(#420),#453,.T.);
#474=ADVANCED_FACE('',(#421),#454,.T.);
#475=ADVANCED_FACE('',(#422),#455,.F.);
#476=ADVANCED_FACE('',(#423),#456,.F.);
#477=ADVANCED_FACE('',(#424),#457,.T.);
#478=ADVANCED_FACE('',(#425),#458,.T.);
#479=ADVANCED_FACE('',(#426),#459,.F.);
#480=ADVANCED_FACE('',(#427),#460,.T.);
#481=ADVANCED_FACE('',(#428),#25,.T.);
#482=ADVANCED_FACE('',(#429),#461,.F.);
#483=ADVANCED_FACE('',(#430),#462,.F.);
#484=ADVANCED_FACE('',(#431),#463,.T.);
#485=ADVANCED_FACE('',(#432),#464,.T.);
#486=ADVANCED_FACE('',(#433),#26,.T.);
#487=ADVANCED_FACE('',(#434),#465,.F.);
#488=ADVANCED_FACE('',(#435),#466,.T.);
#489=ADVANCED_FACE('',(#436,#437,#438,#439),#467,.T.);
#490=ADVANCED_FACE('',(#440,#441,#442,#443),#468,.F.);
#491=ADVANCED_FACE('',(#444,#445),#27,.F.);
#492=ADVANCED_FACE('',(#446,#447),#28,.F.);
#493=ADVANCED_FACE('',(#448,#449),#29,.F.);
#494=CLOSED_SHELL('',(#469,#470,#471,#472,#473,#474,#475,#476,#477,#478,
#479,#480,#481,#482,#483,#484,#485,#486,#487,#488,#489,#490,#491,#492,#493));
#495=STYLED_ITEM('',(#496),#503);
#496=PRESENTATION_STYLE_ASSIGNMENT((#497));
#497=SURFACE_STYLE_USAGE(.BOTH.,#498);
#498=SURFACE_SIDE_STYLE('',(#499));
#499=SURFACE_STYLE_FILL_AREA(#500);
#500=FILL_AREA_STYLE('',(#501));
#501=FILL_AREA_STYLE_COLOUR('',#502);
#502=COLOUR_RGB('',0.647058823529412,0.647058823529412,0.647058823529412);
#503=MANIFOLD_SOLID_BREP('couvercle',#494);
#504=SHAPE_DEFINITION_REPRESENTATION(#818,#505);
#505=SHAPE_REPRESENTATION('couvercle',(#506),#813);
#506=AXIS2_PLACEMENT_3D('',#674,#544,#545);
#507=AXIS2_PLACEMENT_3D('',#675,#546,#547);
#508=AXIS2_PLACEMENT_3D('',#684,#552,#553);
#509=AXIS2_PLACEMENT_3D('',#690,#557,#558);
#510=AXIS2_PLACEMENT_3D('',#691,#559,#560);
#511=AXIS2_PLACEMENT_3D('',#695,#562,#563);
#512=AXIS2_PLACEMENT_3D('',#696,#564,#565);
#513=AXIS2_PLACEMENT_3D('',#702,#569,#570);
#514=AXIS2_PLACEMENT_3D('',#708,#574,#575);
#515=AXIS2_PLACEMENT_3D('',#714,#579,#580);
#516=AXIS2_PLACEMENT_3D('',#720,#584,#585);
#517=AXIS2_PLACEMENT_3D('',#726,#589,#590);
#518=AXIS2_PLACEMENT_3D('',#732,#594,#595);
#519=AXIS2_PLACEMENT_3D('',#738,#599,#600);
#520=AXIS2_PLACEMENT_3D('',#744,#604,#605);
#521=AXIS2_PLACEMENT_3D('',#750,#609,#610);
#522=AXIS2_PLACEMENT_3D('',#751,#611,#612);
#523=AXIS2_PLACEMENT_3D('',#755,#614,#615);
#524=AXIS2_PLACEMENT_3D('',#756,#616,#617);
#525=AXIS2_PLACEMENT_3D('',#762,#621,#622);
#526=AXIS2_PLACEMENT_3D('',#768,#626,#627);
#527=AXIS2_PLACEMENT_3D('',#774,#631,#632);
#528=AXIS2_PLACEMENT_3D('',#780,#636,#637);
#529=AXIS2_PLACEMENT_3D('',#781,#638,#639);
#530=AXIS2_PLACEMENT_3D('',#785,#641,#642);
#531=AXIS2_PLACEMENT_3D('',#786,#643,#644);
#532=AXIS2_PLACEMENT_3D('',#792,#648,#649);
#533=AXIS2_PLACEMENT_3D('',#795,#652,#653);
#534=AXIS2_PLACEMENT_3D('',#796,#654,#655);
#535=AXIS2_PLACEMENT_3D('',#798,#656,#657);
#536=AXIS2_PLACEMENT_3D('',#800,#658,#659);
#537=AXIS2_PLACEMENT_3D('',#802,#660,#661);
#538=AXIS2_PLACEMENT_3D('',#803,#662,#663);
#539=AXIS2_PLACEMENT_3D('',#805,#664,#665);
#540=AXIS2_PLACEMENT_3D('',#807,#666,#667);
#541=AXIS2_PLACEMENT_3D('',#809,#668,#669);
#542=AXIS2_PLACEMENT_3D('',#810,#670,#671);
#543=AXIS2_PLACEMENT_3D('',#811,#672,#673);
#544=DIRECTION('',(0.,0.,1.));
#545=DIRECTION('',(1.,0.,0.));
#546=DIRECTION('',(0.,1.,0.));
#547=DIRECTION('',(0.,0.,1.));
#548=DIRECTION('',(1.,0.,0.));
#549=DIRECTION('',(0.,0.,-1.));
#550=DIRECTION('',(1.,0.,0.));
#551=DIRECTION('',(0.,0.,-1.));
#552=DIRECTION('',(1.,0.,0.));
#553=DIRECTION('',(0.,0.,-1.));
#554=DIRECTION('',(0.,-1.,0.));
#555=DIRECTION('',(0.,0.,-1.));
#556=DIRECTION('',(0.,-1.,0.));
#557=DIRECTION('',(0.,0.,-1.));
#558=DIRECTION('',(-1.,0.,0.));
#559=DIRECTION('',(0.,0.,1.));
#560=DIRECTION('',(1.,0.,0.));
#561=DIRECTION('',(0.,0.,-1.));
#562=DIRECTION('',(0.,0.,1.));
#563=DIRECTION('',(1.,0.,0.));
#564=DIRECTION('',(1.,0.,0.));
#565=DIRECTION('',(0.,0.,-1.));
#566=DIRECTION('',(0.,-1.,0.));
#567=DIRECTION('',(0.,0.,-1.));
#568=DIRECTION('',(0.,-1.,0.));
#569=DIRECTION('',(0.,1.,0.));
#570=DIRECTION('',(0.,0.,1.));
#571=DIRECTION('',(1.,0.,0.));
#572=DIRECTION('',(0.,0.,-1.));
#573=DIRECTION('',(1.,0.,0.));
#574=DIRECTION('',(-1.,0.,0.));
#575=DIRECTION('',(0.,0.,1.));
#576=DIRECTION('',(0.,1.,0.));
#577=DIRECTION('',(0.,0.,-1.));
#578=DIRECTION('',(0.,1.,0.));
#579=DIRECTION('',(0.,-1.,0.));
#580=DIRECTION('',(0.,0.,-1.));
#581=DIRECTION('',(-1.,0.,0.));
#582=DIRECTION('',(0.,0.,-1.));
#583=DIRECTION('',(-1.,0.,0.));
#584=DIRECTION('',(1.,0.,0.));
#585=DIRECTION('',(0.,0.,-1.));
#586=DIRECTION('',(0.,-1.,0.));
#587=DIRECTION('',(0.,0.,-1.));
#588=DIRECTION('',(0.,-1.,0.));
#589=DIRECTION('',(0.,-1.,0.));
#590=DIRECTION('',(0.,0.,-1.));
#591=DIRECTION('',(-1.,0.,0.));
#592=DIRECTION('',(0.,0.,-1.));
#593=DIRECTION('',(-1.,0.,0.));
#594=DIRECTION('',(-1.,0.,0.));
#595=DIRECTION('',(0.,0.,1.));
#596=DIRECTION('',(0.,1.,0.));
#597=DIRECTION('',(0.,0.,-1.));
#598=DIRECTION('',(0.,1.,0.));
#599=DIRECTION('',(0.,1.,0.));
#600=DIRECTION('',(0.,0.,1.));
#601=DIRECTION('',(1.,0.,0.));
#602=DIRECTION('',(0.,0.,-1.));
#603=DIRECTION('',(1.,0.,0.));
#604=DIRECTION('',(-1.,0.,0.));
#605=DIRECTION('',(0.,0.,1.));
#606=DIRECTION('',(0.,1.,0.));
#607=DIRECTION('',(0.,0.,-1.));
#608=DIRECTION('',(0.,1.,0.));
#609=DIRECTION('',(0.,0.,-1.));
#610=DIRECTION('',(-1.,0.,0.));
#611=DIRECTION('',(0.,0.,1.));
#612=DIRECTION('',(1.,0.,0.));
#613=DIRECTION('',(0.,0.,-1.));
#614=DIRECTION('',(0.,0.,1.));
#615=DIRECTION('',(1.,0.,0.));
#616=DIRECTION('',(-1.,0.,0.));
#617=DIRECTION('',(0.,0.,1.));
#618=DIRECTION('',(0.,1.,0.));
#619=DIRECTION('',(0.,0.,-1.));
#620=DIRECTION('',(0.,1.,0.));
#621=DIRECTION('',(0.,1.,0.));
#622=DIRECTION('',(0.,0.,1.));
#623=DIRECTION('',(1.,0.,0.));
#624=DIRECTION('',(0.,0.,-1.));
#625=DIRECTION('',(1.,0.,0.));
#626=DIRECTION('',(1.,6.28357423463676E-17,0.));
#627=DIRECTION('',(-6.28357423463676E-17,1.,0.));
#628=DIRECTION('',(6.28357423463676E-17,-1.,0.));
#629=DIRECTION('',(0.,0.,-1.));
#630=DIRECTION('',(6.28357423463676E-17,-1.,0.));
#631=DIRECTION('',(0.,-1.,0.));
#632=DIRECTION('',(0.,0.,-1.));
#633=DIRECTION('',(-1.,0.,0.));
#634=DIRECTION('',(0.,0.,-1.));
#635=DIRECTION('',(-1.,0.,0.));
#636=DIRECTION('',(0.,0.,-1.));
#637=DIRECTION('',(-1.,0.,0.));
#638=DIRECTION('',(0.,0.,1.));
#639=DIRECTION('',(1.,0.,0.));
#640=DIRECTION('',(0.,0.,-1.));
#641=DIRECTION('',(0.,0.,1.));
#642=DIRECTION('',(1.,0.,0.));
#643=DIRECTION('',(0.,-1.,0.));
#644=DIRECTION('',(0.,0.,-1.));
#645=DIRECTION('',(-1.,0.,0.));
#646=DIRECTION('',(0.,0.,-1.));
#647=DIRECTION('',(-1.,0.,0.));
#648=DIRECTION('',(1.,6.28357423463676E-17,0.));
#649=DIRECTION('',(-6.28357423463676E-17,1.,0.));
#650=DIRECTION('',(6.28357423463676E-17,-1.,0.));
#651=DIRECTION('',(6.28357423463676E-17,-1.,0.));
#652=DIRECTION('',(0.,0.,1.));
#653=DIRECTION('',(1.,0.,0.));
#654=DIRECTION('',(0.,0.,1.));
#655=DIRECTION('',(1.,0.,0.));
#656=DIRECTION('',(0.,0.,1.));
#657=DIRECTION('',(1.,0.,0.));
#658=DIRECTION('',(0.,0.,1.));
#659=DIRECTION('',(1.,0.,0.));
#660=DIRECTION('',(0.,0.,1.));
#661=DIRECTION('',(1.,0.,0.));
#662=DIRECTION('',(0.,0.,1.));
#663=DIRECTION('',(1.,0.,0.));
#664=DIRECTION('',(0.,0.,1.));
#665=DIRECTION('',(1.,0.,0.));
#666=DIRECTION('',(0.,0.,1.));
#667=DIRECTION('',(1.,0.,0.));
#668=DIRECTION('',(0.,0.,1.));
#669=DIRECTION('',(1.,0.,0.));
#670=DIRECTION('',(0.,0.,1.));
#671=DIRECTION('',(1.,0.,0.));
#672=DIRECTION('',(0.,0.,1.));
#673=DIRECTION('',(1.,0.,0.));
#674=CARTESIAN_POINT('',(0.,0.,0.));
#675=CARTESIAN_POINT('',(-0.009615,0.08017,0.02));
#676=CARTESIAN_POINT('',(-0.009615,0.08017,0.018));
#677=CARTESIAN_POINT('',(-0.02048,0.08017,0.018));
#678=CARTESIAN_POINT('',(0.00125,0.08017,0.018));
#679=CARTESIAN_POINT('',(-0.02048,0.08017,0.02));
#680=CARTESIAN_POINT('',(-0.02048,0.08017,0.02));
#681=CARTESIAN_POINT('',(-0.009615,0.08017,0.02));
#682=CARTESIAN_POINT('',(0.00125,0.08017,0.02));
#683=CARTESIAN_POINT('',(0.00125,0.08017,0.02));
#684=CARTESIAN_POINT('',(-0.02048,0.081045,0.02));
#685=CARTESIAN_POINT('',(-0.02048,0.081045,0.018));
#686=CARTESIAN_POINT('',(-0.02048,0.08192,0.018));
#687=CARTESIAN_POINT('',(-0.02048,0.08192,0.02));
#688=CARTESIAN_POINT('',(-0.02048,0.08192,0.02));
#689=CARTESIAN_POINT('',(-0.02048,0.081045,0.02));
#690=CARTESIAN_POINT('',(-0.02323,0.08192,0.02));
#691=CARTESIAN_POINT('',(-0.02323,0.08192,0.018));
#692=CARTESIAN_POINT('',(-0.02598,0.08192,0.018));
#693=CARTESIAN_POINT('',(-0.02598,0.08192,0.02));
#694=CARTESIAN_POINT('',(-0.02598,0.08192,0.02));
#695=CARTESIAN_POINT('',(-0.02323,0.08192,0.02));
#696=CARTESIAN_POINT('',(-0.02598,0.081045,0.02));
#697=CARTESIAN_POINT('',(-0.02598,0.081045,0.018));
#698=CARTESIAN_POINT('',(-0.02598,0.08017,0.018));
#699=CARTESIAN_POINT('',(-0.02598,0.08017,0.02));
#700=CARTESIAN_POINT('',(-0.02598,0.08017,0.02));
#701=CARTESIAN_POINT('',(-0.02598,0.081045,0.02));
#702=CARTESIAN_POINT('',(-0.02748,0.08017,0.02));
#703=CARTESIAN_POINT('',(-0.02748,0.08017,0.018));
#704=CARTESIAN_POINT('',(-0.02898,0.08017,0.018));
#705=CARTESIAN_POINT('',(-0.02898,0.08017,0.02));
#706=CARTESIAN_POINT('',(-0.02898,0.08017,0.02));
#707=CARTESIAN_POINT('',(-0.02748,0.08017,0.02));
#708=CARTESIAN_POINT('',(-0.02898,0.068295,0.02));
#709=CARTESIAN_POINT('',(-0.02898,0.068295,0.018));
#710=CARTESIAN_POINT('',(-0.02898,0.06817,0.018));
#711=CARTESIAN_POINT('',(-0.02898,0.06817,0.02));
#712=CARTESIAN_POINT('',(-0.02898,0.06817,0.02));
#713=CARTESIAN_POINT('',(-0.02898,0.068295,0.02));
#714=CARTESIAN_POINT('',(-0.029105,0.06817,0.02));
#715=CARTESIAN_POINT('',(-0.029105,0.06817,0.018));
#716=CARTESIAN_POINT('',(-0.03073,0.06817,0.018));
#717=CARTESIAN_POINT('',(-0.03073,0.06817,0.02));
#718=CARTESIAN_POINT('',(-0.03073,0.06817,0.02));
#719=CARTESIAN_POINT('',(-0.029105,0.06817,0.02));
#720=CARTESIAN_POINT('',(-0.03073,0.066295,0.02));
#721=CARTESIAN_POINT('',(-0.03073,0.066295,0.018));
#722=CARTESIAN_POINT('',(-0.03073,0.05967,0.018));
#723=CARTESIAN_POINT('',(-0.03073,0.05967,0.02));
#724=CARTESIAN_POINT('',(-0.03073,0.05967,0.02));
#725=CARTESIAN_POINT('',(-0.03073,0.066295,0.02));
#726=CARTESIAN_POINT('',(-0.029105,0.05967,0.02));
#727=CARTESIAN_POINT('',(-0.029105,0.05967,0.018));
#728=CARTESIAN_POINT('',(-0.02898,0.05967,0.018));
#729=CARTESIAN_POINT('',(-0.02898,0.05967,0.02));
#730=CARTESIAN_POINT('',(-0.02898,0.05967,0.02));
#731=CARTESIAN_POINT('',(-0.029105,0.05967,0.02));
#732=CARTESIAN_POINT('',(-0.02898,0.059545,0.02));
#733=CARTESIAN_POINT('',(-0.02898,0.059545,0.018));
#734=CARTESIAN_POINT('',(-0.02898,-0.00125,0.018));
#735=CARTESIAN_POINT('',(-0.02898,-0.00125,0.02));
#736=CARTESIAN_POINT('',(-0.02898,-0.00125,0.02));
#737=CARTESIAN_POINT('',(-0.02898,0.059545,0.02));
#738=CARTESIAN_POINT('',(-0.02748,-0.00125,0.02));
#739=CARTESIAN_POINT('',(-0.02748,-0.00125,0.018));
#740=CARTESIAN_POINT('',(-0.02598,-0.00125,0.018));
#741=CARTESIAN_POINT('',(-0.02598,-0.00125,0.02));
#742=CARTESIAN_POINT('',(-0.02598,-0.00125,0.02));
#743=CARTESIAN_POINT('',(-0.02748,-0.00125,0.02));
#744=CARTESIAN_POINT('',(-0.02598,-0.002125,0.02));
#745=CARTESIAN_POINT('',(-0.02598,-0.002125,0.018));
#746=CARTESIAN_POINT('',(-0.02598,-0.003,0.018));
#747=CARTESIAN_POINT('',(-0.02598,-0.003,0.02));
#748=CARTESIAN_POINT('',(-0.02598,-0.003,0.02));
#749=CARTESIAN_POINT('',(-0.02598,-0.002125,0.02));
#750=CARTESIAN_POINT('',(-0.02323,-0.003,0.02));
#751=CARTESIAN_POINT('',(-0.02323,-0.003,0.018));
#752=CARTESIAN_POINT('',(-0.02048,-0.003,0.018));
#753=CARTESIAN_POINT('',(-0.02048,-0.003,0.02));
#754=CARTESIAN_POINT('',(-0.02048,-0.003,0.02));
#755=CARTESIAN_POINT('',(-0.02323,-0.003,0.02));
#756=CARTESIAN_POINT('',(-0.02048,-0.002125,0.02));
#757=CARTESIAN_POINT('',(-0.02048,-0.002125,0.018));
#758=CARTESIAN_POINT('',(-0.02048,-0.00125,0.018));
#759=CARTESIAN_POINT('',(-0.02048,-0.00125,0.02));
#760=CARTESIAN_POINT('',(-0.02048,-0.00125,0.02));
#761=CARTESIAN_POINT('',(-0.02048,-0.002125,0.02));
#762=CARTESIAN_POINT('',(-0.009615,-0.00125,0.02));
#763=CARTESIAN_POINT('',(-0.009615,-0.00125,0.018));
#764=CARTESIAN_POINT('',(0.00125,-0.00125,0.018));
#765=CARTESIAN_POINT('',(0.00125,-0.00125,0.02));
#766=CARTESIAN_POINT('',(0.00125,-0.00125,0.02));
#767=CARTESIAN_POINT('',(-0.009615,-0.00125,0.02));
#768=CARTESIAN_POINT('',(0.00125,0.01773,0.02));
#769=CARTESIAN_POINT('',(0.00125,0.01773,0.018));
#770=CARTESIAN_POINT('',(0.00125,0.03671,0.018));
#771=CARTESIAN_POINT('',(0.00125,0.03671,0.02));
#772=CARTESIAN_POINT('',(0.00125,0.03671,0.02));
#773=CARTESIAN_POINT('',(0.00125,0.01773,0.02));
#774=CARTESIAN_POINT('',(0.002125,0.03671,0.02));
#775=CARTESIAN_POINT('',(0.002125,0.03671,0.018));
#776=CARTESIAN_POINT('',(0.003,0.03671,0.018));
#777=CARTESIAN_POINT('',(0.003,0.03671,0.02));
#778=CARTESIAN_POINT('',(0.003,0.03671,0.02));
#779=CARTESIAN_POINT('',(0.002125,0.03671,0.02));
#780=CARTESIAN_POINT('',(0.003,0.03946,0.02));
#781=CARTESIAN_POINT('',(0.003,0.03946,0.018));
#782=CARTESIAN_POINT('',(0.003,0.04221,0.018));
#783=CARTESIAN_POINT('',(0.003,0.04221,0.02));
#784=CARTESIAN_POINT('',(0.003,0.04221,0.02));
#785=CARTESIAN_POINT('',(0.003,0.03946,0.02));
#786=CARTESIAN_POINT('',(0.002125,0.04221,0.02));
#787=CARTESIAN_POINT('',(0.002125,0.04221,0.018));
#788=CARTESIAN_POINT('',(0.00125,0.04221,0.018));
#789=CARTESIAN_POINT('',(0.00125,0.04221,0.02));
#790=CARTESIAN_POINT('',(0.00125,0.04221,0.02));
#791=CARTESIAN_POINT('',(0.002125,0.04221,0.02));
#792=CARTESIAN_POINT('',(0.00125,0.06119,0.02));
#793=CARTESIAN_POINT('',(0.00125,0.06119,0.018));
#794=CARTESIAN_POINT('',(0.00125,0.06119,0.02));
#795=CARTESIAN_POINT('',(-0.012365,0.03946,0.02));
#796=CARTESIAN_POINT('',(-0.02323,-0.003,0.02));
#797=CARTESIAN_POINT('',(-0.02218,-0.003,0.02));
#798=CARTESIAN_POINT('',(0.003,0.03946,0.02));
#799=CARTESIAN_POINT('',(0.00405,0.03946,0.02));
#800=CARTESIAN_POINT('',(-0.02323,0.08192,0.02));
#801=CARTESIAN_POINT('',(-0.02218,0.08192,0.02));
#802=CARTESIAN_POINT('',(-0.012365,0.03946,0.018));
#803=CARTESIAN_POINT('',(-0.02323,-0.003,0.018));
#804=CARTESIAN_POINT('',(-0.02218,-0.003,0.018));
#805=CARTESIAN_POINT('',(0.003,0.03946,0.018));
#806=CARTESIAN_POINT('',(0.00405,0.03946,0.018));
#807=CARTESIAN_POINT('',(-0.02323,0.08192,0.018));
#808=CARTESIAN_POINT('',(-0.02218,0.08192,0.018));
#809=CARTESIAN_POINT('',(-0.02323,0.08192,0.017998));
#810=CARTESIAN_POINT('',(0.003,0.03946,0.017998));
#811=CARTESIAN_POINT('',(-0.02323,-0.003,0.017998));
#812=MECHANICAL_DESIGN_GEOMETRIC_PRESENTATION_REPRESENTATION('',(#495),
#813);
#813=(
GEOMETRIC_REPRESENTATION_CONTEXT(3)
GLOBAL_UNCERTAINTY_ASSIGNED_CONTEXT((#814))
GLOBAL_UNIT_ASSIGNED_CONTEXT((#817,#816,#815))
REPRESENTATION_CONTEXT('couvercle','TOP_LEVEL_ASSEMBLY_PART')
);
#814=UNCERTAINTY_MEASURE_WITH_UNIT(LENGTH_MEASURE(1.E-8),#817,
'DISTANCE_ACCURACY_VALUE','Maximum Tolerance applied to model');
#815=(
NAMED_UNIT(*)
SI_UNIT($,.STERADIAN.)
SOLID_ANGLE_UNIT()
);
#816=(
NAMED_UNIT(*)
PLANE_ANGLE_UNIT()
SI_UNIT($,.RADIAN.)
);
#817=(
LENGTH_UNIT()
NAMED_UNIT(*)
SI_UNIT($,.METRE.)
);
#818=PRODUCT_DEFINITION_SHAPE('','',#819);
#819=PRODUCT_DEFINITION('','',#821,#820);
#820=PRODUCT_DEFINITION_CONTEXT('',#827,'design');
#821=PRODUCT_DEFINITION_FORMATION_WITH_SPECIFIED_SOURCE('','',#823,
 .NOT_KNOWN.);
#822=PRODUCT_RELATED_PRODUCT_CATEGORY('','',(#823));
#823=PRODUCT('couvercle','couvercle','couvercle',(#825));
#824=PRODUCT_CATEGORY('','');
#825=PRODUCT_CONTEXT('',#827,'mechanical');
#826=APPLICATION_PROTOCOL_DEFINITION('international standard',
'ap242_managed_model_based_3d_engineering',2011,#827);
#827=APPLICATION_CONTEXT('managed model based 3d engineering');
ENDSEC;
END-ISO-10303-21;
