M48
; DRILL file {KiCad 8.0.0} date 2024-03-10T12:56:00+0100
; FORMAT={-:-/ absolute / inch / decimal}
; #@! TF.CreationDate,2024-03-10T12:56:00+01:00
; #@! TF.GenerationSoftware,Kicad,Pcbnew,8.0.0
; #@! TF.FileFunction,Plated,1,2,PTH
FMAT,2
INCH
; #@! TA.AperFunction,Plated,PTH,ComponentDrill
T1C0.0300
; #@! TA.AperFunction,Plated,PTH,ComponentDrill
T2C0.0354
; #@! TA.AperFunction,Plated,PTH,ComponentDrill
T3C0.0394
%
G90
G05
T1
X3.6337Y-1.2417
X3.7337Y-1.2417
X3.8337Y-1.2417
T2
X3.6795Y-1.5551
X3.7795Y-1.5551
T3
X3.037Y-1.9496
X3.037Y-2.0496
X3.037Y-2.1496
X3.037Y-2.2496
X3.037Y-2.3496
X3.037Y-2.4496
X3.037Y-2.5496
X3.037Y-2.6496
X3.037Y-2.7496
X3.037Y-2.8496
X3.037Y-2.9496
X3.037Y-3.0496
X3.037Y-3.1496
X3.1299Y-1.437
X3.4291Y-1.437
X3.937Y-1.9496
X3.937Y-2.0496
X3.937Y-2.1496
X3.937Y-2.2496
X3.937Y-2.3496
X3.937Y-2.4496
X3.937Y-2.5496
X3.937Y-2.6496
X3.937Y-2.7496
X3.937Y-2.8496
X3.937Y-2.9496
X3.937Y-3.0496
X3.937Y-3.1496
M30
