M48
; DRILL file {KiCad 8.0.0} date 2024-03-10T17:40:46+0100
; FORMAT={-:-/ absolute / inch / decimal}
; #@! TF.CreationDate,2024-03-10T17:40:46+01:00
; #@! TF.GenerationSoftware,Kicad,Pcbnew,8.0.0
; #@! TF.FileFunction,MixedPlating,1,2
FMAT,2
INCH
; #@! TA.AperFunction,Plated,PTH,ComponentDrill
T1C0.0300
; #@! TA.AperFunction,Plated,PTH,ComponentDrill
T2C0.0354
; #@! TA.AperFunction,Plated,PTH,ComponentDrill
T3C0.0394
%
G90
G05
T1
X0.9172Y2.0063
X1.0172Y2.0063
X1.1172Y2.0063
T2
X0.963Y1.6929
X1.063Y1.6929
T3
X0.3205Y1.2984
X0.3205Y1.1984
X0.3205Y1.0984
X0.3205Y0.9984
X0.3205Y0.8984
X0.3205Y0.7984
X0.3205Y0.6984
X0.3205Y0.5984
X0.3205Y0.4984
X0.3205Y0.3984
X0.3205Y0.2984
X0.3205Y0.1984
X0.3205Y0.0984
X0.4134Y1.811
X0.7126Y1.811
X1.2205Y1.2984
X1.2205Y1.1984
X1.2205Y1.0984
X1.2205Y0.9984
X1.2205Y0.8984
X1.2205Y0.7984
X1.2205Y0.6984
X1.2205Y0.5984
X1.2205Y0.4984
X1.2205Y0.3984
X1.2205Y0.2984
X1.2205Y0.1984
X1.2205Y0.0984
M30
