G04 #@! TF.GenerationSoftware,KiCad,Pcbnew,8.0.0*
G04 #@! TF.CreationDate,2024-03-10T17:40:45+01:00*
G04 #@! TF.ProjectId,mailboxguard_shield,6d61696c-626f-4786-9775-6172645f7368,rev?*
G04 #@! TF.SameCoordinates,PX41cdb40PY4ead9a0*
G04 #@! TF.FileFunction,Copper,L1,Top*
G04 #@! TF.FilePolarity,Positive*
%FSLAX46Y46*%
G04 Gerber Fmt 4.6, Leading zero omitted, Abs format (unit mm)*
G04 Created by KiCad (PCBNEW 8.0.0) date 2024-03-10 17:40:45*
%MOMM*%
%LPD*%
G01*
G04 APERTURE LIST*
G04 Aperture macros list*
%AMRoundRect*
0 Rectangle with rounded corners*
0 $1 Rounding radius*
0 $2 $3 $4 $5 $6 $7 $8 $9 X,Y pos of 4 corners*
0 Add a 4 corners polygon primitive as box body*
4,1,4,$2,$3,$4,$5,$6,$7,$8,$9,$2,$3,0*
0 Add four circle primitives for the rounded corners*
1,1,$1+$1,$2,$3*
1,1,$1+$1,$4,$5*
1,1,$1+$1,$6,$7*
1,1,$1+$1,$8,$9*
0 Add four rect primitives between the rounded corners*
20,1,$1+$1,$2,$3,$4,$5,0*
20,1,$1+$1,$4,$5,$6,$7,0*
20,1,$1+$1,$6,$7,$8,$9,0*
20,1,$1+$1,$8,$9,$2,$3,0*%
G04 Aperture macros list end*
G04 #@! TA.AperFunction,SMDPad,CuDef*
%ADD10RoundRect,0.250000X-0.625000X0.312500X-0.625000X-0.312500X0.625000X-0.312500X0.625000X0.312500X0*%
G04 #@! TD*
G04 #@! TA.AperFunction,SMDPad,CuDef*
%ADD11RoundRect,0.150000X0.150000X-0.587500X0.150000X0.587500X-0.150000X0.587500X-0.150000X-0.587500X0*%
G04 #@! TD*
G04 #@! TA.AperFunction,SMDPad,CuDef*
%ADD12RoundRect,0.250000X-0.600000X0.400000X-0.600000X-0.400000X0.600000X-0.400000X0.600000X0.400000X0*%
G04 #@! TD*
G04 #@! TA.AperFunction,SMDPad,CuDef*
%ADD13RoundRect,0.250000X-0.312500X-0.625000X0.312500X-0.625000X0.312500X0.625000X-0.312500X0.625000X0*%
G04 #@! TD*
G04 #@! TA.AperFunction,SMDPad,CuDef*
%ADD14RoundRect,0.250000X0.625000X-0.312500X0.625000X0.312500X-0.625000X0.312500X-0.625000X-0.312500X0*%
G04 #@! TD*
G04 #@! TA.AperFunction,ComponentPad*
%ADD15R,1.800000X1.800000*%
G04 #@! TD*
G04 #@! TA.AperFunction,ComponentPad*
%ADD16C,1.800000*%
G04 #@! TD*
G04 #@! TA.AperFunction,ComponentPad*
%ADD17R,2.000000X2.000000*%
G04 #@! TD*
G04 #@! TA.AperFunction,ComponentPad*
%ADD18C,2.000000*%
G04 #@! TD*
G04 #@! TA.AperFunction,ComponentPad*
%ADD19O,2.500000X2.000000*%
G04 #@! TD*
G04 #@! TA.AperFunction,ComponentPad*
%ADD20O,1.524000X2.500000*%
G04 #@! TD*
G04 #@! TA.AperFunction,Conductor*
%ADD21C,1.000000*%
G04 #@! TD*
G04 #@! TA.AperFunction,Conductor*
%ADD22C,0.500000*%
G04 #@! TD*
G04 APERTURE END LIST*
D10*
G04 #@! TO.P,R1,1*
G04 #@! TO.N,Net-(D1-K)*
X23537500Y7962500D03*
G04 #@! TO.P,R1,2*
G04 #@! TO.N,GND*
X23537500Y5037500D03*
G04 #@! TD*
D11*
G04 #@! TO.P,Q1,1,B*
G04 #@! TO.N,Net-(Q1-B)*
X19000000Y13000000D03*
G04 #@! TO.P,Q1,2,E*
G04 #@! TO.N,GND*
X20900000Y13000000D03*
G04 #@! TO.P,Q1,3,C*
G04 #@! TO.N,Net-(D2-A)*
X19950000Y14875000D03*
G04 #@! TD*
D12*
G04 #@! TO.P,D2,1,K*
G04 #@! TO.N,Net-(BZ1-+)*
X13500000Y35000000D03*
G04 #@! TO.P,D2,2,A*
G04 #@! TO.N,Net-(D2-A)*
X13500000Y31500000D03*
G04 #@! TD*
D13*
G04 #@! TO.P,R2,1*
G04 #@! TO.N,/PIN_BUZZER*
X14537500Y6500000D03*
G04 #@! TO.P,R2,2*
G04 #@! TO.N,Net-(Q1-B)*
X17462500Y6500000D03*
G04 #@! TD*
D14*
G04 #@! TO.P,R3,1*
G04 #@! TO.N,Net-(D2-A)*
X21000000Y31537500D03*
G04 #@! TO.P,R3,2*
G04 #@! TO.N,Net-(BZ1--)*
X21000000Y34462500D03*
G04 #@! TD*
D15*
G04 #@! TO.P,D1,1,K*
G04 #@! TO.N,Net-(D1-K)*
X27000000Y43000000D03*
D16*
G04 #@! TO.P,D1,2,A*
G04 #@! TO.N,Net-(D1-A)*
X24460000Y43000000D03*
G04 #@! TD*
D17*
G04 #@! TO.P,BZ1,1,+*
G04 #@! TO.N,Net-(BZ1-+)*
X10500000Y46000000D03*
D18*
G04 #@! TO.P,BZ1,2,-*
G04 #@! TO.N,Net-(BZ1--)*
X18100000Y46000000D03*
G04 #@! TD*
D19*
G04 #@! TO.P,U1,1,25*
G04 #@! TO.N,Net-(D1-A)*
X8140000Y2500000D03*
G04 #@! TO.P,U1,2,04*
G04 #@! TO.N,/PIN_BUZZER*
X8140000Y5040000D03*
G04 #@! TO.P,U1,3,00*
G04 #@! TO.N,unconnected-(U1-00-Pad3)*
X8140000Y7580000D03*
G04 #@! TO.P,U1,4,02*
G04 #@! TO.N,unconnected-(U1-02-Pad4)*
X8140000Y10120000D03*
G04 #@! TO.P,U1,5,15*
G04 #@! TO.N,unconnected-(U1-15-Pad5)*
X8140000Y12660000D03*
G04 #@! TO.P,U1,6,13*
G04 #@! TO.N,unconnected-(U1-13-Pad6)*
X8140000Y15200000D03*
G04 #@! TO.P,U1,7,12*
G04 #@! TO.N,unconnected-(U1-12-Pad7)*
X8140000Y17740000D03*
G04 #@! TO.P,U1,8,14*
G04 #@! TO.N,unconnected-(U1-14-Pad8)*
X8140000Y20280000D03*
G04 #@! TO.P,U1,9,35*
G04 #@! TO.N,unconnected-(U1-35-Pad9)*
X8140000Y22820000D03*
G04 #@! TO.P,U1,10,34*
G04 #@! TO.N,unconnected-(U1-34-Pad10)*
X8140000Y25360000D03*
G04 #@! TO.P,U1,11,RST*
G04 #@! TO.N,unconnected-(U1-RST-Pad11)*
X8140000Y27900000D03*
G04 #@! TO.P,U1,12,39*
G04 #@! TO.N,unconnected-(U1-39-Pad12)*
X8140000Y30440000D03*
G04 #@! TO.P,U1,13,36*
G04 #@! TO.N,unconnected-(U1-36-Pad13)*
X8140000Y32980000D03*
G04 #@! TO.P,U1,14,5V*
G04 #@! TO.N,unconnected-(U1-5V-Pad14)*
X31000000Y2500000D03*
G04 #@! TO.P,U1,15,GND*
G04 #@! TO.N,GND*
X31000000Y5040000D03*
G04 #@! TO.P,U1,16,3.3V*
G04 #@! TO.N,+3.3V*
X31000000Y7580000D03*
G04 #@! TO.P,U1,17,GND*
G04 #@! TO.N,unconnected-(U1-GND-Pad17)*
X31000000Y10120000D03*
G04 #@! TO.P,U1,18,26*
G04 #@! TO.N,unconnected-(U1-26-Pad18)*
X31000000Y12660000D03*
G04 #@! TO.P,U1,19,LORA1*
G04 #@! TO.N,unconnected-(U1-LORA1-Pad19)*
X31000000Y15200000D03*
G04 #@! TO.P,U1,20,LORA2*
G04 #@! TO.N,unconnected-(U1-LORA2-Pad20)*
X31000000Y17740000D03*
G04 #@! TO.P,U1,21,19*
G04 #@! TO.N,unconnected-(U1-19-Pad21)*
X31000000Y20280000D03*
G04 #@! TO.P,U1,22,23*
G04 #@! TO.N,unconnected-(U1-23-Pad22)*
X31000000Y22820000D03*
G04 #@! TO.P,U1,23,22*
G04 #@! TO.N,unconnected-(U1-22-Pad23)*
X31000000Y25360000D03*
G04 #@! TO.P,U1,24,RXD*
G04 #@! TO.N,unconnected-(U1-RXD-Pad24)*
X31000000Y27900000D03*
G04 #@! TO.P,U1,25,TXD*
G04 #@! TO.N,unconnected-(U1-TXD-Pad25)*
X31000000Y30440000D03*
G04 #@! TO.P,U1,26,21*
G04 #@! TO.N,unconnected-(U1-21-Pad26)*
X31000000Y32980000D03*
G04 #@! TD*
D20*
G04 #@! TO.P,SW1,1,A*
G04 #@! TO.N,Net-(BZ1-+)*
X23296742Y50959563D03*
G04 #@! TO.P,SW1,2,B*
G04 #@! TO.N,+3.3V*
X25836742Y50959563D03*
G04 #@! TO.P,SW1,3,C*
G04 #@! TO.N,unconnected-(SW1-C-Pad3)*
X28376742Y50959563D03*
G04 #@! TD*
D21*
G04 #@! TO.N,Net-(BZ1-+)*
X13500000Y35000000D02*
X13000000Y35500000D01*
X13000000Y35500000D02*
X13000000Y37977500D01*
X10500000Y46000000D02*
X10500000Y40477500D01*
X13000000Y37977500D02*
X10500000Y40477500D01*
X15000000Y52000000D02*
X11550000Y48550000D01*
X20500000Y52000000D02*
X15000000Y52000000D01*
X10500000Y47600000D02*
X10500000Y46000000D01*
X21540437Y50959563D02*
X20500000Y52000000D01*
X11450000Y48550000D02*
X10500000Y47600000D01*
X11550000Y48550000D02*
X11450000Y48550000D01*
X23296742Y50959563D02*
X21540437Y50959563D01*
G04 #@! TO.N,Net-(BZ1--)*
X20000000Y42000000D02*
X20000000Y35462500D01*
X18100000Y46000000D02*
X18100000Y43900000D01*
X20000000Y35462500D02*
X21000000Y34462500D01*
X18100000Y43900000D02*
X20000000Y42000000D01*
G04 #@! TO.N,Net-(D1-K)*
X24500000Y37000000D02*
X24500000Y8925000D01*
X24500000Y8925000D02*
X23537500Y7962500D01*
X27000000Y43000000D02*
X27000000Y39500000D01*
X27000000Y39500000D02*
X24500000Y37000000D01*
G04 #@! TO.N,Net-(D1-A)*
X14500000Y47000000D02*
X14500000Y42500000D01*
X15000000Y2500000D02*
X8140000Y2500000D01*
X17000000Y40000000D02*
X17000000Y34500000D01*
X16000000Y33500000D02*
X11000000Y33500000D01*
X11000000Y33500000D02*
X11000000Y29500000D01*
X16500000Y49000000D02*
X14500000Y47000000D01*
X14500000Y42500000D02*
X17000000Y40000000D01*
X17000000Y34500000D02*
X16000000Y33500000D01*
X11000000Y29500000D02*
X16000000Y24500000D01*
X16000000Y3500000D02*
X15000000Y2500000D01*
X18460000Y49000000D02*
X16500000Y49000000D01*
X16000000Y24500000D02*
X16000000Y3500000D01*
X24460000Y43000000D02*
X18460000Y49000000D01*
G04 #@! TO.N,Net-(D2-A)*
X21000000Y21000000D02*
X21000000Y31537500D01*
D22*
X19950000Y14875000D02*
X19950000Y17000000D01*
D21*
X19950000Y17000000D02*
X19950000Y19950000D01*
X20962500Y31500000D02*
X21000000Y31537500D01*
X19950000Y19950000D02*
X21000000Y21000000D01*
X13500000Y31500000D02*
X20962500Y31500000D01*
D22*
G04 #@! TO.N,Net-(Q1-B)*
X19000000Y8037500D02*
X17462500Y6500000D01*
X19000000Y13000000D02*
X19000000Y8037500D01*
D21*
G04 #@! TO.N,/PIN_BUZZER*
X13077500Y5040000D02*
X14537500Y6500000D01*
X8140000Y5040000D02*
X13077500Y5040000D01*
G04 #@! TO.N,+3.3V*
X30000000Y45053110D02*
X30000000Y38500000D01*
X27000000Y9830000D02*
X29250000Y7580000D01*
X30000000Y38500000D02*
X27000000Y35500000D01*
X29250000Y7580000D02*
X31000000Y7580000D01*
X25836742Y49216368D02*
X30000000Y45053110D01*
X25836742Y50959563D02*
X25836742Y49216368D01*
X27000000Y35500000D02*
X27000000Y9830000D01*
G04 #@! TD*
G04 #@! TA.AperFunction,Conductor*
G04 #@! TO.N,GND*
G36*
X14353647Y52979815D02*
G01*
X14399402Y52927011D01*
X14409346Y52857853D01*
X14380321Y52794297D01*
X14365275Y52779648D01*
X14362218Y52777140D01*
X14295142Y52710063D01*
X14222861Y52637782D01*
X14222858Y52637779D01*
X11071415Y49486337D01*
X11031189Y49459458D01*
X10976089Y49436634D01*
X10976083Y49436631D01*
X10812222Y49327143D01*
X10812219Y49327141D01*
X10742540Y49257462D01*
X10672861Y49187782D01*
X10672858Y49187779D01*
X9862221Y48377142D01*
X9862218Y48377139D01*
X9792538Y48307460D01*
X9722859Y48237781D01*
X9613371Y48073921D01*
X9613364Y48073908D01*
X9537950Y47891840D01*
X9537947Y47891830D01*
X9499500Y47698544D01*
X9499500Y47616977D01*
X9479815Y47549938D01*
X9427011Y47504183D01*
X9399865Y47496734D01*
X9400068Y47495876D01*
X9392520Y47494093D01*
X9257671Y47443798D01*
X9257664Y47443794D01*
X9142455Y47357548D01*
X9142454Y47357546D01*
X9056206Y47242336D01*
X9056202Y47242329D01*
X9005908Y47107483D01*
X8999501Y47047884D01*
X8999501Y47047877D01*
X8999500Y47047865D01*
X8999500Y44952130D01*
X8999501Y44952124D01*
X9005908Y44892517D01*
X9056202Y44757672D01*
X9056206Y44757665D01*
X9142452Y44642456D01*
X9142455Y44642453D01*
X9257664Y44556207D01*
X9257671Y44556203D01*
X9392517Y44505909D01*
X9400062Y44504126D01*
X9399523Y44501849D01*
X9453287Y44479592D01*
X9493147Y44422207D01*
X9499500Y44383025D01*
X9499500Y40378959D01*
X9499500Y40378957D01*
X9499499Y40378957D01*
X9537947Y40185671D01*
X9537950Y40185661D01*
X9613364Y40003593D01*
X9613371Y40003580D01*
X9722860Y39839719D01*
X9722863Y39839715D01*
X9866537Y39696041D01*
X9866559Y39696021D01*
X11963181Y37599399D01*
X11996666Y37538076D01*
X11999500Y37511718D01*
X11999500Y35401459D01*
X11999500Y35401457D01*
X11999499Y35401457D01*
X12037947Y35208171D01*
X12037950Y35208161D01*
X12113364Y35026094D01*
X12113371Y35026081D01*
X12128602Y35003287D01*
X12149480Y34936610D01*
X12149500Y34934396D01*
X12149501Y34624500D01*
X12129817Y34557461D01*
X12077013Y34511706D01*
X12025501Y34500500D01*
X10901457Y34500500D01*
X10708170Y34462053D01*
X10708160Y34462050D01*
X10526092Y34386636D01*
X10526079Y34386629D01*
X10362218Y34277140D01*
X10362214Y34277137D01*
X10222863Y34137786D01*
X10222860Y34137782D01*
X10113371Y33973921D01*
X10113364Y33973908D01*
X10037950Y33791840D01*
X10037947Y33791830D01*
X10001703Y33609619D01*
X9969318Y33547708D01*
X9908602Y33513134D01*
X9838833Y33516874D01*
X9782161Y33557741D01*
X9769601Y33577516D01*
X9753244Y33609619D01*
X9673343Y33766433D01*
X9534517Y33957510D01*
X9367510Y34124517D01*
X9176433Y34263343D01*
X9149355Y34277140D01*
X8965996Y34370567D01*
X8741368Y34443554D01*
X8508097Y34480500D01*
X8508092Y34480500D01*
X7771908Y34480500D01*
X7771903Y34480500D01*
X7538631Y34443554D01*
X7314003Y34370567D01*
X7103566Y34263343D01*
X7027632Y34208173D01*
X6912490Y34124517D01*
X6912488Y34124515D01*
X6912487Y34124515D01*
X6745485Y33957513D01*
X6745485Y33957512D01*
X6745483Y33957510D01*
X6685862Y33875450D01*
X6606657Y33766434D01*
X6499433Y33555997D01*
X6426446Y33331369D01*
X6389500Y33098098D01*
X6389500Y32861903D01*
X6426446Y32628632D01*
X6499433Y32404004D01*
X6543668Y32317189D01*
X6606657Y32193567D01*
X6745483Y32002490D01*
X6912490Y31835483D01*
X6947127Y31810317D01*
X6989792Y31754987D01*
X6995771Y31685374D01*
X6963165Y31623579D01*
X6947130Y31609685D01*
X6929365Y31596778D01*
X6912488Y31584516D01*
X6745485Y31417513D01*
X6745485Y31417512D01*
X6745483Y31417510D01*
X6685862Y31335450D01*
X6606657Y31226434D01*
X6499433Y31015997D01*
X6426446Y30791369D01*
X6389500Y30558098D01*
X6389500Y30321903D01*
X6426446Y30088632D01*
X6499433Y29864004D01*
X6543668Y29777189D01*
X6606657Y29653567D01*
X6745483Y29462490D01*
X6912490Y29295483D01*
X6947127Y29270317D01*
X6989792Y29214987D01*
X6995771Y29145374D01*
X6963165Y29083579D01*
X6947130Y29069685D01*
X6929365Y29056778D01*
X6912488Y29044516D01*
X6745485Y28877513D01*
X6745485Y28877512D01*
X6745483Y28877510D01*
X6685862Y28795450D01*
X6606657Y28686434D01*
X6499433Y28475997D01*
X6426446Y28251369D01*
X6389500Y28018098D01*
X6389500Y27781903D01*
X6426446Y27548632D01*
X6499433Y27324004D01*
X6606657Y27113567D01*
X6745483Y26922490D01*
X6912490Y26755483D01*
X6947127Y26730317D01*
X6989792Y26674987D01*
X6995771Y26605374D01*
X6963165Y26543579D01*
X6947130Y26529685D01*
X6929365Y26516778D01*
X6912488Y26504516D01*
X6745485Y26337513D01*
X6745485Y26337512D01*
X6745483Y26337510D01*
X6685862Y26255450D01*
X6606657Y26146434D01*
X6499433Y25935997D01*
X6426446Y25711369D01*
X6389500Y25478098D01*
X6389500Y25241903D01*
X6426446Y25008632D01*
X6499433Y24784004D01*
X6593932Y24598541D01*
X6606657Y24573567D01*
X6745483Y24382490D01*
X6912490Y24215483D01*
X6947127Y24190317D01*
X6989792Y24134987D01*
X6995771Y24065374D01*
X6963165Y24003579D01*
X6947130Y23989685D01*
X6929365Y23976778D01*
X6912488Y23964516D01*
X6745485Y23797513D01*
X6745485Y23797512D01*
X6745483Y23797510D01*
X6685862Y23715450D01*
X6606657Y23606434D01*
X6499433Y23395997D01*
X6426446Y23171369D01*
X6389500Y22938098D01*
X6389500Y22701903D01*
X6426446Y22468632D01*
X6499433Y22244004D01*
X6606657Y22033567D01*
X6745483Y21842490D01*
X6912490Y21675483D01*
X6947127Y21650317D01*
X6989792Y21594987D01*
X6995771Y21525374D01*
X6963165Y21463579D01*
X6947130Y21449685D01*
X6929365Y21436778D01*
X6912488Y21424516D01*
X6745485Y21257513D01*
X6745485Y21257512D01*
X6745483Y21257510D01*
X6685862Y21175450D01*
X6606657Y21066434D01*
X6499433Y20855997D01*
X6426446Y20631369D01*
X6389500Y20398098D01*
X6389500Y20161903D01*
X6426446Y19928632D01*
X6499433Y19704004D01*
X6566744Y19571900D01*
X6606657Y19493567D01*
X6745483Y19302490D01*
X6912490Y19135483D01*
X6947127Y19110317D01*
X6989792Y19054987D01*
X6995771Y18985374D01*
X6963165Y18923579D01*
X6947130Y18909685D01*
X6929365Y18896778D01*
X6912488Y18884516D01*
X6745485Y18717513D01*
X6745485Y18717512D01*
X6745483Y18717510D01*
X6685862Y18635450D01*
X6606657Y18526434D01*
X6499433Y18315997D01*
X6426446Y18091369D01*
X6389500Y17858098D01*
X6389500Y17621903D01*
X6426446Y17388632D01*
X6499433Y17164004D01*
X6606657Y16953567D01*
X6745483Y16762490D01*
X6912490Y16595483D01*
X6947127Y16570317D01*
X6989792Y16514987D01*
X6995771Y16445374D01*
X6963165Y16383579D01*
X6947130Y16369685D01*
X6936853Y16362218D01*
X6912488Y16344516D01*
X6745485Y16177513D01*
X6745485Y16177512D01*
X6745483Y16177510D01*
X6685862Y16095450D01*
X6606657Y15986434D01*
X6499433Y15775997D01*
X6426446Y15551369D01*
X6389500Y15318098D01*
X6389500Y15081903D01*
X6426446Y14848632D01*
X6499433Y14624004D01*
X6606657Y14413567D01*
X6745483Y14222490D01*
X6912490Y14055483D01*
X6947127Y14030317D01*
X6989792Y13974987D01*
X6995771Y13905374D01*
X6963165Y13843579D01*
X6947130Y13829685D01*
X6929365Y13816778D01*
X6912488Y13804516D01*
X6745485Y13637513D01*
X6745485Y13637512D01*
X6745483Y13637510D01*
X6703728Y13580039D01*
X6606657Y13446434D01*
X6499433Y13235997D01*
X6426446Y13011369D01*
X6389500Y12778098D01*
X6389500Y12541903D01*
X6426446Y12308632D01*
X6499433Y12084004D01*
X6536662Y12010939D01*
X6606657Y11873567D01*
X6745483Y11682490D01*
X6912490Y11515483D01*
X6947127Y11490317D01*
X6989792Y11434987D01*
X6995771Y11365374D01*
X6963165Y11303579D01*
X6947130Y11289685D01*
X6929365Y11276778D01*
X6912488Y11264516D01*
X6745485Y11097513D01*
X6745485Y11097512D01*
X6745483Y11097510D01*
X6685862Y11015450D01*
X6606657Y10906434D01*
X6499433Y10695997D01*
X6426446Y10471369D01*
X6389500Y10238098D01*
X6389500Y10001903D01*
X6426446Y9768632D01*
X6499433Y9544004D01*
X6577503Y9390784D01*
X6606657Y9333567D01*
X6745483Y9142490D01*
X6912490Y8975483D01*
X6947127Y8950317D01*
X6989792Y8894987D01*
X6995771Y8825374D01*
X6963165Y8763579D01*
X6947130Y8749685D01*
X6929365Y8736778D01*
X6912488Y8724516D01*
X6745485Y8557513D01*
X6745485Y8557512D01*
X6745483Y8557510D01*
X6685862Y8475450D01*
X6606657Y8366434D01*
X6499433Y8155997D01*
X6426446Y7931369D01*
X6389500Y7698098D01*
X6389500Y7461903D01*
X6426446Y7228632D01*
X6499433Y7004004D01*
X6552681Y6899500D01*
X6606657Y6793567D01*
X6745483Y6602490D01*
X6912490Y6435483D01*
X6947127Y6410317D01*
X6989792Y6354987D01*
X6995771Y6285374D01*
X6963165Y6223579D01*
X6947130Y6209685D01*
X6946704Y6209375D01*
X6912488Y6184516D01*
X6745485Y6017513D01*
X6745485Y6017512D01*
X6745483Y6017510D01*
X6690851Y5942316D01*
X6606657Y5826434D01*
X6499433Y5615997D01*
X6426446Y5391369D01*
X6389500Y5158098D01*
X6389500Y4921903D01*
X6426446Y4688632D01*
X6499433Y4464004D01*
X6601921Y4262861D01*
X6606657Y4253567D01*
X6745483Y4062490D01*
X6912490Y3895483D01*
X6947127Y3870317D01*
X6989792Y3814987D01*
X6995771Y3745374D01*
X6963165Y3683579D01*
X6947130Y3669685D01*
X6929365Y3656778D01*
X6912488Y3644516D01*
X6745485Y3477513D01*
X6745485Y3477512D01*
X6745483Y3477510D01*
X6690229Y3401460D01*
X6606657Y3286434D01*
X6499433Y3075997D01*
X6426446Y2851369D01*
X6389500Y2618098D01*
X6389500Y2381903D01*
X6426446Y2148632D01*
X6499433Y1924004D01*
X6601921Y1722861D01*
X6606657Y1713567D01*
X6745483Y1522490D01*
X6912490Y1355483D01*
X7103567Y1216657D01*
X7202991Y1165998D01*
X7314003Y1109434D01*
X7314005Y1109434D01*
X7314008Y1109432D01*
X7434412Y1070311D01*
X7538631Y1036447D01*
X7771903Y999500D01*
X7771908Y999500D01*
X8508097Y999500D01*
X8741368Y1036447D01*
X8965992Y1109432D01*
X9176433Y1216657D01*
X9367510Y1355483D01*
X9475208Y1463181D01*
X9536531Y1496666D01*
X9562889Y1499500D01*
X15098543Y1499500D01*
X15131563Y1506069D01*
X15214118Y1522490D01*
X15291836Y1537949D01*
X15345165Y1560039D01*
X15473914Y1613368D01*
X15637782Y1722861D01*
X15777139Y1862218D01*
X15777139Y1862220D01*
X15787347Y1872427D01*
X15787348Y1872430D01*
X16777140Y2862219D01*
X16886632Y3026086D01*
X16962052Y3208165D01*
X17000501Y3401460D01*
X17000501Y3598541D01*
X17000501Y3603651D01*
X17000500Y3603677D01*
X17000500Y4787500D01*
X22162501Y4787500D01*
X22162501Y4675014D01*
X22172994Y4572303D01*
X22228141Y4405881D01*
X22228143Y4405876D01*
X22320184Y4256655D01*
X22444154Y4132685D01*
X22593375Y4040644D01*
X22593380Y4040642D01*
X22759802Y3985495D01*
X22759809Y3985494D01*
X22862519Y3975001D01*
X23287499Y3975001D01*
X23287500Y3975002D01*
X23287500Y4787500D01*
X23787500Y4787500D01*
X23787500Y3975001D01*
X24212472Y3975001D01*
X24212486Y3975002D01*
X24315197Y3985495D01*
X24481619Y4040642D01*
X24481624Y4040644D01*
X24630845Y4132685D01*
X24754815Y4256655D01*
X24846856Y4405876D01*
X24846858Y4405881D01*
X24902005Y4572303D01*
X24902006Y4572310D01*
X24912499Y4675014D01*
X24912500Y4675027D01*
X24912500Y4787500D01*
X23787500Y4787500D01*
X23287500Y4787500D01*
X22162501Y4787500D01*
X17000500Y4787500D01*
X17000500Y5000501D01*
X17020185Y5067540D01*
X17072989Y5113295D01*
X17124495Y5124501D01*
X17825008Y5124501D01*
X17825016Y5124502D01*
X17825019Y5124502D01*
X17881302Y5130252D01*
X17927797Y5135001D01*
X18094334Y5190186D01*
X18243656Y5282288D01*
X18248868Y5287500D01*
X22162500Y5287500D01*
X23287500Y5287500D01*
X23287500Y6100000D01*
X23787500Y6100000D01*
X23787500Y5287500D01*
X24912499Y5287500D01*
X24912499Y5399972D01*
X24912498Y5399987D01*
X24902005Y5502698D01*
X24846858Y5669120D01*
X24846856Y5669125D01*
X24754815Y5818346D01*
X24630845Y5942316D01*
X24481624Y6034357D01*
X24481619Y6034359D01*
X24315197Y6089506D01*
X24315190Y6089507D01*
X24212486Y6100000D01*
X23787500Y6100000D01*
X23287500Y6100000D01*
X22862528Y6100000D01*
X22862512Y6099999D01*
X22759802Y6089506D01*
X22593380Y6034359D01*
X22593375Y6034357D01*
X22444154Y5942316D01*
X22320184Y5818346D01*
X22228143Y5669125D01*
X22228141Y5669120D01*
X22172994Y5502698D01*
X22172993Y5502691D01*
X22162500Y5399987D01*
X22162500Y5287500D01*
X18248868Y5287500D01*
X18367712Y5406344D01*
X18459814Y5555666D01*
X18514999Y5722203D01*
X18525500Y5824991D01*
X18525499Y6450272D01*
X18545183Y6517310D01*
X18561813Y6537947D01*
X19582951Y7559084D01*
X19665084Y7682005D01*
X19721658Y7818587D01*
X19736895Y7895185D01*
X19750500Y7963580D01*
X19750500Y12130172D01*
X19755424Y12164767D01*
X19797597Y12309927D01*
X19797598Y12309933D01*
X19800499Y12346799D01*
X19800500Y12346806D01*
X19800500Y12750000D01*
X20100000Y12750000D01*
X20100000Y12346851D01*
X20102899Y12310011D01*
X20102900Y12310005D01*
X20148716Y12152307D01*
X20148717Y12152304D01*
X20232314Y12010948D01*
X20232321Y12010939D01*
X20348438Y11894822D01*
X20348447Y11894815D01*
X20489801Y11811219D01*
X20647514Y11765400D01*
X20647511Y11765400D01*
X20649998Y11765205D01*
X20650000Y11765205D01*
X20650000Y12750000D01*
X21150000Y12750000D01*
X21150000Y11765205D01*
X21150001Y11765205D01*
X21152486Y11765400D01*
X21310198Y11811219D01*
X21451552Y11894815D01*
X21451561Y11894822D01*
X21567678Y12010939D01*
X21567685Y12010948D01*
X21651282Y12152304D01*
X21651283Y12152307D01*
X21697099Y12310005D01*
X21697100Y12310011D01*
X21699999Y12346851D01*
X21700000Y12346866D01*
X21700000Y12750000D01*
X21150000Y12750000D01*
X20650000Y12750000D01*
X20100000Y12750000D01*
X19800500Y12750000D01*
X19800500Y13513000D01*
X19820185Y13580039D01*
X19872989Y13625794D01*
X19924500Y13637000D01*
X19976000Y13637000D01*
X20043039Y13617315D01*
X20088794Y13564511D01*
X20100000Y13513000D01*
X20100000Y13250000D01*
X20650000Y13250000D01*
X20650000Y13905686D01*
X20667267Y13968806D01*
X20701744Y14027102D01*
X20747598Y14184931D01*
X20750500Y14221806D01*
X20750500Y14234797D01*
X21150000Y14234797D01*
X21150000Y13250000D01*
X21700000Y13250000D01*
X21700000Y13653135D01*
X21699999Y13653150D01*
X21697100Y13689990D01*
X21697099Y13689996D01*
X21651283Y13847694D01*
X21651282Y13847697D01*
X21567685Y13989053D01*
X21567678Y13989062D01*
X21451561Y14105179D01*
X21451552Y14105186D01*
X21310196Y14188783D01*
X21310193Y14188784D01*
X21152494Y14234600D01*
X21152497Y14234600D01*
X21150000Y14234797D01*
X20750500Y14234797D01*
X20750500Y15528194D01*
X20747598Y15565069D01*
X20747597Y15565074D01*
X20705424Y15710235D01*
X20700500Y15744830D01*
X20700500Y16285390D01*
X20720185Y16352429D01*
X20725228Y16359359D01*
X20727136Y16362216D01*
X20727139Y16362218D01*
X20836632Y16526086D01*
X20912051Y16708165D01*
X20950500Y16901459D01*
X20950500Y19484219D01*
X20970185Y19551258D01*
X20986815Y19571896D01*
X21637778Y20222859D01*
X21637782Y20222861D01*
X21777139Y20362218D01*
X21886632Y20526086D01*
X21962051Y20708165D01*
X22000500Y20901459D01*
X22000500Y30505623D01*
X22020185Y30572662D01*
X22059406Y30611163D01*
X22093656Y30632288D01*
X22217712Y30756344D01*
X22309814Y30905666D01*
X22364999Y31072203D01*
X22375500Y31174991D01*
X22375499Y31900008D01*
X22364999Y32002797D01*
X22309814Y32169334D01*
X22217712Y32318656D01*
X22093656Y32442712D01*
X21944334Y32534814D01*
X21777797Y32589999D01*
X21777795Y32590000D01*
X21675010Y32600500D01*
X20324998Y32600500D01*
X20324981Y32600499D01*
X20222203Y32590000D01*
X20222200Y32589999D01*
X20055668Y32534815D01*
X20055663Y32534813D01*
X20039933Y32525111D01*
X20029963Y32518961D01*
X19964868Y32500500D01*
X16713392Y32500500D01*
X16646353Y32520185D01*
X16600598Y32572989D01*
X16590654Y32642147D01*
X16619679Y32705703D01*
X16634725Y32720352D01*
X16637776Y32722858D01*
X16637782Y32722861D01*
X16777139Y32862218D01*
X16777139Y32862220D01*
X16787347Y32872427D01*
X16787348Y32872430D01*
X17777140Y33862219D01*
X17886632Y34026086D01*
X17962052Y34208165D01*
X18000501Y34401460D01*
X18000501Y34598541D01*
X18000501Y34603651D01*
X18000500Y34603677D01*
X18000500Y40098544D01*
X17962052Y40291830D01*
X17962051Y40291831D01*
X17962051Y40291835D01*
X17925964Y40378957D01*
X17886635Y40473908D01*
X17886628Y40473921D01*
X17777139Y40637782D01*
X17777136Y40637786D01*
X17634686Y40780236D01*
X17634655Y40780265D01*
X15536819Y42878101D01*
X15503334Y42939424D01*
X15500500Y42965782D01*
X15500500Y46534218D01*
X15520185Y46601257D01*
X15536819Y46621899D01*
X16878101Y47963181D01*
X16939424Y47996666D01*
X16965782Y47999500D01*
X17994218Y47999500D01*
X18061257Y47979815D01*
X18081899Y47963181D01*
X18335023Y47710057D01*
X18368508Y47648734D01*
X18363524Y47579042D01*
X18321652Y47523109D01*
X18256188Y47498692D01*
X18226941Y47500066D01*
X18224339Y47500500D01*
X18224335Y47500500D01*
X17975665Y47500500D01*
X17730383Y47459571D01*
X17495197Y47378831D01*
X17495188Y47378828D01*
X17276493Y47260476D01*
X17080257Y47107739D01*
X16911833Y46924783D01*
X16775826Y46716607D01*
X16675936Y46488882D01*
X16614892Y46247825D01*
X16614890Y46247813D01*
X16594357Y46000006D01*
X16594357Y45999995D01*
X16614890Y45752188D01*
X16614892Y45752176D01*
X16675936Y45511119D01*
X16775826Y45283394D01*
X16911833Y45075218D01*
X16911836Y45075215D01*
X17066730Y44906955D01*
X17097652Y44844302D01*
X17099500Y44822973D01*
X17099500Y43801456D01*
X17137947Y43608167D01*
X17137949Y43608163D01*
X17160038Y43554836D01*
X17213366Y43426089D01*
X17213371Y43426080D01*
X17322859Y43262220D01*
X17322860Y43262219D01*
X17322861Y43262218D01*
X17462218Y43122861D01*
X17462219Y43122861D01*
X17469286Y43115794D01*
X17469285Y43115794D01*
X17469289Y43115791D01*
X18963181Y41621899D01*
X18996666Y41560576D01*
X18999500Y41534218D01*
X18999500Y35363959D01*
X18999500Y35363957D01*
X18999499Y35363957D01*
X19037947Y35170671D01*
X19037950Y35170661D01*
X19113364Y34988593D01*
X19113371Y34988580D01*
X19222859Y34824720D01*
X19222860Y34824719D01*
X19222861Y34824718D01*
X19362218Y34685361D01*
X19362219Y34685361D01*
X19369286Y34678294D01*
X19369285Y34678294D01*
X19369289Y34678291D01*
X19588181Y34459399D01*
X19621666Y34398076D01*
X19624500Y34371718D01*
X19624500Y34100000D01*
X19624501Y34099981D01*
X19635000Y33997204D01*
X19635001Y33997201D01*
X19679730Y33862220D01*
X19690186Y33830666D01*
X19782288Y33681344D01*
X19906344Y33557288D01*
X20055666Y33465186D01*
X20222203Y33410001D01*
X20324991Y33399500D01*
X21675008Y33399501D01*
X21777797Y33410001D01*
X21944334Y33465186D01*
X22093656Y33557288D01*
X22217712Y33681344D01*
X22309814Y33830666D01*
X22364999Y33997203D01*
X22375500Y34099991D01*
X22375499Y34825008D01*
X22370075Y34878102D01*
X22364999Y34927797D01*
X22364998Y34927800D01*
X22339984Y35003287D01*
X22309814Y35094334D01*
X22217712Y35243656D01*
X22093656Y35367712D01*
X21944334Y35459814D01*
X21777797Y35514999D01*
X21777795Y35515000D01*
X21675016Y35525500D01*
X21675009Y35525500D01*
X21403282Y35525500D01*
X21336243Y35545185D01*
X21315601Y35561819D01*
X21036819Y35840602D01*
X21003334Y35901925D01*
X21000500Y35928283D01*
X21000500Y42098544D01*
X20962052Y42291830D01*
X20962051Y42291831D01*
X20962051Y42291835D01*
X20945766Y42331151D01*
X20886635Y42473908D01*
X20886628Y42473921D01*
X20777140Y42637781D01*
X20777139Y42637782D01*
X20637782Y42777139D01*
X20637781Y42777140D01*
X19136819Y44278102D01*
X19103334Y44339425D01*
X19100500Y44365783D01*
X19100500Y44822973D01*
X19120185Y44890012D01*
X19133265Y44906951D01*
X19288164Y45075215D01*
X19424173Y45283393D01*
X19524063Y45511119D01*
X19585108Y45752179D01*
X19591577Y45830249D01*
X19605643Y45999995D01*
X19605643Y46000006D01*
X19593874Y46142028D01*
X19607954Y46210464D01*
X19656799Y46260423D01*
X19724901Y46276044D01*
X19790636Y46252367D01*
X19805130Y46239950D01*
X21431393Y44613686D01*
X23023427Y43021652D01*
X23056912Y42960329D01*
X23059322Y42944211D01*
X23073864Y42768703D01*
X23073866Y42768692D01*
X23130842Y42543700D01*
X23224075Y42331152D01*
X23351016Y42136853D01*
X23351019Y42136849D01*
X23351021Y42136847D01*
X23508216Y41966087D01*
X23508219Y41966085D01*
X23508222Y41966082D01*
X23691365Y41823536D01*
X23691371Y41823532D01*
X23691374Y41823530D01*
X23895497Y41713064D01*
X24009487Y41673932D01*
X24115015Y41637703D01*
X24115017Y41637703D01*
X24115019Y41637702D01*
X24343951Y41599500D01*
X24343952Y41599500D01*
X24576048Y41599500D01*
X24576049Y41599500D01*
X24804981Y41637702D01*
X25024503Y41713064D01*
X25228626Y41823530D01*
X25411784Y41966087D01*
X25420130Y41975154D01*
X25480010Y42011146D01*
X25549849Y42009051D01*
X25607468Y41969531D01*
X25627544Y41934509D01*
X25656203Y41857670D01*
X25656206Y41857665D01*
X25742452Y41742456D01*
X25742455Y41742453D01*
X25857664Y41656207D01*
X25857669Y41656204D01*
X25918833Y41633392D01*
X25974766Y41591522D01*
X25999184Y41526058D01*
X25999500Y41517210D01*
X25999500Y39965783D01*
X25979815Y39898744D01*
X25963181Y39878102D01*
X24842844Y38757765D01*
X23862221Y37777142D01*
X23862218Y37777139D01*
X23792538Y37707460D01*
X23722859Y37637781D01*
X23613371Y37473921D01*
X23613364Y37473908D01*
X23537950Y37291840D01*
X23537947Y37291830D01*
X23499500Y37098544D01*
X23499500Y9390784D01*
X23479815Y9323745D01*
X23463181Y9303103D01*
X23221896Y9061819D01*
X23160573Y9028334D01*
X23134215Y9025500D01*
X22862499Y9025500D01*
X22862480Y9025499D01*
X22759703Y9015000D01*
X22759700Y9014999D01*
X22593168Y8959815D01*
X22593163Y8959813D01*
X22443842Y8867711D01*
X22319789Y8743658D01*
X22227687Y8594337D01*
X22227686Y8594334D01*
X22172501Y8427797D01*
X22172501Y8427796D01*
X22172500Y8427796D01*
X22162000Y8325017D01*
X22162000Y7599999D01*
X22162001Y7599981D01*
X22172500Y7497204D01*
X22172501Y7497201D01*
X22227685Y7330669D01*
X22227686Y7330666D01*
X22319788Y7181344D01*
X22443844Y7057288D01*
X22593166Y6965186D01*
X22759703Y6910001D01*
X22862491Y6899500D01*
X24212508Y6899501D01*
X24315297Y6910001D01*
X24481834Y6965186D01*
X24631156Y7057288D01*
X24755212Y7181344D01*
X24847314Y7330666D01*
X24902499Y7497203D01*
X24913000Y7599991D01*
X24912999Y7871718D01*
X24932683Y7938756D01*
X24949313Y7959394D01*
X25277140Y8287219D01*
X25386632Y8451086D01*
X25462052Y8633165D01*
X25500501Y8826460D01*
X25500501Y9023541D01*
X25500501Y9028651D01*
X25500500Y9028677D01*
X25500500Y36534219D01*
X25520185Y36601258D01*
X25536814Y36621895D01*
X27637778Y38722859D01*
X27637782Y38722861D01*
X27777139Y38862218D01*
X27886632Y39026086D01*
X27962051Y39208165D01*
X28000500Y39401459D01*
X28000500Y41517210D01*
X28020185Y41584249D01*
X28072989Y41630004D01*
X28081146Y41633384D01*
X28142331Y41656204D01*
X28257546Y41742454D01*
X28343796Y41857669D01*
X28394091Y41992517D01*
X28400500Y42052127D01*
X28400499Y43947872D01*
X28394091Y44007483D01*
X28384233Y44033913D01*
X28343797Y44142329D01*
X28343793Y44142336D01*
X28257547Y44257545D01*
X28257544Y44257548D01*
X28142335Y44343794D01*
X28142328Y44343798D01*
X28007482Y44394092D01*
X28007483Y44394092D01*
X27947883Y44400499D01*
X27947881Y44400500D01*
X27947873Y44400500D01*
X27947864Y44400500D01*
X26052129Y44400500D01*
X26052123Y44400499D01*
X25992516Y44394092D01*
X25857671Y44343798D01*
X25857664Y44343794D01*
X25742455Y44257548D01*
X25742452Y44257545D01*
X25656206Y44142336D01*
X25656203Y44142330D01*
X25627544Y44065492D01*
X25585672Y44009559D01*
X25520208Y43985142D01*
X25451935Y43999994D01*
X25420135Y44024842D01*
X25411784Y44033913D01*
X25411778Y44033918D01*
X25411777Y44033919D01*
X25228634Y44176465D01*
X25228628Y44176469D01*
X25024504Y44286936D01*
X25024495Y44286939D01*
X24804984Y44362298D01*
X24614450Y44394092D01*
X24576049Y44400500D01*
X24576048Y44400500D01*
X24525783Y44400500D01*
X24458744Y44420185D01*
X24438102Y44436819D01*
X19244209Y49630711D01*
X19244206Y49630715D01*
X19244206Y49630714D01*
X19237139Y49637781D01*
X19237139Y49637782D01*
X19097782Y49777139D01*
X19097781Y49777140D01*
X19097780Y49777141D01*
X18933920Y49886629D01*
X18933911Y49886634D01*
X18850683Y49921108D01*
X18805165Y49939962D01*
X18778500Y49951007D01*
X18751837Y49962051D01*
X18751833Y49962052D01*
X18626756Y49986931D01*
X18558543Y50000500D01*
X18558541Y50000500D01*
X16401459Y50000500D01*
X16401457Y50000500D01*
X16333244Y49986931D01*
X16333243Y49986931D01*
X16208167Y49962053D01*
X16208159Y49962050D01*
X16154834Y49939963D01*
X16154834Y49939962D01*
X16109315Y49921108D01*
X16026089Y49886634D01*
X16026079Y49886629D01*
X15862219Y49777141D01*
X15818416Y49733337D01*
X15722861Y49637782D01*
X15722858Y49637779D01*
X13862221Y47777142D01*
X13862218Y47777139D01*
X13795136Y47710057D01*
X13722859Y47637781D01*
X13613371Y47473921D01*
X13613364Y47473908D01*
X13565167Y47357546D01*
X13544714Y47308167D01*
X13544713Y47308163D01*
X13537948Y47291833D01*
X13537947Y47291829D01*
X13499500Y47098546D01*
X13499500Y42401458D01*
X13513485Y42331152D01*
X13513485Y42331151D01*
X13527300Y42261697D01*
X13537946Y42208172D01*
X13537949Y42208163D01*
X13613364Y42026093D01*
X13613371Y42026080D01*
X13722860Y41862219D01*
X13722863Y41862215D01*
X13866537Y41718541D01*
X13866559Y41718521D01*
X15963181Y39621899D01*
X15996666Y39560576D01*
X15999500Y39534218D01*
X15999500Y34965783D01*
X15979815Y34898744D01*
X15963181Y34878102D01*
X15621899Y34536819D01*
X15560576Y34503334D01*
X15534218Y34500500D01*
X14974500Y34500500D01*
X14907461Y34520185D01*
X14861706Y34572989D01*
X14850500Y34624500D01*
X14850499Y35450002D01*
X14850498Y35450020D01*
X14839999Y35552797D01*
X14839998Y35552800D01*
X14824840Y35598544D01*
X14784814Y35719334D01*
X14692712Y35868656D01*
X14568656Y35992712D01*
X14419334Y36084814D01*
X14252797Y36139999D01*
X14252795Y36140000D01*
X14150016Y36150500D01*
X14150009Y36150500D01*
X14124500Y36150500D01*
X14057461Y36170185D01*
X14011706Y36222989D01*
X14000500Y36274500D01*
X14000500Y38076044D01*
X13962052Y38269330D01*
X13962051Y38269331D01*
X13962051Y38269335D01*
X13962049Y38269340D01*
X13886635Y38451408D01*
X13886628Y38451421D01*
X13777139Y38615282D01*
X13777136Y38615286D01*
X13634686Y38757736D01*
X13634655Y38757765D01*
X11536819Y40855601D01*
X11503334Y40916924D01*
X11500500Y40943282D01*
X11500500Y44383024D01*
X11520185Y44450063D01*
X11572989Y44495818D01*
X11600135Y44503264D01*
X11599932Y44504124D01*
X11607479Y44505908D01*
X11607481Y44505909D01*
X11607483Y44505909D01*
X11742331Y44556204D01*
X11857546Y44642454D01*
X11943796Y44757669D01*
X11994091Y44892517D01*
X12000500Y44952127D01*
X12000499Y47047872D01*
X11994091Y47107483D01*
X11943796Y47242331D01*
X11943795Y47242332D01*
X11943793Y47242336D01*
X11857546Y47357546D01*
X11852686Y47362406D01*
X11819201Y47423729D01*
X11824185Y47493421D01*
X11852684Y47537766D01*
X11928586Y47613668D01*
X11968808Y47640544D01*
X12023914Y47663368D01*
X12187782Y47772861D01*
X12327139Y47912218D01*
X12327140Y47912221D01*
X12334206Y47919286D01*
X12334208Y47919290D01*
X15378101Y50963181D01*
X15439424Y50996666D01*
X15465782Y50999500D01*
X20034218Y50999500D01*
X20101257Y50979815D01*
X20121899Y50963181D01*
X20760172Y50324908D01*
X20760201Y50324877D01*
X20902651Y50182427D01*
X20902655Y50182424D01*
X21066516Y50072935D01*
X21066529Y50072928D01*
X21195270Y50019602D01*
X21215077Y50011398D01*
X21248601Y49997512D01*
X21345249Y49978288D01*
X21393572Y49968676D01*
X21441895Y49959063D01*
X21441896Y49959063D01*
X21441897Y49959063D01*
X21638977Y49959063D01*
X22064949Y49959063D01*
X22131988Y49939378D01*
X22175434Y49891358D01*
X22216955Y49809869D01*
X22333761Y49649099D01*
X22474278Y49508582D01*
X22635048Y49391776D01*
X22721891Y49347528D01*
X22812109Y49301558D01*
X22812112Y49301557D01*
X22906608Y49270854D01*
X23001106Y49240150D01*
X23197381Y49209063D01*
X23197382Y49209063D01*
X23396102Y49209063D01*
X23396103Y49209063D01*
X23592378Y49240150D01*
X23781374Y49301558D01*
X23958436Y49391776D01*
X24119206Y49508582D01*
X24259723Y49649099D01*
X24376529Y49809869D01*
X24456257Y49966345D01*
X24504232Y50017140D01*
X24572053Y50033935D01*
X24638188Y50011398D01*
X24677226Y49966345D01*
X24690669Y49939962D01*
X24756957Y49809865D01*
X24812559Y49733337D01*
X24836040Y49667531D01*
X24836242Y49660451D01*
X24836242Y49117827D01*
X24836242Y49117825D01*
X24836241Y49117825D01*
X24874689Y48924539D01*
X24874692Y48924529D01*
X24950106Y48742461D01*
X24950113Y48742448D01*
X25059602Y48578587D01*
X25059605Y48578583D01*
X25203279Y48434909D01*
X25203301Y48434889D01*
X28963181Y44675009D01*
X28996666Y44613686D01*
X28999500Y44587328D01*
X28999500Y38965783D01*
X28979815Y38898744D01*
X28963181Y38878102D01*
X26362220Y36277141D01*
X26362218Y36277139D01*
X26308068Y36222989D01*
X26222859Y36137781D01*
X26113371Y35973921D01*
X26113364Y35973908D01*
X26037950Y35791840D01*
X26037947Y35791830D01*
X25999500Y35598544D01*
X25999500Y35598541D01*
X25999500Y9731459D01*
X25999500Y9731457D01*
X25999499Y9731457D01*
X26037947Y9538171D01*
X26037950Y9538161D01*
X26113364Y9356093D01*
X26113371Y9356080D01*
X26222859Y9192220D01*
X26222860Y9192219D01*
X26222861Y9192218D01*
X26362218Y9052861D01*
X26362219Y9052861D01*
X26369286Y9045794D01*
X26369285Y9045794D01*
X26369289Y9045791D01*
X28612215Y6802863D01*
X28612219Y6802860D01*
X28776079Y6693372D01*
X28776085Y6693369D01*
X28776086Y6693368D01*
X28958165Y6617948D01*
X29151455Y6579500D01*
X29151458Y6579499D01*
X29151460Y6579499D01*
X29354655Y6579499D01*
X29354675Y6579500D01*
X29577111Y6579500D01*
X29644150Y6559815D01*
X29664792Y6543181D01*
X29772490Y6435483D01*
X29807553Y6410008D01*
X29850217Y6354681D01*
X29856196Y6285067D01*
X29823591Y6223272D01*
X29807554Y6209376D01*
X29772819Y6184139D01*
X29772813Y6184134D01*
X29605866Y6017187D01*
X29467085Y5826172D01*
X29359897Y5615803D01*
X29286934Y5391248D01*
X29270898Y5290000D01*
X30566988Y5290000D01*
X30534075Y5232993D01*
X30500000Y5105826D01*
X30500000Y4974174D01*
X30534075Y4847007D01*
X30566988Y4790000D01*
X29270898Y4790000D01*
X29286934Y4688753D01*
X29359897Y4464198D01*
X29467085Y4253829D01*
X29605866Y4062814D01*
X29772815Y3895865D01*
X29807551Y3870628D01*
X29850217Y3815298D01*
X29856196Y3745685D01*
X29823591Y3683889D01*
X29807552Y3669992D01*
X29772496Y3644522D01*
X29772487Y3644515D01*
X29605485Y3477513D01*
X29605485Y3477512D01*
X29605483Y3477510D01*
X29550229Y3401460D01*
X29466657Y3286434D01*
X29359433Y3075997D01*
X29286446Y2851369D01*
X29249500Y2618098D01*
X29249500Y2381903D01*
X29286446Y2148632D01*
X29359433Y1924004D01*
X29461921Y1722861D01*
X29466657Y1713567D01*
X29605483Y1522490D01*
X29772490Y1355483D01*
X29963567Y1216657D01*
X30062991Y1165998D01*
X30174003Y1109434D01*
X30174005Y1109434D01*
X30174008Y1109432D01*
X30294412Y1070311D01*
X30398631Y1036447D01*
X30631903Y999500D01*
X30631908Y999500D01*
X31368097Y999500D01*
X31601368Y1036447D01*
X31825992Y1109432D01*
X32036433Y1216657D01*
X32227510Y1355483D01*
X32394517Y1522490D01*
X32533343Y1713567D01*
X32640568Y1924008D01*
X32713553Y2148632D01*
X32750500Y2381903D01*
X32750500Y2618098D01*
X32713553Y2851369D01*
X32656783Y3026086D01*
X32640568Y3075992D01*
X32640566Y3075995D01*
X32640566Y3075997D01*
X32584002Y3187009D01*
X32533343Y3286433D01*
X32394517Y3477510D01*
X32227510Y3644517D01*
X32192447Y3669992D01*
X32149782Y3725321D01*
X32143803Y3794934D01*
X32176409Y3856729D01*
X32192450Y3870629D01*
X32227182Y3895863D01*
X32394133Y4062814D01*
X32532914Y4253829D01*
X32640102Y4464198D01*
X32713065Y4688753D01*
X32729102Y4790000D01*
X31433012Y4790000D01*
X31465925Y4847007D01*
X31500000Y4974174D01*
X31500000Y5105826D01*
X31465925Y5232993D01*
X31433012Y5290000D01*
X32729102Y5290000D01*
X32713065Y5391248D01*
X32640102Y5615803D01*
X32532914Y5826172D01*
X32394133Y6017187D01*
X32227183Y6184137D01*
X32192446Y6209375D01*
X32149781Y6264705D01*
X32143803Y6334319D01*
X32176410Y6396113D01*
X32192439Y6410003D01*
X32227510Y6435483D01*
X32394517Y6602490D01*
X32533343Y6793567D01*
X32640568Y7004008D01*
X32713553Y7228632D01*
X32721340Y7277797D01*
X32750500Y7461903D01*
X32750500Y7698098D01*
X32713553Y7931369D01*
X32640566Y8155997D01*
X32584002Y8267009D01*
X32533343Y8366433D01*
X32394517Y8557510D01*
X32227510Y8724517D01*
X32192872Y8749683D01*
X32150207Y8805011D01*
X32144228Y8874625D01*
X32176833Y8936420D01*
X32192873Y8950318D01*
X32227510Y8975483D01*
X32394517Y9142490D01*
X32533343Y9333567D01*
X32640568Y9544008D01*
X32713553Y9768632D01*
X32750500Y10001903D01*
X32750500Y10238098D01*
X32713553Y10471369D01*
X32640566Y10695997D01*
X32533342Y10906434D01*
X32394517Y11097510D01*
X32227510Y11264517D01*
X32192872Y11289683D01*
X32150207Y11345011D01*
X32144228Y11414625D01*
X32176833Y11476420D01*
X32192873Y11490318D01*
X32227510Y11515483D01*
X32394517Y11682490D01*
X32533343Y11873567D01*
X32640568Y12084008D01*
X32713553Y12308632D01*
X32719599Y12346806D01*
X32750500Y12541903D01*
X32750500Y12778098D01*
X32713553Y13011369D01*
X32640566Y13235997D01*
X32533342Y13446434D01*
X32394517Y13637510D01*
X32227510Y13804517D01*
X32192872Y13829683D01*
X32150207Y13885011D01*
X32144228Y13954625D01*
X32176833Y14016420D01*
X32192873Y14030318D01*
X32227510Y14055483D01*
X32394517Y14222490D01*
X32533343Y14413567D01*
X32640568Y14624008D01*
X32713553Y14848632D01*
X32750500Y15081903D01*
X32750500Y15318098D01*
X32713553Y15551369D01*
X32657819Y15722898D01*
X32640568Y15775992D01*
X32640566Y15775995D01*
X32640566Y15775997D01*
X32533342Y15986434D01*
X32394517Y16177510D01*
X32227510Y16344517D01*
X32192872Y16369683D01*
X32150207Y16425011D01*
X32144228Y16494625D01*
X32176833Y16556420D01*
X32192873Y16570318D01*
X32227510Y16595483D01*
X32394517Y16762490D01*
X32533343Y16953567D01*
X32640568Y17164008D01*
X32713553Y17388632D01*
X32750500Y17621903D01*
X32750500Y17858098D01*
X32713553Y18091369D01*
X32640566Y18315997D01*
X32533342Y18526434D01*
X32394517Y18717510D01*
X32227510Y18884517D01*
X32192872Y18909683D01*
X32150207Y18965011D01*
X32144228Y19034625D01*
X32176833Y19096420D01*
X32192873Y19110318D01*
X32227510Y19135483D01*
X32394517Y19302490D01*
X32533343Y19493567D01*
X32640568Y19704008D01*
X32713553Y19928632D01*
X32732545Y20048544D01*
X32750500Y20161903D01*
X32750500Y20398098D01*
X32713553Y20631369D01*
X32640566Y20855997D01*
X32533342Y21066434D01*
X32394517Y21257510D01*
X32227510Y21424517D01*
X32192872Y21449683D01*
X32150207Y21505011D01*
X32144228Y21574625D01*
X32176833Y21636420D01*
X32192873Y21650318D01*
X32227510Y21675483D01*
X32394517Y21842490D01*
X32533343Y22033567D01*
X32640568Y22244008D01*
X32713553Y22468632D01*
X32750500Y22701903D01*
X32750500Y22938098D01*
X32713553Y23171369D01*
X32640566Y23395997D01*
X32533342Y23606434D01*
X32394517Y23797510D01*
X32227510Y23964517D01*
X32192872Y23989683D01*
X32150207Y24045011D01*
X32144228Y24114625D01*
X32176833Y24176420D01*
X32192873Y24190318D01*
X32227510Y24215483D01*
X32394517Y24382490D01*
X32533343Y24573567D01*
X32640568Y24784008D01*
X32713553Y25008632D01*
X32750500Y25241903D01*
X32750500Y25478098D01*
X32713553Y25711369D01*
X32640566Y25935997D01*
X32533342Y26146434D01*
X32394517Y26337510D01*
X32227510Y26504517D01*
X32192872Y26529683D01*
X32150207Y26585011D01*
X32144228Y26654625D01*
X32176833Y26716420D01*
X32192873Y26730318D01*
X32227510Y26755483D01*
X32394517Y26922490D01*
X32533343Y27113567D01*
X32640568Y27324008D01*
X32713553Y27548632D01*
X32750500Y27781903D01*
X32750500Y28018098D01*
X32713553Y28251369D01*
X32640566Y28475997D01*
X32533342Y28686434D01*
X32394517Y28877510D01*
X32227510Y29044517D01*
X32192872Y29069683D01*
X32150207Y29125011D01*
X32144228Y29194625D01*
X32176833Y29256420D01*
X32192873Y29270318D01*
X32227510Y29295483D01*
X32394517Y29462490D01*
X32533343Y29653567D01*
X32640568Y29864008D01*
X32713553Y30088632D01*
X32750500Y30321903D01*
X32750500Y30558098D01*
X32713553Y30791369D01*
X32662919Y30947203D01*
X32640568Y31015992D01*
X32640566Y31015995D01*
X32640566Y31015997D01*
X32584002Y31127009D01*
X32533343Y31226433D01*
X32394517Y31417510D01*
X32227510Y31584517D01*
X32192872Y31609683D01*
X32150207Y31665011D01*
X32144228Y31734625D01*
X32176833Y31796420D01*
X32192873Y31810318D01*
X32227510Y31835483D01*
X32394517Y32002490D01*
X32533343Y32193567D01*
X32640568Y32404008D01*
X32713553Y32628632D01*
X32728080Y32720352D01*
X32750500Y32861903D01*
X32750500Y33098098D01*
X32713553Y33331369D01*
X32653278Y33516874D01*
X32640568Y33555992D01*
X32640566Y33555995D01*
X32640566Y33555997D01*
X32584002Y33667009D01*
X32533343Y33766433D01*
X32394517Y33957510D01*
X32227510Y34124517D01*
X32036433Y34263343D01*
X32009355Y34277140D01*
X31825996Y34370567D01*
X31601368Y34443554D01*
X31368097Y34480500D01*
X31368092Y34480500D01*
X30631908Y34480500D01*
X30631903Y34480500D01*
X30398631Y34443554D01*
X30174003Y34370567D01*
X29963566Y34263343D01*
X29887632Y34208173D01*
X29772490Y34124517D01*
X29772488Y34124515D01*
X29772487Y34124515D01*
X29605485Y33957513D01*
X29605485Y33957512D01*
X29605483Y33957510D01*
X29545862Y33875450D01*
X29466657Y33766434D01*
X29359433Y33555997D01*
X29286446Y33331369D01*
X29249500Y33098098D01*
X29249500Y32861903D01*
X29286446Y32628632D01*
X29359433Y32404004D01*
X29403668Y32317189D01*
X29466657Y32193567D01*
X29605483Y32002490D01*
X29772490Y31835483D01*
X29807127Y31810317D01*
X29849792Y31754987D01*
X29855771Y31685374D01*
X29823165Y31623579D01*
X29807130Y31609685D01*
X29789365Y31596778D01*
X29772488Y31584516D01*
X29605485Y31417513D01*
X29605485Y31417512D01*
X29605483Y31417510D01*
X29545862Y31335450D01*
X29466657Y31226434D01*
X29359433Y31015997D01*
X29286446Y30791369D01*
X29249500Y30558098D01*
X29249500Y30321903D01*
X29286446Y30088632D01*
X29359433Y29864004D01*
X29403668Y29777189D01*
X29466657Y29653567D01*
X29605483Y29462490D01*
X29772490Y29295483D01*
X29807127Y29270317D01*
X29849792Y29214987D01*
X29855771Y29145374D01*
X29823165Y29083579D01*
X29807130Y29069685D01*
X29789365Y29056778D01*
X29772488Y29044516D01*
X29605485Y28877513D01*
X29605485Y28877512D01*
X29605483Y28877510D01*
X29545862Y28795450D01*
X29466657Y28686434D01*
X29359433Y28475997D01*
X29286446Y28251369D01*
X29249500Y28018098D01*
X29249500Y27781903D01*
X29286446Y27548632D01*
X29359433Y27324004D01*
X29466657Y27113567D01*
X29605483Y26922490D01*
X29772490Y26755483D01*
X29807127Y26730317D01*
X29849792Y26674987D01*
X29855771Y26605374D01*
X29823165Y26543579D01*
X29807130Y26529685D01*
X29789365Y26516778D01*
X29772488Y26504516D01*
X29605485Y26337513D01*
X29605485Y26337512D01*
X29605483Y26337510D01*
X29545862Y26255450D01*
X29466657Y26146434D01*
X29359433Y25935997D01*
X29286446Y25711369D01*
X29249500Y25478098D01*
X29249500Y25241903D01*
X29286446Y25008632D01*
X29359433Y24784004D01*
X29453932Y24598541D01*
X29466657Y24573567D01*
X29605483Y24382490D01*
X29772490Y24215483D01*
X29807127Y24190317D01*
X29849792Y24134987D01*
X29855771Y24065374D01*
X29823165Y24003579D01*
X29807130Y23989685D01*
X29789365Y23976778D01*
X29772488Y23964516D01*
X29605485Y23797513D01*
X29605485Y23797512D01*
X29605483Y23797510D01*
X29545862Y23715450D01*
X29466657Y23606434D01*
X29359433Y23395997D01*
X29286446Y23171369D01*
X29249500Y22938098D01*
X29249500Y22701903D01*
X29286446Y22468632D01*
X29359433Y22244004D01*
X29466657Y22033567D01*
X29605483Y21842490D01*
X29772490Y21675483D01*
X29807127Y21650317D01*
X29849792Y21594987D01*
X29855771Y21525374D01*
X29823165Y21463579D01*
X29807130Y21449685D01*
X29789365Y21436778D01*
X29772488Y21424516D01*
X29605485Y21257513D01*
X29605485Y21257512D01*
X29605483Y21257510D01*
X29545862Y21175450D01*
X29466657Y21066434D01*
X29359433Y20855997D01*
X29286446Y20631369D01*
X29249500Y20398098D01*
X29249500Y20161903D01*
X29286446Y19928632D01*
X29359433Y19704004D01*
X29426744Y19571900D01*
X29466657Y19493567D01*
X29605483Y19302490D01*
X29772490Y19135483D01*
X29807127Y19110317D01*
X29849792Y19054987D01*
X29855771Y18985374D01*
X29823165Y18923579D01*
X29807130Y18909685D01*
X29789365Y18896778D01*
X29772488Y18884516D01*
X29605485Y18717513D01*
X29605485Y18717512D01*
X29605483Y18717510D01*
X29545862Y18635450D01*
X29466657Y18526434D01*
X29359433Y18315997D01*
X29286446Y18091369D01*
X29249500Y17858098D01*
X29249500Y17621903D01*
X29286446Y17388632D01*
X29359433Y17164004D01*
X29466657Y16953567D01*
X29605483Y16762490D01*
X29772490Y16595483D01*
X29807127Y16570317D01*
X29849792Y16514987D01*
X29855771Y16445374D01*
X29823165Y16383579D01*
X29807130Y16369685D01*
X29796853Y16362218D01*
X29772488Y16344516D01*
X29605485Y16177513D01*
X29605485Y16177512D01*
X29605483Y16177510D01*
X29545862Y16095450D01*
X29466657Y15986434D01*
X29359433Y15775997D01*
X29286446Y15551369D01*
X29249500Y15318098D01*
X29249500Y15081903D01*
X29286446Y14848632D01*
X29359433Y14624004D01*
X29466657Y14413567D01*
X29605483Y14222490D01*
X29772490Y14055483D01*
X29807127Y14030317D01*
X29849792Y13974987D01*
X29855771Y13905374D01*
X29823165Y13843579D01*
X29807130Y13829685D01*
X29789365Y13816778D01*
X29772488Y13804516D01*
X29605485Y13637513D01*
X29605485Y13637512D01*
X29605483Y13637510D01*
X29563728Y13580039D01*
X29466657Y13446434D01*
X29359433Y13235997D01*
X29286446Y13011369D01*
X29249500Y12778098D01*
X29249500Y12541903D01*
X29286446Y12308632D01*
X29359433Y12084004D01*
X29396662Y12010939D01*
X29466657Y11873567D01*
X29605483Y11682490D01*
X29772490Y11515483D01*
X29807127Y11490317D01*
X29849792Y11434987D01*
X29855771Y11365374D01*
X29823165Y11303579D01*
X29807130Y11289685D01*
X29789365Y11276778D01*
X29772488Y11264516D01*
X29605485Y11097513D01*
X29605485Y11097512D01*
X29605483Y11097510D01*
X29545862Y11015450D01*
X29466657Y10906434D01*
X29359433Y10695997D01*
X29286446Y10471369D01*
X29249500Y10238098D01*
X29249500Y10001903D01*
X29286446Y9768632D01*
X29359433Y9544004D01*
X29437503Y9390784D01*
X29466657Y9333567D01*
X29605483Y9142490D01*
X29772490Y8975483D01*
X29807127Y8950317D01*
X29849792Y8894987D01*
X29855771Y8825374D01*
X29823165Y8763579D01*
X29807130Y8749685D01*
X29789365Y8736778D01*
X29772488Y8724516D01*
X29734126Y8686154D01*
X29672803Y8652669D01*
X29603111Y8657655D01*
X29558765Y8686155D01*
X28036819Y10208102D01*
X28003334Y10269425D01*
X28000500Y10295783D01*
X28000500Y35034218D01*
X28020185Y35101257D01*
X28036819Y35121899D01*
X30777137Y37862216D01*
X30777137Y37862217D01*
X30777140Y37862219D01*
X30886632Y38026086D01*
X30962052Y38208165D01*
X31000500Y38401460D01*
X31000500Y38598541D01*
X31000500Y45151651D01*
X31000500Y45151654D01*
X31000499Y45151656D01*
X30962051Y45344945D01*
X30954897Y45362215D01*
X30954897Y45362217D01*
X30939961Y45398276D01*
X30886635Y45527018D01*
X30886628Y45527031D01*
X30777139Y45690892D01*
X30777136Y45690896D01*
X30634686Y45833346D01*
X30634655Y45833375D01*
X26882692Y49585338D01*
X26849207Y49646661D01*
X26854191Y49716353D01*
X26870052Y49745901D01*
X26916529Y49809869D01*
X26996257Y49966345D01*
X27044232Y50017140D01*
X27112053Y50033935D01*
X27178188Y50011398D01*
X27217226Y49966345D01*
X27296955Y49809869D01*
X27413761Y49649099D01*
X27554278Y49508582D01*
X27715048Y49391776D01*
X27801891Y49347528D01*
X27892109Y49301558D01*
X27892112Y49301557D01*
X27986608Y49270854D01*
X28081106Y49240150D01*
X28277381Y49209063D01*
X28277382Y49209063D01*
X28476102Y49209063D01*
X28476103Y49209063D01*
X28672378Y49240150D01*
X28861374Y49301558D01*
X29038436Y49391776D01*
X29199206Y49508582D01*
X29339723Y49649099D01*
X29456529Y49809869D01*
X29546747Y49986931D01*
X29608155Y50175927D01*
X29639242Y50372202D01*
X29639242Y51546924D01*
X29608155Y51743199D01*
X29546747Y51932195D01*
X29546747Y51932196D01*
X29456528Y52109258D01*
X29339723Y52270027D01*
X29199206Y52410544D01*
X29038436Y52527350D01*
X28861374Y52617569D01*
X28861371Y52617570D01*
X28672379Y52678976D01*
X28574240Y52694520D01*
X28476103Y52710063D01*
X28277381Y52710063D01*
X28211956Y52699701D01*
X28081104Y52678976D01*
X27892112Y52617570D01*
X27892109Y52617569D01*
X27715047Y52527350D01*
X27554275Y52410542D01*
X27413763Y52270030D01*
X27296955Y52109258D01*
X27217227Y51952783D01*
X27169252Y51901987D01*
X27101431Y51885192D01*
X27035296Y51907730D01*
X26996257Y51952783D01*
X26916528Y52109258D01*
X26799723Y52270027D01*
X26659206Y52410544D01*
X26498436Y52527350D01*
X26321374Y52617569D01*
X26321371Y52617570D01*
X26132379Y52678976D01*
X26034240Y52694520D01*
X25936103Y52710063D01*
X25737381Y52710063D01*
X25671956Y52699701D01*
X25541104Y52678976D01*
X25352112Y52617570D01*
X25352109Y52617569D01*
X25175047Y52527350D01*
X25014275Y52410542D01*
X24873763Y52270030D01*
X24756955Y52109258D01*
X24677227Y51952783D01*
X24629252Y51901987D01*
X24561431Y51885192D01*
X24495296Y51907730D01*
X24456257Y51952783D01*
X24376528Y52109258D01*
X24259723Y52270027D01*
X24119206Y52410544D01*
X23958436Y52527350D01*
X23781374Y52617569D01*
X23781371Y52617570D01*
X23592379Y52678976D01*
X23494240Y52694520D01*
X23396103Y52710063D01*
X23197381Y52710063D01*
X23131956Y52699701D01*
X23001104Y52678976D01*
X22812112Y52617570D01*
X22812109Y52617569D01*
X22635047Y52527350D01*
X22474275Y52410542D01*
X22333763Y52270030D01*
X22216955Y52109258D01*
X22175434Y52027768D01*
X22127459Y51976972D01*
X22064949Y51960063D01*
X22006219Y51960063D01*
X21939180Y51979748D01*
X21918538Y51996382D01*
X21281479Y52633441D01*
X21281459Y52633463D01*
X21137787Y52777135D01*
X21134725Y52779648D01*
X21133552Y52781370D01*
X21133475Y52781447D01*
X21133489Y52781462D01*
X21095392Y52837395D01*
X21093523Y52907239D01*
X21129711Y52967007D01*
X21192468Y52997722D01*
X21213392Y52999500D01*
X32875500Y52999500D01*
X32942539Y52979815D01*
X32988294Y52927011D01*
X32999500Y52875500D01*
X32999500Y624500D01*
X32979815Y557461D01*
X32927011Y511706D01*
X32875500Y500500D01*
X6124500Y500500D01*
X6057461Y520185D01*
X6011706Y572989D01*
X6000500Y624500D01*
X6000500Y52875500D01*
X6020185Y52942539D01*
X6072989Y52988294D01*
X6124500Y52999500D01*
X14286608Y52999500D01*
X14353647Y52979815D01*
G37*
G04 #@! TD.AperFunction*
G04 #@! TD*
M02*
