G04 #@! TF.GenerationSoftware,KiCad,Pcbnew,8.0.0*
G04 #@! TF.CreationDate,2024-03-10T12:55:54+01:00*
G04 #@! TF.ProjectId,mailboxguard_shield,6d61696c-626f-4786-9775-6172645f7368,rev?*
G04 #@! TF.SameCoordinates,Original*
G04 #@! TF.FileFunction,Soldermask,Top*
G04 #@! TF.FilePolarity,Negative*
%FSLAX46Y46*%
G04 Gerber Fmt 4.6, Leading zero omitted, Abs format (unit mm)*
G04 Created by KiCad (PCBNEW 8.0.0) date 2024-03-10 12:55:54*
%MOMM*%
%LPD*%
G01*
G04 APERTURE LIST*
G04 Aperture macros list*
%AMRoundRect*
0 Rectangle with rounded corners*
0 $1 Rounding radius*
0 $2 $3 $4 $5 $6 $7 $8 $9 X,Y pos of 4 corners*
0 Add a 4 corners polygon primitive as box body*
4,1,4,$2,$3,$4,$5,$6,$7,$8,$9,$2,$3,0*
0 Add four circle primitives for the rounded corners*
1,1,$1+$1,$2,$3*
1,1,$1+$1,$4,$5*
1,1,$1+$1,$6,$7*
1,1,$1+$1,$8,$9*
0 Add four rect primitives between the rounded corners*
20,1,$1+$1,$2,$3,$4,$5,0*
20,1,$1+$1,$4,$5,$6,$7,0*
20,1,$1+$1,$6,$7,$8,$9,0*
20,1,$1+$1,$8,$9,$2,$3,0*%
G04 Aperture macros list end*
%ADD10RoundRect,0.250000X-0.625000X0.312500X-0.625000X-0.312500X0.625000X-0.312500X0.625000X0.312500X0*%
%ADD11RoundRect,0.150000X0.150000X-0.587500X0.150000X0.587500X-0.150000X0.587500X-0.150000X-0.587500X0*%
%ADD12RoundRect,0.250000X-0.600000X0.400000X-0.600000X-0.400000X0.600000X-0.400000X0.600000X0.400000X0*%
%ADD13RoundRect,0.250000X-0.312500X-0.625000X0.312500X-0.625000X0.312500X0.625000X-0.312500X0.625000X0*%
%ADD14RoundRect,0.250000X0.625000X-0.312500X0.625000X0.312500X-0.625000X0.312500X-0.625000X-0.312500X0*%
%ADD15R,1.800000X1.800000*%
%ADD16C,1.800000*%
%ADD17R,2.000000X2.000000*%
%ADD18C,2.000000*%
%ADD19O,2.500000X2.000000*%
%ADD20O,1.524000X2.500000*%
G04 APERTURE END LIST*
D10*
G04 #@! TO.C,R1*
X92537500Y-74537500D03*
X92537500Y-77462500D03*
G04 #@! TD*
D11*
G04 #@! TO.C,Q1*
X88000000Y-69500000D03*
X89900000Y-69500000D03*
X88950000Y-67625000D03*
G04 #@! TD*
D12*
G04 #@! TO.C,D2*
X82500000Y-47500000D03*
X82500000Y-51000000D03*
G04 #@! TD*
D13*
G04 #@! TO.C,R2*
X83537500Y-76000000D03*
X86462500Y-76000000D03*
G04 #@! TD*
D14*
G04 #@! TO.C,R3*
X90000000Y-50962500D03*
X90000000Y-48037500D03*
G04 #@! TD*
D15*
G04 #@! TO.C,D1*
X96000000Y-39500000D03*
D16*
X93460000Y-39500000D03*
G04 #@! TD*
D17*
G04 #@! TO.C,BZ1*
X79500000Y-36500000D03*
D18*
X87100000Y-36500000D03*
G04 #@! TD*
D19*
G04 #@! TO.C,U1*
X77140000Y-80000000D03*
X77140000Y-77460000D03*
X77140000Y-74920000D03*
X77140000Y-72380000D03*
X77140000Y-69840000D03*
X77140000Y-67300000D03*
X77140000Y-64760000D03*
X77140000Y-62220000D03*
X77140000Y-59680000D03*
X77140000Y-57140000D03*
X77140000Y-54600000D03*
X77140000Y-52060000D03*
X77140000Y-49520000D03*
X100000000Y-80000000D03*
X100000000Y-77460000D03*
X100000000Y-74920000D03*
X100000000Y-72380000D03*
X100000000Y-69840000D03*
X100000000Y-67300000D03*
X100000000Y-64760000D03*
X100000000Y-62220000D03*
X100000000Y-59680000D03*
X100000000Y-57140000D03*
X100000000Y-54600000D03*
X100000000Y-52060000D03*
X100000000Y-49520000D03*
G04 #@! TD*
D20*
G04 #@! TO.C,SW1*
X92296742Y-31540437D03*
X94836742Y-31540437D03*
X97376742Y-31540437D03*
G04 #@! TD*
M02*
