%TF.GenerationSoftware,KiCad,Pcbnew,8.0.0*%
%TF.CreationDate,2024-03-10T12:56:01+01:00*%
%TF.ProjectId,mailboxguard_shield,6d61696c-626f-4786-9775-6172645f7368,rev?*%
%TF.SameCoordinates,Original*%
%TF.FileFunction,Drillmap*%
%TF.FilePolarity,Positive*%
%FSLAX45Y45*%
G04 Gerber Fmt 4.5, Leading zero omitted, Abs format (unit mm)*
G04 Created by KiCad (PCBNEW 8.0.0) date 2024-03-10 12:56:01*
%MOMM*%
%LPD*%
G01*
G04 APERTURE LIST*
%ADD10C,0.050000*%
%ADD11C,0.200000*%
G04 APERTURE END LIST*
D10*
X7450000Y-2900000D02*
X10250000Y-2900000D01*
X10250000Y-8250000D01*
X7450000Y-8250000D01*
X7450000Y-2900000D01*
D11*
X7708277Y-8563984D02*
X7708277Y-8363984D01*
X7708277Y-8363984D02*
X7755896Y-8363984D01*
X7755896Y-8363984D02*
X7784467Y-8373508D01*
X7784467Y-8373508D02*
X7803515Y-8392555D01*
X7803515Y-8392555D02*
X7813039Y-8411603D01*
X7813039Y-8411603D02*
X7822562Y-8449698D01*
X7822562Y-8449698D02*
X7822562Y-8478270D01*
X7822562Y-8478270D02*
X7813039Y-8516365D01*
X7813039Y-8516365D02*
X7803515Y-8535412D01*
X7803515Y-8535412D02*
X7784467Y-8554460D01*
X7784467Y-8554460D02*
X7755896Y-8563984D01*
X7755896Y-8563984D02*
X7708277Y-8563984D01*
X7908277Y-8563984D02*
X7908277Y-8430650D01*
X7908277Y-8468746D02*
X7917801Y-8449698D01*
X7917801Y-8449698D02*
X7927324Y-8440174D01*
X7927324Y-8440174D02*
X7946372Y-8430650D01*
X7946372Y-8430650D02*
X7965420Y-8430650D01*
X8032086Y-8563984D02*
X8032086Y-8430650D01*
X8032086Y-8363984D02*
X8022562Y-8373508D01*
X8022562Y-8373508D02*
X8032086Y-8383031D01*
X8032086Y-8383031D02*
X8041610Y-8373508D01*
X8041610Y-8373508D02*
X8032086Y-8363984D01*
X8032086Y-8363984D02*
X8032086Y-8383031D01*
X8155896Y-8563984D02*
X8136848Y-8554460D01*
X8136848Y-8554460D02*
X8127324Y-8535412D01*
X8127324Y-8535412D02*
X8127324Y-8363984D01*
X8260658Y-8563984D02*
X8241610Y-8554460D01*
X8241610Y-8554460D02*
X8232086Y-8535412D01*
X8232086Y-8535412D02*
X8232086Y-8363984D01*
X8489229Y-8563984D02*
X8489229Y-8363984D01*
X8489229Y-8363984D02*
X8555896Y-8506841D01*
X8555896Y-8506841D02*
X8622563Y-8363984D01*
X8622563Y-8363984D02*
X8622563Y-8563984D01*
X8803515Y-8563984D02*
X8803515Y-8459222D01*
X8803515Y-8459222D02*
X8793991Y-8440174D01*
X8793991Y-8440174D02*
X8774944Y-8430650D01*
X8774944Y-8430650D02*
X8736848Y-8430650D01*
X8736848Y-8430650D02*
X8717801Y-8440174D01*
X8803515Y-8554460D02*
X8784467Y-8563984D01*
X8784467Y-8563984D02*
X8736848Y-8563984D01*
X8736848Y-8563984D02*
X8717801Y-8554460D01*
X8717801Y-8554460D02*
X8708277Y-8535412D01*
X8708277Y-8535412D02*
X8708277Y-8516365D01*
X8708277Y-8516365D02*
X8717801Y-8497317D01*
X8717801Y-8497317D02*
X8736848Y-8487793D01*
X8736848Y-8487793D02*
X8784467Y-8487793D01*
X8784467Y-8487793D02*
X8803515Y-8478270D01*
X8898753Y-8430650D02*
X8898753Y-8630650D01*
X8898753Y-8440174D02*
X8917801Y-8430650D01*
X8917801Y-8430650D02*
X8955896Y-8430650D01*
X8955896Y-8430650D02*
X8974944Y-8440174D01*
X8974944Y-8440174D02*
X8984467Y-8449698D01*
X8984467Y-8449698D02*
X8993991Y-8468746D01*
X8993991Y-8468746D02*
X8993991Y-8525889D01*
X8993991Y-8525889D02*
X8984467Y-8544936D01*
X8984467Y-8544936D02*
X8974944Y-8554460D01*
X8974944Y-8554460D02*
X8955896Y-8563984D01*
X8955896Y-8563984D02*
X8917801Y-8563984D01*
X8917801Y-8563984D02*
X8898753Y-8554460D01*
X9079705Y-8544936D02*
X9089229Y-8554460D01*
X9089229Y-8554460D02*
X9079705Y-8563984D01*
X9079705Y-8563984D02*
X9070182Y-8554460D01*
X9070182Y-8554460D02*
X9079705Y-8544936D01*
X9079705Y-8544936D02*
X9079705Y-8563984D01*
X9079705Y-8440174D02*
X9089229Y-8449698D01*
X9089229Y-8449698D02*
X9079705Y-8459222D01*
X9079705Y-8459222D02*
X9070182Y-8449698D01*
X9070182Y-8449698D02*
X9079705Y-8440174D01*
X9079705Y-8440174D02*
X9079705Y-8459222D01*
M02*
