%TF.GenerationSoftware,KiCad,Pcbnew,8.0.0*%
%TF.CreationDate,2024-03-10T12:56:01+01:00*%
%TF.ProjectId,mailboxguard_shield,6d61696c-626f-4786-9775-6172645f7368,rev?*%
%TF.SameCoordinates,Original*%
%TF.FileFunction,Drillmap*%
%TF.FilePolarity,Positive*%
%FSLAX45Y45*%
G04 Gerber Fmt 4.5, Leading zero omitted, Abs format (unit mm)*
G04 Created by KiCad (PCBNEW 8.0.0) date 2024-03-10 12:56:01*
%MOMM*%
%LPD*%
G01*
G04 APERTURE LIST*
%ADD10C,0.050000*%
%ADD11C,0.200000*%
%ADD12C,0.100000*%
G04 APERTURE END LIST*
D10*
X7450000Y-2900000D02*
X10250000Y-2900000D01*
X10250000Y-8250000D01*
X7450000Y-8250000D01*
X7450000Y-2900000D01*
D11*
D12*
X9191574Y-3115944D02*
X9267774Y-3192144D01*
X9267774Y-3115944D02*
X9191574Y-3192144D01*
X9445574Y-3115944D02*
X9521774Y-3192144D01*
X9521774Y-3115944D02*
X9445574Y-3192144D01*
X9699574Y-3115944D02*
X9775774Y-3192144D01*
X9775774Y-3115944D02*
X9699574Y-3192144D01*
X9391000Y-3950000D02*
G75*
G02*
X9301000Y-3950000I-45000J0D01*
G01*
X9301000Y-3950000D02*
G75*
G02*
X9391000Y-3950000I45000J0D01*
G01*
X9645000Y-3950000D02*
G75*
G02*
X9555000Y-3950000I-45000J0D01*
G01*
X9555000Y-3950000D02*
G75*
G02*
X9645000Y-3950000I45000J0D01*
G01*
X7714000Y-4902000D02*
X7714000Y-5002000D01*
X7664000Y-4952000D02*
X7764000Y-4952000D01*
X7714000Y-5156000D02*
X7714000Y-5256000D01*
X7664000Y-5206000D02*
X7764000Y-5206000D01*
X7714000Y-5410000D02*
X7714000Y-5510000D01*
X7664000Y-5460000D02*
X7764000Y-5460000D01*
X7714000Y-5664000D02*
X7714000Y-5764000D01*
X7664000Y-5714000D02*
X7764000Y-5714000D01*
X7714000Y-5918000D02*
X7714000Y-6018000D01*
X7664000Y-5968000D02*
X7764000Y-5968000D01*
X7714000Y-6172000D02*
X7714000Y-6272000D01*
X7664000Y-6222000D02*
X7764000Y-6222000D01*
X7714000Y-6426000D02*
X7714000Y-6526000D01*
X7664000Y-6476000D02*
X7764000Y-6476000D01*
X7714000Y-6680000D02*
X7714000Y-6780000D01*
X7664000Y-6730000D02*
X7764000Y-6730000D01*
X7714000Y-6934000D02*
X7714000Y-7034000D01*
X7664000Y-6984000D02*
X7764000Y-6984000D01*
X7714000Y-7188000D02*
X7714000Y-7288000D01*
X7664000Y-7238000D02*
X7764000Y-7238000D01*
X7714000Y-7442000D02*
X7714000Y-7542000D01*
X7664000Y-7492000D02*
X7764000Y-7492000D01*
X7714000Y-7696000D02*
X7714000Y-7796000D01*
X7664000Y-7746000D02*
X7764000Y-7746000D01*
X7714000Y-7950000D02*
X7714000Y-8050000D01*
X7664000Y-8000000D02*
X7764000Y-8000000D01*
X7950000Y-3600000D02*
X7950000Y-3700000D01*
X7900000Y-3650000D02*
X8000000Y-3650000D01*
X8710000Y-3600000D02*
X8710000Y-3700000D01*
X8660000Y-3650000D02*
X8760000Y-3650000D01*
X10000000Y-4902000D02*
X10000000Y-5002000D01*
X9950000Y-4952000D02*
X10050000Y-4952000D01*
X10000000Y-5156000D02*
X10000000Y-5256000D01*
X9950000Y-5206000D02*
X10050000Y-5206000D01*
X10000000Y-5410000D02*
X10000000Y-5510000D01*
X9950000Y-5460000D02*
X10050000Y-5460000D01*
X10000000Y-5664000D02*
X10000000Y-5764000D01*
X9950000Y-5714000D02*
X10050000Y-5714000D01*
X10000000Y-5918000D02*
X10000000Y-6018000D01*
X9950000Y-5968000D02*
X10050000Y-5968000D01*
X10000000Y-6172000D02*
X10000000Y-6272000D01*
X9950000Y-6222000D02*
X10050000Y-6222000D01*
X10000000Y-6426000D02*
X10000000Y-6526000D01*
X9950000Y-6476000D02*
X10050000Y-6476000D01*
X10000000Y-6680000D02*
X10000000Y-6780000D01*
X9950000Y-6730000D02*
X10050000Y-6730000D01*
X10000000Y-6934000D02*
X10000000Y-7034000D01*
X9950000Y-6984000D02*
X10050000Y-6984000D01*
X10000000Y-7188000D02*
X10000000Y-7288000D01*
X9950000Y-7238000D02*
X10050000Y-7238000D01*
X10000000Y-7442000D02*
X10000000Y-7542000D01*
X9950000Y-7492000D02*
X10050000Y-7492000D01*
X10000000Y-7696000D02*
X10000000Y-7796000D01*
X9950000Y-7746000D02*
X10050000Y-7746000D01*
X10000000Y-7950000D02*
X10000000Y-8050000D01*
X9950000Y-8000000D02*
X10050000Y-8000000D01*
D11*
X7708277Y-8563984D02*
X7708277Y-8363984D01*
X7708277Y-8363984D02*
X7755896Y-8363984D01*
X7755896Y-8363984D02*
X7784467Y-8373508D01*
X7784467Y-8373508D02*
X7803515Y-8392555D01*
X7803515Y-8392555D02*
X7813039Y-8411603D01*
X7813039Y-8411603D02*
X7822562Y-8449698D01*
X7822562Y-8449698D02*
X7822562Y-8478270D01*
X7822562Y-8478270D02*
X7813039Y-8516365D01*
X7813039Y-8516365D02*
X7803515Y-8535412D01*
X7803515Y-8535412D02*
X7784467Y-8554460D01*
X7784467Y-8554460D02*
X7755896Y-8563984D01*
X7755896Y-8563984D02*
X7708277Y-8563984D01*
X7908277Y-8563984D02*
X7908277Y-8430650D01*
X7908277Y-8468746D02*
X7917801Y-8449698D01*
X7917801Y-8449698D02*
X7927324Y-8440174D01*
X7927324Y-8440174D02*
X7946372Y-8430650D01*
X7946372Y-8430650D02*
X7965420Y-8430650D01*
X8032086Y-8563984D02*
X8032086Y-8430650D01*
X8032086Y-8363984D02*
X8022562Y-8373508D01*
X8022562Y-8373508D02*
X8032086Y-8383031D01*
X8032086Y-8383031D02*
X8041610Y-8373508D01*
X8041610Y-8373508D02*
X8032086Y-8363984D01*
X8032086Y-8363984D02*
X8032086Y-8383031D01*
X8155896Y-8563984D02*
X8136848Y-8554460D01*
X8136848Y-8554460D02*
X8127324Y-8535412D01*
X8127324Y-8535412D02*
X8127324Y-8363984D01*
X8260658Y-8563984D02*
X8241610Y-8554460D01*
X8241610Y-8554460D02*
X8232086Y-8535412D01*
X8232086Y-8535412D02*
X8232086Y-8363984D01*
X8489229Y-8563984D02*
X8489229Y-8363984D01*
X8489229Y-8363984D02*
X8555896Y-8506841D01*
X8555896Y-8506841D02*
X8622563Y-8363984D01*
X8622563Y-8363984D02*
X8622563Y-8563984D01*
X8803515Y-8563984D02*
X8803515Y-8459222D01*
X8803515Y-8459222D02*
X8793991Y-8440174D01*
X8793991Y-8440174D02*
X8774944Y-8430650D01*
X8774944Y-8430650D02*
X8736848Y-8430650D01*
X8736848Y-8430650D02*
X8717801Y-8440174D01*
X8803515Y-8554460D02*
X8784467Y-8563984D01*
X8784467Y-8563984D02*
X8736848Y-8563984D01*
X8736848Y-8563984D02*
X8717801Y-8554460D01*
X8717801Y-8554460D02*
X8708277Y-8535412D01*
X8708277Y-8535412D02*
X8708277Y-8516365D01*
X8708277Y-8516365D02*
X8717801Y-8497317D01*
X8717801Y-8497317D02*
X8736848Y-8487793D01*
X8736848Y-8487793D02*
X8784467Y-8487793D01*
X8784467Y-8487793D02*
X8803515Y-8478270D01*
X8898753Y-8430650D02*
X8898753Y-8630650D01*
X8898753Y-8440174D02*
X8917801Y-8430650D01*
X8917801Y-8430650D02*
X8955896Y-8430650D01*
X8955896Y-8430650D02*
X8974944Y-8440174D01*
X8974944Y-8440174D02*
X8984467Y-8449698D01*
X8984467Y-8449698D02*
X8993991Y-8468746D01*
X8993991Y-8468746D02*
X8993991Y-8525889D01*
X8993991Y-8525889D02*
X8984467Y-8544936D01*
X8984467Y-8544936D02*
X8974944Y-8554460D01*
X8974944Y-8554460D02*
X8955896Y-8563984D01*
X8955896Y-8563984D02*
X8917801Y-8563984D01*
X8917801Y-8563984D02*
X8898753Y-8554460D01*
X9079705Y-8544936D02*
X9089229Y-8554460D01*
X9089229Y-8554460D02*
X9079705Y-8563984D01*
X9079705Y-8563984D02*
X9070182Y-8554460D01*
X9070182Y-8554460D02*
X9079705Y-8544936D01*
X9079705Y-8544936D02*
X9079705Y-8563984D01*
X9079705Y-8440174D02*
X9089229Y-8449698D01*
X9089229Y-8449698D02*
X9079705Y-8459222D01*
X9079705Y-8459222D02*
X9070182Y-8449698D01*
X9070182Y-8449698D02*
X9079705Y-8440174D01*
X9079705Y-8440174D02*
X9079705Y-8459222D01*
D12*
X7371300Y-8854400D02*
X7447500Y-8930600D01*
X7447500Y-8854400D02*
X7371300Y-8930600D01*
D11*
X7746372Y-8783984D02*
X7765420Y-8783984D01*
X7765420Y-8783984D02*
X7784467Y-8793508D01*
X7784467Y-8793508D02*
X7793991Y-8803031D01*
X7793991Y-8803031D02*
X7803515Y-8822079D01*
X7803515Y-8822079D02*
X7813039Y-8860174D01*
X7813039Y-8860174D02*
X7813039Y-8907793D01*
X7813039Y-8907793D02*
X7803515Y-8945889D01*
X7803515Y-8945889D02*
X7793991Y-8964936D01*
X7793991Y-8964936D02*
X7784467Y-8974460D01*
X7784467Y-8974460D02*
X7765420Y-8983984D01*
X7765420Y-8983984D02*
X7746372Y-8983984D01*
X7746372Y-8983984D02*
X7727324Y-8974460D01*
X7727324Y-8974460D02*
X7717801Y-8964936D01*
X7717801Y-8964936D02*
X7708277Y-8945889D01*
X7708277Y-8945889D02*
X7698753Y-8907793D01*
X7698753Y-8907793D02*
X7698753Y-8860174D01*
X7698753Y-8860174D02*
X7708277Y-8822079D01*
X7708277Y-8822079D02*
X7717801Y-8803031D01*
X7717801Y-8803031D02*
X7727324Y-8793508D01*
X7727324Y-8793508D02*
X7746372Y-8783984D01*
X7898753Y-8964936D02*
X7908277Y-8974460D01*
X7908277Y-8974460D02*
X7898753Y-8983984D01*
X7898753Y-8983984D02*
X7889229Y-8974460D01*
X7889229Y-8974460D02*
X7898753Y-8964936D01*
X7898753Y-8964936D02*
X7898753Y-8983984D01*
X7974943Y-8783984D02*
X8108277Y-8783984D01*
X8108277Y-8783984D02*
X8022562Y-8983984D01*
X8270182Y-8783984D02*
X8232086Y-8783984D01*
X8232086Y-8783984D02*
X8213039Y-8793508D01*
X8213039Y-8793508D02*
X8203515Y-8803031D01*
X8203515Y-8803031D02*
X8184467Y-8831603D01*
X8184467Y-8831603D02*
X8174943Y-8869698D01*
X8174943Y-8869698D02*
X8174943Y-8945889D01*
X8174943Y-8945889D02*
X8184467Y-8964936D01*
X8184467Y-8964936D02*
X8193991Y-8974460D01*
X8193991Y-8974460D02*
X8213039Y-8983984D01*
X8213039Y-8983984D02*
X8251134Y-8983984D01*
X8251134Y-8983984D02*
X8270182Y-8974460D01*
X8270182Y-8974460D02*
X8279705Y-8964936D01*
X8279705Y-8964936D02*
X8289229Y-8945889D01*
X8289229Y-8945889D02*
X8289229Y-8898270D01*
X8289229Y-8898270D02*
X8279705Y-8879222D01*
X8279705Y-8879222D02*
X8270182Y-8869698D01*
X8270182Y-8869698D02*
X8251134Y-8860174D01*
X8251134Y-8860174D02*
X8213039Y-8860174D01*
X8213039Y-8860174D02*
X8193991Y-8869698D01*
X8193991Y-8869698D02*
X8184467Y-8879222D01*
X8184467Y-8879222D02*
X8174943Y-8898270D01*
X8365420Y-8803031D02*
X8374943Y-8793508D01*
X8374943Y-8793508D02*
X8393991Y-8783984D01*
X8393991Y-8783984D02*
X8441610Y-8783984D01*
X8441610Y-8783984D02*
X8460658Y-8793508D01*
X8460658Y-8793508D02*
X8470182Y-8803031D01*
X8470182Y-8803031D02*
X8479705Y-8822079D01*
X8479705Y-8822079D02*
X8479705Y-8841127D01*
X8479705Y-8841127D02*
X8470182Y-8869698D01*
X8470182Y-8869698D02*
X8355896Y-8983984D01*
X8355896Y-8983984D02*
X8479705Y-8983984D01*
X8565420Y-8983984D02*
X8565420Y-8850650D01*
X8565420Y-8869698D02*
X8574944Y-8860174D01*
X8574944Y-8860174D02*
X8593991Y-8850650D01*
X8593991Y-8850650D02*
X8622563Y-8850650D01*
X8622563Y-8850650D02*
X8641610Y-8860174D01*
X8641610Y-8860174D02*
X8651134Y-8879222D01*
X8651134Y-8879222D02*
X8651134Y-8983984D01*
X8651134Y-8879222D02*
X8660658Y-8860174D01*
X8660658Y-8860174D02*
X8679705Y-8850650D01*
X8679705Y-8850650D02*
X8708277Y-8850650D01*
X8708277Y-8850650D02*
X8727325Y-8860174D01*
X8727325Y-8860174D02*
X8736848Y-8879222D01*
X8736848Y-8879222D02*
X8736848Y-8983984D01*
X8832086Y-8983984D02*
X8832086Y-8850650D01*
X8832086Y-8869698D02*
X8841610Y-8860174D01*
X8841610Y-8860174D02*
X8860658Y-8850650D01*
X8860658Y-8850650D02*
X8889229Y-8850650D01*
X8889229Y-8850650D02*
X8908277Y-8860174D01*
X8908277Y-8860174D02*
X8917801Y-8879222D01*
X8917801Y-8879222D02*
X8917801Y-8983984D01*
X8917801Y-8879222D02*
X8927325Y-8860174D01*
X8927325Y-8860174D02*
X8946372Y-8850650D01*
X8946372Y-8850650D02*
X8974944Y-8850650D01*
X8974944Y-8850650D02*
X8993991Y-8860174D01*
X8993991Y-8860174D02*
X9003515Y-8879222D01*
X9003515Y-8879222D02*
X9003515Y-8983984D01*
X9393991Y-8774460D02*
X9222563Y-9031603D01*
X9651134Y-8783984D02*
X9670182Y-8783984D01*
X9670182Y-8783984D02*
X9689229Y-8793508D01*
X9689229Y-8793508D02*
X9698753Y-8803031D01*
X9698753Y-8803031D02*
X9708277Y-8822079D01*
X9708277Y-8822079D02*
X9717801Y-8860174D01*
X9717801Y-8860174D02*
X9717801Y-8907793D01*
X9717801Y-8907793D02*
X9708277Y-8945889D01*
X9708277Y-8945889D02*
X9698753Y-8964936D01*
X9698753Y-8964936D02*
X9689229Y-8974460D01*
X9689229Y-8974460D02*
X9670182Y-8983984D01*
X9670182Y-8983984D02*
X9651134Y-8983984D01*
X9651134Y-8983984D02*
X9632087Y-8974460D01*
X9632087Y-8974460D02*
X9622563Y-8964936D01*
X9622563Y-8964936D02*
X9613039Y-8945889D01*
X9613039Y-8945889D02*
X9603515Y-8907793D01*
X9603515Y-8907793D02*
X9603515Y-8860174D01*
X9603515Y-8860174D02*
X9613039Y-8822079D01*
X9613039Y-8822079D02*
X9622563Y-8803031D01*
X9622563Y-8803031D02*
X9632087Y-8793508D01*
X9632087Y-8793508D02*
X9651134Y-8783984D01*
X9803515Y-8964936D02*
X9813039Y-8974460D01*
X9813039Y-8974460D02*
X9803515Y-8983984D01*
X9803515Y-8983984D02*
X9793991Y-8974460D01*
X9793991Y-8974460D02*
X9803515Y-8964936D01*
X9803515Y-8964936D02*
X9803515Y-8983984D01*
X9936848Y-8783984D02*
X9955896Y-8783984D01*
X9955896Y-8783984D02*
X9974944Y-8793508D01*
X9974944Y-8793508D02*
X9984468Y-8803031D01*
X9984468Y-8803031D02*
X9993991Y-8822079D01*
X9993991Y-8822079D02*
X10003515Y-8860174D01*
X10003515Y-8860174D02*
X10003515Y-8907793D01*
X10003515Y-8907793D02*
X9993991Y-8945889D01*
X9993991Y-8945889D02*
X9984468Y-8964936D01*
X9984468Y-8964936D02*
X9974944Y-8974460D01*
X9974944Y-8974460D02*
X9955896Y-8983984D01*
X9955896Y-8983984D02*
X9936848Y-8983984D01*
X9936848Y-8983984D02*
X9917801Y-8974460D01*
X9917801Y-8974460D02*
X9908277Y-8964936D01*
X9908277Y-8964936D02*
X9898753Y-8945889D01*
X9898753Y-8945889D02*
X9889229Y-8907793D01*
X9889229Y-8907793D02*
X9889229Y-8860174D01*
X9889229Y-8860174D02*
X9898753Y-8822079D01*
X9898753Y-8822079D02*
X9908277Y-8803031D01*
X9908277Y-8803031D02*
X9917801Y-8793508D01*
X9917801Y-8793508D02*
X9936848Y-8783984D01*
X10070182Y-8783984D02*
X10193991Y-8783984D01*
X10193991Y-8783984D02*
X10127325Y-8860174D01*
X10127325Y-8860174D02*
X10155896Y-8860174D01*
X10155896Y-8860174D02*
X10174944Y-8869698D01*
X10174944Y-8869698D02*
X10184468Y-8879222D01*
X10184468Y-8879222D02*
X10193991Y-8898270D01*
X10193991Y-8898270D02*
X10193991Y-8945889D01*
X10193991Y-8945889D02*
X10184468Y-8964936D01*
X10184468Y-8964936D02*
X10174944Y-8974460D01*
X10174944Y-8974460D02*
X10155896Y-8983984D01*
X10155896Y-8983984D02*
X10098753Y-8983984D01*
X10098753Y-8983984D02*
X10079706Y-8974460D01*
X10079706Y-8974460D02*
X10070182Y-8964936D01*
X10317801Y-8783984D02*
X10336849Y-8783984D01*
X10336849Y-8783984D02*
X10355896Y-8793508D01*
X10355896Y-8793508D02*
X10365420Y-8803031D01*
X10365420Y-8803031D02*
X10374944Y-8822079D01*
X10374944Y-8822079D02*
X10384468Y-8860174D01*
X10384468Y-8860174D02*
X10384468Y-8907793D01*
X10384468Y-8907793D02*
X10374944Y-8945889D01*
X10374944Y-8945889D02*
X10365420Y-8964936D01*
X10365420Y-8964936D02*
X10355896Y-8974460D01*
X10355896Y-8974460D02*
X10336849Y-8983984D01*
X10336849Y-8983984D02*
X10317801Y-8983984D01*
X10317801Y-8983984D02*
X10298753Y-8974460D01*
X10298753Y-8974460D02*
X10289229Y-8964936D01*
X10289229Y-8964936D02*
X10279706Y-8945889D01*
X10279706Y-8945889D02*
X10270182Y-8907793D01*
X10270182Y-8907793D02*
X10270182Y-8860174D01*
X10270182Y-8860174D02*
X10279706Y-8822079D01*
X10279706Y-8822079D02*
X10289229Y-8803031D01*
X10289229Y-8803031D02*
X10298753Y-8793508D01*
X10298753Y-8793508D02*
X10317801Y-8783984D01*
X10508277Y-8783984D02*
X10527325Y-8783984D01*
X10527325Y-8783984D02*
X10546372Y-8793508D01*
X10546372Y-8793508D02*
X10555896Y-8803031D01*
X10555896Y-8803031D02*
X10565420Y-8822079D01*
X10565420Y-8822079D02*
X10574944Y-8860174D01*
X10574944Y-8860174D02*
X10574944Y-8907793D01*
X10574944Y-8907793D02*
X10565420Y-8945889D01*
X10565420Y-8945889D02*
X10555896Y-8964936D01*
X10555896Y-8964936D02*
X10546372Y-8974460D01*
X10546372Y-8974460D02*
X10527325Y-8983984D01*
X10527325Y-8983984D02*
X10508277Y-8983984D01*
X10508277Y-8983984D02*
X10489229Y-8974460D01*
X10489229Y-8974460D02*
X10479706Y-8964936D01*
X10479706Y-8964936D02*
X10470182Y-8945889D01*
X10470182Y-8945889D02*
X10460658Y-8907793D01*
X10460658Y-8907793D02*
X10460658Y-8860174D01*
X10460658Y-8860174D02*
X10470182Y-8822079D01*
X10470182Y-8822079D02*
X10479706Y-8803031D01*
X10479706Y-8803031D02*
X10489229Y-8793508D01*
X10489229Y-8793508D02*
X10508277Y-8783984D01*
X10651134Y-8783984D02*
X10651134Y-8822079D01*
X10727325Y-8783984D02*
X10727325Y-8822079D01*
X11022563Y-9060174D02*
X11013039Y-9050650D01*
X11013039Y-9050650D02*
X10993991Y-9022079D01*
X10993991Y-9022079D02*
X10984468Y-9003031D01*
X10984468Y-9003031D02*
X10974944Y-8974460D01*
X10974944Y-8974460D02*
X10965420Y-8926841D01*
X10965420Y-8926841D02*
X10965420Y-8888746D01*
X10965420Y-8888746D02*
X10974944Y-8841127D01*
X10974944Y-8841127D02*
X10984468Y-8812555D01*
X10984468Y-8812555D02*
X10993991Y-8793508D01*
X10993991Y-8793508D02*
X11013039Y-8764936D01*
X11013039Y-8764936D02*
X11022563Y-8755412D01*
X11079706Y-8783984D02*
X11203515Y-8783984D01*
X11203515Y-8783984D02*
X11136849Y-8860174D01*
X11136849Y-8860174D02*
X11165420Y-8860174D01*
X11165420Y-8860174D02*
X11184468Y-8869698D01*
X11184468Y-8869698D02*
X11193991Y-8879222D01*
X11193991Y-8879222D02*
X11203515Y-8898270D01*
X11203515Y-8898270D02*
X11203515Y-8945889D01*
X11203515Y-8945889D02*
X11193991Y-8964936D01*
X11193991Y-8964936D02*
X11184468Y-8974460D01*
X11184468Y-8974460D02*
X11165420Y-8983984D01*
X11165420Y-8983984D02*
X11108277Y-8983984D01*
X11108277Y-8983984D02*
X11089230Y-8974460D01*
X11089230Y-8974460D02*
X11079706Y-8964936D01*
X11441610Y-8983984D02*
X11441610Y-8783984D01*
X11527325Y-8983984D02*
X11527325Y-8879222D01*
X11527325Y-8879222D02*
X11517801Y-8860174D01*
X11517801Y-8860174D02*
X11498753Y-8850650D01*
X11498753Y-8850650D02*
X11470182Y-8850650D01*
X11470182Y-8850650D02*
X11451134Y-8860174D01*
X11451134Y-8860174D02*
X11441610Y-8869698D01*
X11651134Y-8983984D02*
X11632087Y-8974460D01*
X11632087Y-8974460D02*
X11622563Y-8964936D01*
X11622563Y-8964936D02*
X11613039Y-8945889D01*
X11613039Y-8945889D02*
X11613039Y-8888746D01*
X11613039Y-8888746D02*
X11622563Y-8869698D01*
X11622563Y-8869698D02*
X11632087Y-8860174D01*
X11632087Y-8860174D02*
X11651134Y-8850650D01*
X11651134Y-8850650D02*
X11679706Y-8850650D01*
X11679706Y-8850650D02*
X11698753Y-8860174D01*
X11698753Y-8860174D02*
X11708277Y-8869698D01*
X11708277Y-8869698D02*
X11717801Y-8888746D01*
X11717801Y-8888746D02*
X11717801Y-8945889D01*
X11717801Y-8945889D02*
X11708277Y-8964936D01*
X11708277Y-8964936D02*
X11698753Y-8974460D01*
X11698753Y-8974460D02*
X11679706Y-8983984D01*
X11679706Y-8983984D02*
X11651134Y-8983984D01*
X11832087Y-8983984D02*
X11813039Y-8974460D01*
X11813039Y-8974460D02*
X11803515Y-8955412D01*
X11803515Y-8955412D02*
X11803515Y-8783984D01*
X11984468Y-8974460D02*
X11965420Y-8983984D01*
X11965420Y-8983984D02*
X11927325Y-8983984D01*
X11927325Y-8983984D02*
X11908277Y-8974460D01*
X11908277Y-8974460D02*
X11898753Y-8955412D01*
X11898753Y-8955412D02*
X11898753Y-8879222D01*
X11898753Y-8879222D02*
X11908277Y-8860174D01*
X11908277Y-8860174D02*
X11927325Y-8850650D01*
X11927325Y-8850650D02*
X11965420Y-8850650D01*
X11965420Y-8850650D02*
X11984468Y-8860174D01*
X11984468Y-8860174D02*
X11993991Y-8879222D01*
X11993991Y-8879222D02*
X11993991Y-8898270D01*
X11993991Y-8898270D02*
X11898753Y-8917317D01*
X12070182Y-8974460D02*
X12089230Y-8983984D01*
X12089230Y-8983984D02*
X12127325Y-8983984D01*
X12127325Y-8983984D02*
X12146372Y-8974460D01*
X12146372Y-8974460D02*
X12155896Y-8955412D01*
X12155896Y-8955412D02*
X12155896Y-8945889D01*
X12155896Y-8945889D02*
X12146372Y-8926841D01*
X12146372Y-8926841D02*
X12127325Y-8917317D01*
X12127325Y-8917317D02*
X12098753Y-8917317D01*
X12098753Y-8917317D02*
X12079706Y-8907793D01*
X12079706Y-8907793D02*
X12070182Y-8888746D01*
X12070182Y-8888746D02*
X12070182Y-8879222D01*
X12070182Y-8879222D02*
X12079706Y-8860174D01*
X12079706Y-8860174D02*
X12098753Y-8850650D01*
X12098753Y-8850650D02*
X12127325Y-8850650D01*
X12127325Y-8850650D02*
X12146372Y-8860174D01*
X12222563Y-9060174D02*
X12232087Y-9050650D01*
X12232087Y-9050650D02*
X12251134Y-9022079D01*
X12251134Y-9022079D02*
X12260658Y-9003031D01*
X12260658Y-9003031D02*
X12270182Y-8974460D01*
X12270182Y-8974460D02*
X12279706Y-8926841D01*
X12279706Y-8926841D02*
X12279706Y-8888746D01*
X12279706Y-8888746D02*
X12270182Y-8841127D01*
X12270182Y-8841127D02*
X12260658Y-8812555D01*
X12260658Y-8812555D02*
X12251134Y-8793508D01*
X12251134Y-8793508D02*
X12232087Y-8764936D01*
X12232087Y-8764936D02*
X12222563Y-8755412D01*
D12*
X7447500Y-9156500D02*
G75*
G02*
X7357500Y-9156500I-45000J0D01*
G01*
X7357500Y-9156500D02*
G75*
G02*
X7447500Y-9156500I45000J0D01*
G01*
D11*
X7746372Y-9047984D02*
X7765420Y-9047984D01*
X7765420Y-9047984D02*
X7784467Y-9057508D01*
X7784467Y-9057508D02*
X7793991Y-9067031D01*
X7793991Y-9067031D02*
X7803515Y-9086079D01*
X7803515Y-9086079D02*
X7813039Y-9124174D01*
X7813039Y-9124174D02*
X7813039Y-9171793D01*
X7813039Y-9171793D02*
X7803515Y-9209889D01*
X7803515Y-9209889D02*
X7793991Y-9228936D01*
X7793991Y-9228936D02*
X7784467Y-9238460D01*
X7784467Y-9238460D02*
X7765420Y-9247984D01*
X7765420Y-9247984D02*
X7746372Y-9247984D01*
X7746372Y-9247984D02*
X7727324Y-9238460D01*
X7727324Y-9238460D02*
X7717801Y-9228936D01*
X7717801Y-9228936D02*
X7708277Y-9209889D01*
X7708277Y-9209889D02*
X7698753Y-9171793D01*
X7698753Y-9171793D02*
X7698753Y-9124174D01*
X7698753Y-9124174D02*
X7708277Y-9086079D01*
X7708277Y-9086079D02*
X7717801Y-9067031D01*
X7717801Y-9067031D02*
X7727324Y-9057508D01*
X7727324Y-9057508D02*
X7746372Y-9047984D01*
X7898753Y-9228936D02*
X7908277Y-9238460D01*
X7908277Y-9238460D02*
X7898753Y-9247984D01*
X7898753Y-9247984D02*
X7889229Y-9238460D01*
X7889229Y-9238460D02*
X7898753Y-9228936D01*
X7898753Y-9228936D02*
X7898753Y-9247984D01*
X8003515Y-9247984D02*
X8041610Y-9247984D01*
X8041610Y-9247984D02*
X8060658Y-9238460D01*
X8060658Y-9238460D02*
X8070182Y-9228936D01*
X8070182Y-9228936D02*
X8089229Y-9200365D01*
X8089229Y-9200365D02*
X8098753Y-9162270D01*
X8098753Y-9162270D02*
X8098753Y-9086079D01*
X8098753Y-9086079D02*
X8089229Y-9067031D01*
X8089229Y-9067031D02*
X8079705Y-9057508D01*
X8079705Y-9057508D02*
X8060658Y-9047984D01*
X8060658Y-9047984D02*
X8022562Y-9047984D01*
X8022562Y-9047984D02*
X8003515Y-9057508D01*
X8003515Y-9057508D02*
X7993991Y-9067031D01*
X7993991Y-9067031D02*
X7984467Y-9086079D01*
X7984467Y-9086079D02*
X7984467Y-9133698D01*
X7984467Y-9133698D02*
X7993991Y-9152746D01*
X7993991Y-9152746D02*
X8003515Y-9162270D01*
X8003515Y-9162270D02*
X8022562Y-9171793D01*
X8022562Y-9171793D02*
X8060658Y-9171793D01*
X8060658Y-9171793D02*
X8079705Y-9162270D01*
X8079705Y-9162270D02*
X8089229Y-9152746D01*
X8089229Y-9152746D02*
X8098753Y-9133698D01*
X8222562Y-9047984D02*
X8241610Y-9047984D01*
X8241610Y-9047984D02*
X8260658Y-9057508D01*
X8260658Y-9057508D02*
X8270182Y-9067031D01*
X8270182Y-9067031D02*
X8279705Y-9086079D01*
X8279705Y-9086079D02*
X8289229Y-9124174D01*
X8289229Y-9124174D02*
X8289229Y-9171793D01*
X8289229Y-9171793D02*
X8279705Y-9209889D01*
X8279705Y-9209889D02*
X8270182Y-9228936D01*
X8270182Y-9228936D02*
X8260658Y-9238460D01*
X8260658Y-9238460D02*
X8241610Y-9247984D01*
X8241610Y-9247984D02*
X8222562Y-9247984D01*
X8222562Y-9247984D02*
X8203515Y-9238460D01*
X8203515Y-9238460D02*
X8193991Y-9228936D01*
X8193991Y-9228936D02*
X8184467Y-9209889D01*
X8184467Y-9209889D02*
X8174943Y-9171793D01*
X8174943Y-9171793D02*
X8174943Y-9124174D01*
X8174943Y-9124174D02*
X8184467Y-9086079D01*
X8184467Y-9086079D02*
X8193991Y-9067031D01*
X8193991Y-9067031D02*
X8203515Y-9057508D01*
X8203515Y-9057508D02*
X8222562Y-9047984D01*
X8413039Y-9047984D02*
X8432086Y-9047984D01*
X8432086Y-9047984D02*
X8451134Y-9057508D01*
X8451134Y-9057508D02*
X8460658Y-9067031D01*
X8460658Y-9067031D02*
X8470182Y-9086079D01*
X8470182Y-9086079D02*
X8479705Y-9124174D01*
X8479705Y-9124174D02*
X8479705Y-9171793D01*
X8479705Y-9171793D02*
X8470182Y-9209889D01*
X8470182Y-9209889D02*
X8460658Y-9228936D01*
X8460658Y-9228936D02*
X8451134Y-9238460D01*
X8451134Y-9238460D02*
X8432086Y-9247984D01*
X8432086Y-9247984D02*
X8413039Y-9247984D01*
X8413039Y-9247984D02*
X8393991Y-9238460D01*
X8393991Y-9238460D02*
X8384467Y-9228936D01*
X8384467Y-9228936D02*
X8374943Y-9209889D01*
X8374943Y-9209889D02*
X8365420Y-9171793D01*
X8365420Y-9171793D02*
X8365420Y-9124174D01*
X8365420Y-9124174D02*
X8374943Y-9086079D01*
X8374943Y-9086079D02*
X8384467Y-9067031D01*
X8384467Y-9067031D02*
X8393991Y-9057508D01*
X8393991Y-9057508D02*
X8413039Y-9047984D01*
X8565420Y-9247984D02*
X8565420Y-9114650D01*
X8565420Y-9133698D02*
X8574944Y-9124174D01*
X8574944Y-9124174D02*
X8593991Y-9114650D01*
X8593991Y-9114650D02*
X8622563Y-9114650D01*
X8622563Y-9114650D02*
X8641610Y-9124174D01*
X8641610Y-9124174D02*
X8651134Y-9143222D01*
X8651134Y-9143222D02*
X8651134Y-9247984D01*
X8651134Y-9143222D02*
X8660658Y-9124174D01*
X8660658Y-9124174D02*
X8679705Y-9114650D01*
X8679705Y-9114650D02*
X8708277Y-9114650D01*
X8708277Y-9114650D02*
X8727325Y-9124174D01*
X8727325Y-9124174D02*
X8736848Y-9143222D01*
X8736848Y-9143222D02*
X8736848Y-9247984D01*
X8832086Y-9247984D02*
X8832086Y-9114650D01*
X8832086Y-9133698D02*
X8841610Y-9124174D01*
X8841610Y-9124174D02*
X8860658Y-9114650D01*
X8860658Y-9114650D02*
X8889229Y-9114650D01*
X8889229Y-9114650D02*
X8908277Y-9124174D01*
X8908277Y-9124174D02*
X8917801Y-9143222D01*
X8917801Y-9143222D02*
X8917801Y-9247984D01*
X8917801Y-9143222D02*
X8927325Y-9124174D01*
X8927325Y-9124174D02*
X8946372Y-9114650D01*
X8946372Y-9114650D02*
X8974944Y-9114650D01*
X8974944Y-9114650D02*
X8993991Y-9124174D01*
X8993991Y-9124174D02*
X9003515Y-9143222D01*
X9003515Y-9143222D02*
X9003515Y-9247984D01*
X9393991Y-9038460D02*
X9222563Y-9295603D01*
X9651134Y-9047984D02*
X9670182Y-9047984D01*
X9670182Y-9047984D02*
X9689229Y-9057508D01*
X9689229Y-9057508D02*
X9698753Y-9067031D01*
X9698753Y-9067031D02*
X9708277Y-9086079D01*
X9708277Y-9086079D02*
X9717801Y-9124174D01*
X9717801Y-9124174D02*
X9717801Y-9171793D01*
X9717801Y-9171793D02*
X9708277Y-9209889D01*
X9708277Y-9209889D02*
X9698753Y-9228936D01*
X9698753Y-9228936D02*
X9689229Y-9238460D01*
X9689229Y-9238460D02*
X9670182Y-9247984D01*
X9670182Y-9247984D02*
X9651134Y-9247984D01*
X9651134Y-9247984D02*
X9632087Y-9238460D01*
X9632087Y-9238460D02*
X9622563Y-9228936D01*
X9622563Y-9228936D02*
X9613039Y-9209889D01*
X9613039Y-9209889D02*
X9603515Y-9171793D01*
X9603515Y-9171793D02*
X9603515Y-9124174D01*
X9603515Y-9124174D02*
X9613039Y-9086079D01*
X9613039Y-9086079D02*
X9622563Y-9067031D01*
X9622563Y-9067031D02*
X9632087Y-9057508D01*
X9632087Y-9057508D02*
X9651134Y-9047984D01*
X9803515Y-9228936D02*
X9813039Y-9238460D01*
X9813039Y-9238460D02*
X9803515Y-9247984D01*
X9803515Y-9247984D02*
X9793991Y-9238460D01*
X9793991Y-9238460D02*
X9803515Y-9228936D01*
X9803515Y-9228936D02*
X9803515Y-9247984D01*
X9936848Y-9047984D02*
X9955896Y-9047984D01*
X9955896Y-9047984D02*
X9974944Y-9057508D01*
X9974944Y-9057508D02*
X9984468Y-9067031D01*
X9984468Y-9067031D02*
X9993991Y-9086079D01*
X9993991Y-9086079D02*
X10003515Y-9124174D01*
X10003515Y-9124174D02*
X10003515Y-9171793D01*
X10003515Y-9171793D02*
X9993991Y-9209889D01*
X9993991Y-9209889D02*
X9984468Y-9228936D01*
X9984468Y-9228936D02*
X9974944Y-9238460D01*
X9974944Y-9238460D02*
X9955896Y-9247984D01*
X9955896Y-9247984D02*
X9936848Y-9247984D01*
X9936848Y-9247984D02*
X9917801Y-9238460D01*
X9917801Y-9238460D02*
X9908277Y-9228936D01*
X9908277Y-9228936D02*
X9898753Y-9209889D01*
X9898753Y-9209889D02*
X9889229Y-9171793D01*
X9889229Y-9171793D02*
X9889229Y-9124174D01*
X9889229Y-9124174D02*
X9898753Y-9086079D01*
X9898753Y-9086079D02*
X9908277Y-9067031D01*
X9908277Y-9067031D02*
X9917801Y-9057508D01*
X9917801Y-9057508D02*
X9936848Y-9047984D01*
X10070182Y-9047984D02*
X10193991Y-9047984D01*
X10193991Y-9047984D02*
X10127325Y-9124174D01*
X10127325Y-9124174D02*
X10155896Y-9124174D01*
X10155896Y-9124174D02*
X10174944Y-9133698D01*
X10174944Y-9133698D02*
X10184468Y-9143222D01*
X10184468Y-9143222D02*
X10193991Y-9162270D01*
X10193991Y-9162270D02*
X10193991Y-9209889D01*
X10193991Y-9209889D02*
X10184468Y-9228936D01*
X10184468Y-9228936D02*
X10174944Y-9238460D01*
X10174944Y-9238460D02*
X10155896Y-9247984D01*
X10155896Y-9247984D02*
X10098753Y-9247984D01*
X10098753Y-9247984D02*
X10079706Y-9238460D01*
X10079706Y-9238460D02*
X10070182Y-9228936D01*
X10374944Y-9047984D02*
X10279706Y-9047984D01*
X10279706Y-9047984D02*
X10270182Y-9143222D01*
X10270182Y-9143222D02*
X10279706Y-9133698D01*
X10279706Y-9133698D02*
X10298753Y-9124174D01*
X10298753Y-9124174D02*
X10346372Y-9124174D01*
X10346372Y-9124174D02*
X10365420Y-9133698D01*
X10365420Y-9133698D02*
X10374944Y-9143222D01*
X10374944Y-9143222D02*
X10384468Y-9162270D01*
X10384468Y-9162270D02*
X10384468Y-9209889D01*
X10384468Y-9209889D02*
X10374944Y-9228936D01*
X10374944Y-9228936D02*
X10365420Y-9238460D01*
X10365420Y-9238460D02*
X10346372Y-9247984D01*
X10346372Y-9247984D02*
X10298753Y-9247984D01*
X10298753Y-9247984D02*
X10279706Y-9238460D01*
X10279706Y-9238460D02*
X10270182Y-9228936D01*
X10555896Y-9114650D02*
X10555896Y-9247984D01*
X10508277Y-9038460D02*
X10460658Y-9181317D01*
X10460658Y-9181317D02*
X10584468Y-9181317D01*
X10651134Y-9047984D02*
X10651134Y-9086079D01*
X10727325Y-9047984D02*
X10727325Y-9086079D01*
X11022563Y-9324174D02*
X11013039Y-9314650D01*
X11013039Y-9314650D02*
X10993991Y-9286079D01*
X10993991Y-9286079D02*
X10984468Y-9267031D01*
X10984468Y-9267031D02*
X10974944Y-9238460D01*
X10974944Y-9238460D02*
X10965420Y-9190841D01*
X10965420Y-9190841D02*
X10965420Y-9152746D01*
X10965420Y-9152746D02*
X10974944Y-9105127D01*
X10974944Y-9105127D02*
X10984468Y-9076555D01*
X10984468Y-9076555D02*
X10993991Y-9057508D01*
X10993991Y-9057508D02*
X11013039Y-9028936D01*
X11013039Y-9028936D02*
X11022563Y-9019412D01*
X11089230Y-9067031D02*
X11098753Y-9057508D01*
X11098753Y-9057508D02*
X11117801Y-9047984D01*
X11117801Y-9047984D02*
X11165420Y-9047984D01*
X11165420Y-9047984D02*
X11184468Y-9057508D01*
X11184468Y-9057508D02*
X11193991Y-9067031D01*
X11193991Y-9067031D02*
X11203515Y-9086079D01*
X11203515Y-9086079D02*
X11203515Y-9105127D01*
X11203515Y-9105127D02*
X11193991Y-9133698D01*
X11193991Y-9133698D02*
X11079706Y-9247984D01*
X11079706Y-9247984D02*
X11203515Y-9247984D01*
X11441610Y-9247984D02*
X11441610Y-9047984D01*
X11527325Y-9247984D02*
X11527325Y-9143222D01*
X11527325Y-9143222D02*
X11517801Y-9124174D01*
X11517801Y-9124174D02*
X11498753Y-9114650D01*
X11498753Y-9114650D02*
X11470182Y-9114650D01*
X11470182Y-9114650D02*
X11451134Y-9124174D01*
X11451134Y-9124174D02*
X11441610Y-9133698D01*
X11651134Y-9247984D02*
X11632087Y-9238460D01*
X11632087Y-9238460D02*
X11622563Y-9228936D01*
X11622563Y-9228936D02*
X11613039Y-9209889D01*
X11613039Y-9209889D02*
X11613039Y-9152746D01*
X11613039Y-9152746D02*
X11622563Y-9133698D01*
X11622563Y-9133698D02*
X11632087Y-9124174D01*
X11632087Y-9124174D02*
X11651134Y-9114650D01*
X11651134Y-9114650D02*
X11679706Y-9114650D01*
X11679706Y-9114650D02*
X11698753Y-9124174D01*
X11698753Y-9124174D02*
X11708277Y-9133698D01*
X11708277Y-9133698D02*
X11717801Y-9152746D01*
X11717801Y-9152746D02*
X11717801Y-9209889D01*
X11717801Y-9209889D02*
X11708277Y-9228936D01*
X11708277Y-9228936D02*
X11698753Y-9238460D01*
X11698753Y-9238460D02*
X11679706Y-9247984D01*
X11679706Y-9247984D02*
X11651134Y-9247984D01*
X11832087Y-9247984D02*
X11813039Y-9238460D01*
X11813039Y-9238460D02*
X11803515Y-9219412D01*
X11803515Y-9219412D02*
X11803515Y-9047984D01*
X11984468Y-9238460D02*
X11965420Y-9247984D01*
X11965420Y-9247984D02*
X11927325Y-9247984D01*
X11927325Y-9247984D02*
X11908277Y-9238460D01*
X11908277Y-9238460D02*
X11898753Y-9219412D01*
X11898753Y-9219412D02*
X11898753Y-9143222D01*
X11898753Y-9143222D02*
X11908277Y-9124174D01*
X11908277Y-9124174D02*
X11927325Y-9114650D01*
X11927325Y-9114650D02*
X11965420Y-9114650D01*
X11965420Y-9114650D02*
X11984468Y-9124174D01*
X11984468Y-9124174D02*
X11993991Y-9143222D01*
X11993991Y-9143222D02*
X11993991Y-9162270D01*
X11993991Y-9162270D02*
X11898753Y-9181317D01*
X12070182Y-9238460D02*
X12089230Y-9247984D01*
X12089230Y-9247984D02*
X12127325Y-9247984D01*
X12127325Y-9247984D02*
X12146372Y-9238460D01*
X12146372Y-9238460D02*
X12155896Y-9219412D01*
X12155896Y-9219412D02*
X12155896Y-9209889D01*
X12155896Y-9209889D02*
X12146372Y-9190841D01*
X12146372Y-9190841D02*
X12127325Y-9181317D01*
X12127325Y-9181317D02*
X12098753Y-9181317D01*
X12098753Y-9181317D02*
X12079706Y-9171793D01*
X12079706Y-9171793D02*
X12070182Y-9152746D01*
X12070182Y-9152746D02*
X12070182Y-9143222D01*
X12070182Y-9143222D02*
X12079706Y-9124174D01*
X12079706Y-9124174D02*
X12098753Y-9114650D01*
X12098753Y-9114650D02*
X12127325Y-9114650D01*
X12127325Y-9114650D02*
X12146372Y-9124174D01*
X12222563Y-9324174D02*
X12232087Y-9314650D01*
X12232087Y-9314650D02*
X12251134Y-9286079D01*
X12251134Y-9286079D02*
X12260658Y-9267031D01*
X12260658Y-9267031D02*
X12270182Y-9238460D01*
X12270182Y-9238460D02*
X12279706Y-9190841D01*
X12279706Y-9190841D02*
X12279706Y-9152746D01*
X12279706Y-9152746D02*
X12270182Y-9105127D01*
X12270182Y-9105127D02*
X12260658Y-9076555D01*
X12260658Y-9076555D02*
X12251134Y-9057508D01*
X12251134Y-9057508D02*
X12232087Y-9028936D01*
X12232087Y-9028936D02*
X12222563Y-9019412D01*
D12*
X7397500Y-9370500D02*
X7397500Y-9470500D01*
X7347500Y-9420500D02*
X7447500Y-9420500D01*
D11*
X7813039Y-9511984D02*
X7698753Y-9511984D01*
X7755896Y-9511984D02*
X7755896Y-9311984D01*
X7755896Y-9311984D02*
X7736848Y-9340555D01*
X7736848Y-9340555D02*
X7717801Y-9359603D01*
X7717801Y-9359603D02*
X7698753Y-9369127D01*
X7898753Y-9492936D02*
X7908277Y-9502460D01*
X7908277Y-9502460D02*
X7898753Y-9511984D01*
X7898753Y-9511984D02*
X7889229Y-9502460D01*
X7889229Y-9502460D02*
X7898753Y-9492936D01*
X7898753Y-9492936D02*
X7898753Y-9511984D01*
X8032086Y-9311984D02*
X8051134Y-9311984D01*
X8051134Y-9311984D02*
X8070182Y-9321508D01*
X8070182Y-9321508D02*
X8079705Y-9331031D01*
X8079705Y-9331031D02*
X8089229Y-9350079D01*
X8089229Y-9350079D02*
X8098753Y-9388174D01*
X8098753Y-9388174D02*
X8098753Y-9435793D01*
X8098753Y-9435793D02*
X8089229Y-9473889D01*
X8089229Y-9473889D02*
X8079705Y-9492936D01*
X8079705Y-9492936D02*
X8070182Y-9502460D01*
X8070182Y-9502460D02*
X8051134Y-9511984D01*
X8051134Y-9511984D02*
X8032086Y-9511984D01*
X8032086Y-9511984D02*
X8013039Y-9502460D01*
X8013039Y-9502460D02*
X8003515Y-9492936D01*
X8003515Y-9492936D02*
X7993991Y-9473889D01*
X7993991Y-9473889D02*
X7984467Y-9435793D01*
X7984467Y-9435793D02*
X7984467Y-9388174D01*
X7984467Y-9388174D02*
X7993991Y-9350079D01*
X7993991Y-9350079D02*
X8003515Y-9331031D01*
X8003515Y-9331031D02*
X8013039Y-9321508D01*
X8013039Y-9321508D02*
X8032086Y-9311984D01*
X8222562Y-9311984D02*
X8241610Y-9311984D01*
X8241610Y-9311984D02*
X8260658Y-9321508D01*
X8260658Y-9321508D02*
X8270182Y-9331031D01*
X8270182Y-9331031D02*
X8279705Y-9350079D01*
X8279705Y-9350079D02*
X8289229Y-9388174D01*
X8289229Y-9388174D02*
X8289229Y-9435793D01*
X8289229Y-9435793D02*
X8279705Y-9473889D01*
X8279705Y-9473889D02*
X8270182Y-9492936D01*
X8270182Y-9492936D02*
X8260658Y-9502460D01*
X8260658Y-9502460D02*
X8241610Y-9511984D01*
X8241610Y-9511984D02*
X8222562Y-9511984D01*
X8222562Y-9511984D02*
X8203515Y-9502460D01*
X8203515Y-9502460D02*
X8193991Y-9492936D01*
X8193991Y-9492936D02*
X8184467Y-9473889D01*
X8184467Y-9473889D02*
X8174943Y-9435793D01*
X8174943Y-9435793D02*
X8174943Y-9388174D01*
X8174943Y-9388174D02*
X8184467Y-9350079D01*
X8184467Y-9350079D02*
X8193991Y-9331031D01*
X8193991Y-9331031D02*
X8203515Y-9321508D01*
X8203515Y-9321508D02*
X8222562Y-9311984D01*
X8413039Y-9311984D02*
X8432086Y-9311984D01*
X8432086Y-9311984D02*
X8451134Y-9321508D01*
X8451134Y-9321508D02*
X8460658Y-9331031D01*
X8460658Y-9331031D02*
X8470182Y-9350079D01*
X8470182Y-9350079D02*
X8479705Y-9388174D01*
X8479705Y-9388174D02*
X8479705Y-9435793D01*
X8479705Y-9435793D02*
X8470182Y-9473889D01*
X8470182Y-9473889D02*
X8460658Y-9492936D01*
X8460658Y-9492936D02*
X8451134Y-9502460D01*
X8451134Y-9502460D02*
X8432086Y-9511984D01*
X8432086Y-9511984D02*
X8413039Y-9511984D01*
X8413039Y-9511984D02*
X8393991Y-9502460D01*
X8393991Y-9502460D02*
X8384467Y-9492936D01*
X8384467Y-9492936D02*
X8374943Y-9473889D01*
X8374943Y-9473889D02*
X8365420Y-9435793D01*
X8365420Y-9435793D02*
X8365420Y-9388174D01*
X8365420Y-9388174D02*
X8374943Y-9350079D01*
X8374943Y-9350079D02*
X8384467Y-9331031D01*
X8384467Y-9331031D02*
X8393991Y-9321508D01*
X8393991Y-9321508D02*
X8413039Y-9311984D01*
X8565420Y-9511984D02*
X8565420Y-9378650D01*
X8565420Y-9397698D02*
X8574944Y-9388174D01*
X8574944Y-9388174D02*
X8593991Y-9378650D01*
X8593991Y-9378650D02*
X8622563Y-9378650D01*
X8622563Y-9378650D02*
X8641610Y-9388174D01*
X8641610Y-9388174D02*
X8651134Y-9407222D01*
X8651134Y-9407222D02*
X8651134Y-9511984D01*
X8651134Y-9407222D02*
X8660658Y-9388174D01*
X8660658Y-9388174D02*
X8679705Y-9378650D01*
X8679705Y-9378650D02*
X8708277Y-9378650D01*
X8708277Y-9378650D02*
X8727325Y-9388174D01*
X8727325Y-9388174D02*
X8736848Y-9407222D01*
X8736848Y-9407222D02*
X8736848Y-9511984D01*
X8832086Y-9511984D02*
X8832086Y-9378650D01*
X8832086Y-9397698D02*
X8841610Y-9388174D01*
X8841610Y-9388174D02*
X8860658Y-9378650D01*
X8860658Y-9378650D02*
X8889229Y-9378650D01*
X8889229Y-9378650D02*
X8908277Y-9388174D01*
X8908277Y-9388174D02*
X8917801Y-9407222D01*
X8917801Y-9407222D02*
X8917801Y-9511984D01*
X8917801Y-9407222D02*
X8927325Y-9388174D01*
X8927325Y-9388174D02*
X8946372Y-9378650D01*
X8946372Y-9378650D02*
X8974944Y-9378650D01*
X8974944Y-9378650D02*
X8993991Y-9388174D01*
X8993991Y-9388174D02*
X9003515Y-9407222D01*
X9003515Y-9407222D02*
X9003515Y-9511984D01*
X9393991Y-9302460D02*
X9222563Y-9559603D01*
X9651134Y-9311984D02*
X9670182Y-9311984D01*
X9670182Y-9311984D02*
X9689229Y-9321508D01*
X9689229Y-9321508D02*
X9698753Y-9331031D01*
X9698753Y-9331031D02*
X9708277Y-9350079D01*
X9708277Y-9350079D02*
X9717801Y-9388174D01*
X9717801Y-9388174D02*
X9717801Y-9435793D01*
X9717801Y-9435793D02*
X9708277Y-9473889D01*
X9708277Y-9473889D02*
X9698753Y-9492936D01*
X9698753Y-9492936D02*
X9689229Y-9502460D01*
X9689229Y-9502460D02*
X9670182Y-9511984D01*
X9670182Y-9511984D02*
X9651134Y-9511984D01*
X9651134Y-9511984D02*
X9632087Y-9502460D01*
X9632087Y-9502460D02*
X9622563Y-9492936D01*
X9622563Y-9492936D02*
X9613039Y-9473889D01*
X9613039Y-9473889D02*
X9603515Y-9435793D01*
X9603515Y-9435793D02*
X9603515Y-9388174D01*
X9603515Y-9388174D02*
X9613039Y-9350079D01*
X9613039Y-9350079D02*
X9622563Y-9331031D01*
X9622563Y-9331031D02*
X9632087Y-9321508D01*
X9632087Y-9321508D02*
X9651134Y-9311984D01*
X9803515Y-9492936D02*
X9813039Y-9502460D01*
X9813039Y-9502460D02*
X9803515Y-9511984D01*
X9803515Y-9511984D02*
X9793991Y-9502460D01*
X9793991Y-9502460D02*
X9803515Y-9492936D01*
X9803515Y-9492936D02*
X9803515Y-9511984D01*
X9936848Y-9311984D02*
X9955896Y-9311984D01*
X9955896Y-9311984D02*
X9974944Y-9321508D01*
X9974944Y-9321508D02*
X9984468Y-9331031D01*
X9984468Y-9331031D02*
X9993991Y-9350079D01*
X9993991Y-9350079D02*
X10003515Y-9388174D01*
X10003515Y-9388174D02*
X10003515Y-9435793D01*
X10003515Y-9435793D02*
X9993991Y-9473889D01*
X9993991Y-9473889D02*
X9984468Y-9492936D01*
X9984468Y-9492936D02*
X9974944Y-9502460D01*
X9974944Y-9502460D02*
X9955896Y-9511984D01*
X9955896Y-9511984D02*
X9936848Y-9511984D01*
X9936848Y-9511984D02*
X9917801Y-9502460D01*
X9917801Y-9502460D02*
X9908277Y-9492936D01*
X9908277Y-9492936D02*
X9898753Y-9473889D01*
X9898753Y-9473889D02*
X9889229Y-9435793D01*
X9889229Y-9435793D02*
X9889229Y-9388174D01*
X9889229Y-9388174D02*
X9898753Y-9350079D01*
X9898753Y-9350079D02*
X9908277Y-9331031D01*
X9908277Y-9331031D02*
X9917801Y-9321508D01*
X9917801Y-9321508D02*
X9936848Y-9311984D01*
X10070182Y-9311984D02*
X10193991Y-9311984D01*
X10193991Y-9311984D02*
X10127325Y-9388174D01*
X10127325Y-9388174D02*
X10155896Y-9388174D01*
X10155896Y-9388174D02*
X10174944Y-9397698D01*
X10174944Y-9397698D02*
X10184468Y-9407222D01*
X10184468Y-9407222D02*
X10193991Y-9426270D01*
X10193991Y-9426270D02*
X10193991Y-9473889D01*
X10193991Y-9473889D02*
X10184468Y-9492936D01*
X10184468Y-9492936D02*
X10174944Y-9502460D01*
X10174944Y-9502460D02*
X10155896Y-9511984D01*
X10155896Y-9511984D02*
X10098753Y-9511984D01*
X10098753Y-9511984D02*
X10079706Y-9502460D01*
X10079706Y-9502460D02*
X10070182Y-9492936D01*
X10289229Y-9511984D02*
X10327325Y-9511984D01*
X10327325Y-9511984D02*
X10346372Y-9502460D01*
X10346372Y-9502460D02*
X10355896Y-9492936D01*
X10355896Y-9492936D02*
X10374944Y-9464365D01*
X10374944Y-9464365D02*
X10384468Y-9426270D01*
X10384468Y-9426270D02*
X10384468Y-9350079D01*
X10384468Y-9350079D02*
X10374944Y-9331031D01*
X10374944Y-9331031D02*
X10365420Y-9321508D01*
X10365420Y-9321508D02*
X10346372Y-9311984D01*
X10346372Y-9311984D02*
X10308277Y-9311984D01*
X10308277Y-9311984D02*
X10289229Y-9321508D01*
X10289229Y-9321508D02*
X10279706Y-9331031D01*
X10279706Y-9331031D02*
X10270182Y-9350079D01*
X10270182Y-9350079D02*
X10270182Y-9397698D01*
X10270182Y-9397698D02*
X10279706Y-9416746D01*
X10279706Y-9416746D02*
X10289229Y-9426270D01*
X10289229Y-9426270D02*
X10308277Y-9435793D01*
X10308277Y-9435793D02*
X10346372Y-9435793D01*
X10346372Y-9435793D02*
X10365420Y-9426270D01*
X10365420Y-9426270D02*
X10374944Y-9416746D01*
X10374944Y-9416746D02*
X10384468Y-9397698D01*
X10555896Y-9378650D02*
X10555896Y-9511984D01*
X10508277Y-9302460D02*
X10460658Y-9445317D01*
X10460658Y-9445317D02*
X10584468Y-9445317D01*
X10651134Y-9311984D02*
X10651134Y-9350079D01*
X10727325Y-9311984D02*
X10727325Y-9350079D01*
X11022563Y-9588174D02*
X11013039Y-9578650D01*
X11013039Y-9578650D02*
X10993991Y-9550079D01*
X10993991Y-9550079D02*
X10984468Y-9531031D01*
X10984468Y-9531031D02*
X10974944Y-9502460D01*
X10974944Y-9502460D02*
X10965420Y-9454841D01*
X10965420Y-9454841D02*
X10965420Y-9416746D01*
X10965420Y-9416746D02*
X10974944Y-9369127D01*
X10974944Y-9369127D02*
X10984468Y-9340555D01*
X10984468Y-9340555D02*
X10993991Y-9321508D01*
X10993991Y-9321508D02*
X11013039Y-9292936D01*
X11013039Y-9292936D02*
X11022563Y-9283412D01*
X11089230Y-9331031D02*
X11098753Y-9321508D01*
X11098753Y-9321508D02*
X11117801Y-9311984D01*
X11117801Y-9311984D02*
X11165420Y-9311984D01*
X11165420Y-9311984D02*
X11184468Y-9321508D01*
X11184468Y-9321508D02*
X11193991Y-9331031D01*
X11193991Y-9331031D02*
X11203515Y-9350079D01*
X11203515Y-9350079D02*
X11203515Y-9369127D01*
X11203515Y-9369127D02*
X11193991Y-9397698D01*
X11193991Y-9397698D02*
X11079706Y-9511984D01*
X11079706Y-9511984D02*
X11203515Y-9511984D01*
X11317801Y-9397698D02*
X11298753Y-9388174D01*
X11298753Y-9388174D02*
X11289229Y-9378650D01*
X11289229Y-9378650D02*
X11279706Y-9359603D01*
X11279706Y-9359603D02*
X11279706Y-9350079D01*
X11279706Y-9350079D02*
X11289229Y-9331031D01*
X11289229Y-9331031D02*
X11298753Y-9321508D01*
X11298753Y-9321508D02*
X11317801Y-9311984D01*
X11317801Y-9311984D02*
X11355896Y-9311984D01*
X11355896Y-9311984D02*
X11374944Y-9321508D01*
X11374944Y-9321508D02*
X11384468Y-9331031D01*
X11384468Y-9331031D02*
X11393991Y-9350079D01*
X11393991Y-9350079D02*
X11393991Y-9359603D01*
X11393991Y-9359603D02*
X11384468Y-9378650D01*
X11384468Y-9378650D02*
X11374944Y-9388174D01*
X11374944Y-9388174D02*
X11355896Y-9397698D01*
X11355896Y-9397698D02*
X11317801Y-9397698D01*
X11317801Y-9397698D02*
X11298753Y-9407222D01*
X11298753Y-9407222D02*
X11289229Y-9416746D01*
X11289229Y-9416746D02*
X11279706Y-9435793D01*
X11279706Y-9435793D02*
X11279706Y-9473889D01*
X11279706Y-9473889D02*
X11289229Y-9492936D01*
X11289229Y-9492936D02*
X11298753Y-9502460D01*
X11298753Y-9502460D02*
X11317801Y-9511984D01*
X11317801Y-9511984D02*
X11355896Y-9511984D01*
X11355896Y-9511984D02*
X11374944Y-9502460D01*
X11374944Y-9502460D02*
X11384468Y-9492936D01*
X11384468Y-9492936D02*
X11393991Y-9473889D01*
X11393991Y-9473889D02*
X11393991Y-9435793D01*
X11393991Y-9435793D02*
X11384468Y-9416746D01*
X11384468Y-9416746D02*
X11374944Y-9407222D01*
X11374944Y-9407222D02*
X11355896Y-9397698D01*
X11632087Y-9511984D02*
X11632087Y-9311984D01*
X11717801Y-9511984D02*
X11717801Y-9407222D01*
X11717801Y-9407222D02*
X11708277Y-9388174D01*
X11708277Y-9388174D02*
X11689230Y-9378650D01*
X11689230Y-9378650D02*
X11660658Y-9378650D01*
X11660658Y-9378650D02*
X11641610Y-9388174D01*
X11641610Y-9388174D02*
X11632087Y-9397698D01*
X11841610Y-9511984D02*
X11822563Y-9502460D01*
X11822563Y-9502460D02*
X11813039Y-9492936D01*
X11813039Y-9492936D02*
X11803515Y-9473889D01*
X11803515Y-9473889D02*
X11803515Y-9416746D01*
X11803515Y-9416746D02*
X11813039Y-9397698D01*
X11813039Y-9397698D02*
X11822563Y-9388174D01*
X11822563Y-9388174D02*
X11841610Y-9378650D01*
X11841610Y-9378650D02*
X11870182Y-9378650D01*
X11870182Y-9378650D02*
X11889230Y-9388174D01*
X11889230Y-9388174D02*
X11898753Y-9397698D01*
X11898753Y-9397698D02*
X11908277Y-9416746D01*
X11908277Y-9416746D02*
X11908277Y-9473889D01*
X11908277Y-9473889D02*
X11898753Y-9492936D01*
X11898753Y-9492936D02*
X11889230Y-9502460D01*
X11889230Y-9502460D02*
X11870182Y-9511984D01*
X11870182Y-9511984D02*
X11841610Y-9511984D01*
X12022563Y-9511984D02*
X12003515Y-9502460D01*
X12003515Y-9502460D02*
X11993991Y-9483412D01*
X11993991Y-9483412D02*
X11993991Y-9311984D01*
X12174944Y-9502460D02*
X12155896Y-9511984D01*
X12155896Y-9511984D02*
X12117801Y-9511984D01*
X12117801Y-9511984D02*
X12098753Y-9502460D01*
X12098753Y-9502460D02*
X12089230Y-9483412D01*
X12089230Y-9483412D02*
X12089230Y-9407222D01*
X12089230Y-9407222D02*
X12098753Y-9388174D01*
X12098753Y-9388174D02*
X12117801Y-9378650D01*
X12117801Y-9378650D02*
X12155896Y-9378650D01*
X12155896Y-9378650D02*
X12174944Y-9388174D01*
X12174944Y-9388174D02*
X12184468Y-9407222D01*
X12184468Y-9407222D02*
X12184468Y-9426270D01*
X12184468Y-9426270D02*
X12089230Y-9445317D01*
X12260658Y-9502460D02*
X12279706Y-9511984D01*
X12279706Y-9511984D02*
X12317801Y-9511984D01*
X12317801Y-9511984D02*
X12336849Y-9502460D01*
X12336849Y-9502460D02*
X12346372Y-9483412D01*
X12346372Y-9483412D02*
X12346372Y-9473889D01*
X12346372Y-9473889D02*
X12336849Y-9454841D01*
X12336849Y-9454841D02*
X12317801Y-9445317D01*
X12317801Y-9445317D02*
X12289230Y-9445317D01*
X12289230Y-9445317D02*
X12270182Y-9435793D01*
X12270182Y-9435793D02*
X12260658Y-9416746D01*
X12260658Y-9416746D02*
X12260658Y-9407222D01*
X12260658Y-9407222D02*
X12270182Y-9388174D01*
X12270182Y-9388174D02*
X12289230Y-9378650D01*
X12289230Y-9378650D02*
X12317801Y-9378650D01*
X12317801Y-9378650D02*
X12336849Y-9388174D01*
X12413039Y-9588174D02*
X12422563Y-9578650D01*
X12422563Y-9578650D02*
X12441611Y-9550079D01*
X12441611Y-9550079D02*
X12451134Y-9531031D01*
X12451134Y-9531031D02*
X12460658Y-9502460D01*
X12460658Y-9502460D02*
X12470182Y-9454841D01*
X12470182Y-9454841D02*
X12470182Y-9416746D01*
X12470182Y-9416746D02*
X12460658Y-9369127D01*
X12460658Y-9369127D02*
X12451134Y-9340555D01*
X12451134Y-9340555D02*
X12441611Y-9321508D01*
X12441611Y-9321508D02*
X12422563Y-9292936D01*
X12422563Y-9292936D02*
X12413039Y-9283412D01*
M02*
